<?xml version="1.0" encoding="utf-8"?>
<!-- Generator: Adobe Illustrator 17.1.0, SVG Export Plug-In . SVG Version: 6.00 Build 0)  -->
<!DOCTYPE svg PUBLIC "-//W3C//DTD SVG 1.1//EN" "http://www.w3.org/Graphics/SVG/1.1/DTD/svg11.dtd">
<svg version="1.1" id="Layer_1" xmlns="http://www.w3.org/2000/svg" xmlns:xlink="http://www.w3.org/1999/xlink" x="0px" y="0px"
	 viewBox="0 0 124.7 144" enable-background="new 0 0 124.7 144" xml:space="preserve">
<polygon fill-rule="evenodd" clip-rule="evenodd" fill="#44B6E2" points="0,36 0,108 62.4,144 124.7,108 124.7,36 62.4,0 "/>
<path fill-rule="evenodd" clip-rule="evenodd" fill="#58595B" d="M124.6,54.3L124.6,54.3l-0.1,0l-0.1,0l-0.1,0l-0.1,0l-0.1,0l0,0
	l-0.1,0l-0.1,0l-0.1-0.1l-0.2-0.1l0-0.1l0,0l0-0.1l0-0.1l0-0.1l0-0.1l0-0.1l0-0.1l0-0.1l0-0.1l0-0.1l0-0.1l0-0.1l0.1-0.1l0-0.1
	l0.1-0.1l0,0l0,0l0,0l0,0l0,0l0,0l0,0l0,0l0,0l0,0l0.1,0l0.1,0l0.1,0l0.1,0l0.1,0l0.1,0l0.1,0l0.1,0l0.1,0l0.1,0l0.1,0l0,0v-0.2
	l-0.1,0l-0.1,0l-0.1,0l-0.1,0l-0.1,0l-0.1,0l-0.1,0l-0.1,0l-0.1,0.1l0,0l0,0l0,0l0,0l0,0l0,0l0,0l0,0l-0.1,0.1l0,0l0,0l0,0l0,0
	l-0.1-0.1l-0.2,0.3l0,0l0,0l0,0l-0.1,0.2l-0.1,0.2l0,0l0,0l-0.5-0.4l-0.7-0.5l-0.4-0.3l-0.4-0.3l0,0l-0.2-0.1l-0.4-0.3l-0.1-0.1
	l-0.1,0.1l-0.1,0.1l0,0l0,0l0,0l0,0l0,0l0,0l0,0l0,0l0,0l0,0l0,0l-0.1,0l0,0l0,0l0,0l0,0l-0.1,0l-0.1,0.1l-0.1,0l-0.1,0l0,0
	l-0.1,0.1l0,0.1l0,0l0,0l0,0l0,0l0,0l-0.1,0.1l0,0.1l0,0l0,0l0,0l0,0l0,0l0,0l0,0l0,0l0,0l0,0l0,0l0,0l0,0l0,0.1l0,0.1l0,0.1l0,0
	l0,0.1l0.1,0.1l0,0l0.5,0.4l0,0l0.1,0.1l0,0l0,0l0,0l0,0l0,0l0,0l0,0l0,0l0-0.1l0-0.1l0-0.1l0,0l0,0l0,0l0,0l0,0l0.1,0l0.1,0l0,0.1
	l0,0l0,0l0,0l0,0l0,0l0,0.1l-0.1,0.1l0,0.1l-0.1,0.1l0.2,0.1l0.5,0.4l0-0.1l0-0.1l0-0.1l0-0.1l0,0l0,0l0,0l0.1,0l0.1,0l0,0.1l0,0
	l0,0l0,0l0,0.1l-0.1,0.1l0,0.1l-0.1,0.1l0,0l0.1,0l0.4,0.3l0.3,0.2l0-0.1l0-0.1l0-0.1l0-0.1l0,0l0,0l0,0l0.1,0l0.1,0l0,0.1l0,0l0,0
	l0,0l0,0.1l-0.1,0.1l0,0.1l-0.1,0.1l0.4,0.3L122,55l0,0l0.1-0.1l0-0.1l0-0.1l0-0.1l0,0l0,0l0,0l0.1,0l0.1,0l0,0.1l0,0l0,0l0,0l0,0.1
	l0,0.1l0,0.1l-0.1,0.1l0.3,0.2l0.4,0.3l0-0.1l0-0.1l0-0.1l0-0.1l0,0l0,0l0,0l0.1,0l0.1,0l0,0.1l0,0l0,0l0,0l0,0.1l0,0.1l0,0.1
	l-0.1,0.1l0.5,0.3l0.2,0.2l0-0.1l0,0l0-0.1l0-0.1l0-0.1l0,0l0,0l0,0l0,0l0,0l0.1,0l0.1,0l0,0.1l0,0l0,0l0.1,0.1l0,0l0.1,0.1l0,0
	l0,0.1l0,0.1l0,0.1l0,0l0,0l0,0.1l0,0l0,0l0,0l0,0l-0.1,0.2l0,0l0,0l0,0l-0.1,0.2l0,0l0,0l0,0l0,0l0,0l0,0l0,0l0,0l0,0l0,0l-0.1,0.1
	l0,0l0,0.1l-0.3,0.4l-0.3,0.5l-0.4,0.6l-0.2,0.3l0,0l0,0l0,0l0,0.1l0,0l-0.1,0.1l0,0l0,0l0,0l0,0l0,0l0,0l0,0l0,0l0,0l0,0l0,0l0,0
	l0,0l0,0l-0.3-0.2l-0.4-0.3l-0.5-0.3l0,0l0,0l0,0l0,0l0,0l0.1-0.2l0.2-0.3l0,0l0-0.1l0,0l0,0l0,0l0,0l0,0l0,0l0,0l-0.1-0.1l0,0
	l-0.4-0.3l-0.2-0.1l0,0l-0.5-0.3l0-0.1l-0.3-0.2l-0.2-0.1l-0.2,0.3l-0.9-0.6l0.2-0.3l-0.5-0.3l-0.3-0.2l0,0l-0.3-0.2l-0.3-0.2
	l-0.6-0.4l-0.5-0.3l0,0l0,0l0,0l0,0l0,0l-0.3-0.2l0,0l0,0l0,0l0,0l0,0l-0.1-0.1l0,0l0,0l-0.1,0l0,0l-0.1-0.1l0,0l0,0l0,0l0,0l0,0
	l0,0l-0.1,0l-0.1,0l-0.1,0l0,0l0,0l0,0l0,0l0,0l-0.1-0.1l-0.1,0l0,0l0,0l0,0l0,0l0,0l0,0l0,0l-0.1-0.1l0-0.1l-0.1-0.1l-0.1-0.1
	l-0.3-0.2l0,0l0,0l-0.1-0.1l0,0l-0.2-0.2l0,0l-0.4-0.3l-0.4-0.3l0,0l-0.5-0.3l-0.3-0.2l-0.1,0.1l0,0l0,0l0,0l0,0l0,0l0,0l0,0l0,0
	l0,0l0,0l0,0l0,0l0,0l0,0l0,0l0,0l-0.1-0.1l-0.1,0l-0.1,0l-0.1,0l-0.1,0l-0.1,0l-0.1,0l-0.1,0l-0.1,0l-0.1,0l-0.1,0l-0.1,0l0,0
	l-0.1,0l0,0l0,0l0,0l0,0l0,0.1l0,0.1l0,0l0,0.1l0,0l0,0l0,0l0,0.1l0,0l0,0l0,0.1l0,0.1l0,0l0,0l0,0l0,0.1l0,0.1l0,0.1l0,0.1l0,0
	l0,0.1l0,0l0.1,0l0,0l0.1,0l0.1,0l0,0l0,0l0,0l0,0l0,0l0,0l0.1,0l0.1,0l0.1,0l0.1,0l0.1,0l0.1,0l0.1,0l0.1,0l0.1,0l0.1,0l0,0l0.1,0
	l0,0l0,0l0,0l0,0l0,0l0-0.1l0,0l0.1-0.1l0,0l0,0l0,0l0,0l0,0l0,0l0,0l0,0l0.3,0.2l1.2,0.8l0.4,0.3l0.2,0.1l0,0l0,0l0,0l0,0l0,0l0,0
	l0.2,0.1l0,0l0,0l0.2,0.2l0,0l0,0l0,0l0,0l0,0l0,0l0.2,0.1l0,0l0,0.1l0,0l0.3,0.2l0.2,0.2l0.2,0.2l0.2,0.1l0.1,0.1l0,0l0,0l0,0l0,0
	l0,0l0,0l0,0l0,0l-0.1,0.2l-0.1,0.2l-0.2,0.2l-0.1,0.2l-0.1,0.2l-0.1,0.2l-0.1,0.2l-0.1,0.2l-0.1,0.1l-0.1,0.1l0,0l-0.2,0.3
	l-0.3,0.4l0,0l0,0l0,0l0,0l-0.2,0.2l-0.1,0.2l-0.3,0.4l-0.3,0.4l-0.3,0.4l-0.3,0.5l-0.5,0.7l-0.3,0.4l-0.4,0.5l-0.3,0.4l-0.3,0.4
	l-0.2,0.3l-0.2,0.3L111,63l0,0l0,0l-0.1,0.2l-0.1,0.2l-0.1,0.2l-0.2,0.3l-0.2,0.3l-0.2,0.2l-0.2,0.2l-0.2,0.3l-0.1,0.2l-0.1,0.2
	l-0.1,0.2l-0.1,0.2l-0.1,0.2l-0.2,0.2l-0.1,0.2l-0.1,0.2l-0.1,0.1l-0.1,0.1l-0.1,0.1l-0.1,0.2l-0.2,0.3l0,0.1l-0.1,0.2l-0.1,0.1
	l-0.1,0.2l-0.1-0.1l-0.1,0.2l-0.2,0.2l-0.1,0.1l0,0l0,0.1l0,0l0,0l0,0l0,0l0,0l0,0l-0.1,0l-0.1,0l0,0l0,0l0,0l0,0l0,0l-0.3,0l-0.2,0
	l0,0l0,0l0,0l0,0l0,0l-0.2,0l0,0l0,0l0,0l0,0l0,0l-0.1,0.1l-0.4,0l0,0l-0.1,0l-0.1,0l-0.2,0l-0.1,0l-0.3,0l-0.2,0l-0.2,0l-0.2,0
	l-0.1,0l-0.1,0l-0.1,0l-0.1,0l-0.2,0l-0.2,0l-0.2,0l-0.1,0l-0.1,0l-0.2,0l-0.1,0l-0.1,0l-0.2-0.1l-0.3-0.1l-0.2-0.1l0,0l0,0l0,0l0,0
	l0,0l0,0l0,0l0,0l0,0l0,0l0,0l0,0l0,0l0,0l0,0l0,0l0,0l0,0l0,0l-0.1,0l-0.1,0l0,0l0,0l-0.1,0l-0.1,0l-0.1,0l-0.1,0l-0.1,0l-0.1,0
	l-0.1,0l-0.1,0l0,0l0,0.1v0l0,0.1l0,0.1l0,0l0,0l0,0l0,0.1l0,0.1l0,0l0,0l0.2,0.1l0.3,0.1l0.3,0.1l0.2,0.1l0.2,0.1l0.2,0.1l0.3,0.1
	l0.3,0.1l0.3,0l0.1,0l0.1,0l0.1,0l0.1,0l0.2,0l0.1,0l0,0l0,0l0,0l0.2,0l0,0l0,0l0.1,0l0.1,0l0.1,0l0.1,0l0.1,0l0.1,0l0.1,0l0.1,0
	l0,0l0,0l0,0l0,0l0,0l0.2,0l0,0.1l0,0l0.2,0l0.1,0l0.6,0.1l0.2,0l0.2,0h0l0,0l0,0l0,0l0.1,0l0.1,0l0,0l0,0l0,0l0,0l0.2,0l0.1,0.1
	l0,0.1l-0.1,0.1l0,0l0,0l0,0.2l0,0.2l0,0.1l0,0l0,0l0,0l0.2,0l0.1,0l0,0l0,0l0,0l0,0l0,0l0.2,0l0,0l0,0l0,0l0,0l0,0l0.1,0l0.1,0l0,0
	l0.1,0.1l0,0l0,0l0,0l0,0l0,0l0,0l0,0v0l0,0l0,0l0,0l0,0l0,0.2l0,0l0,0l0,0l0,0.1l0,0l0,0l0,0l0,0.2l0,0l0,0l0,0l0,0l0,0l0,0l0,0
	l0,0l0,0l0,0l0,0l0,0l0,0l0,0l0,0l0,0l-0.1,0l-0.1,0l0,0l0,0l0,0l0,0l0,0l0,0l0,0l0,0l-0.1,0l-0.1,0l0,0l0,0l0,0l0,0l0,0l0,0l0,0
	l-0.1,0l0,0l0,0l0,0l0,0l0,0l0,0l0,0l-0.1,0l0,0l0,0l0,0.1l0,0.3l0.1,0.1l0,0.1l-0.1,0.1l-0.1,0l-0.1-0.1l-0.2,0l-0.1,0h0l0,0l0,0
	l0,0l-0.1,0l-0.1,0l-0.1,0l0,0l0,0h0l0,0l-0.2,0l-0.2,0l-0.2,0l-0.2,0l-0.1,0l-0.3,0.1l-0.2,0.1l-0.1,0.1l-0.3,0.2l-0.4,0.2
	l-0.4,0.2l0,0l0,0l0,0l0,0l-0.1,0.1l-0.2,0.1l-0.2,0.1l-0.1,0l0,0l0,0l0,0l-0.1,0l-0.1,0l-0.1,0l0,0l0,0l0,0l-0.5,0.2l0,0l-0.1,0
	l-0.1,0.1l0,0l-0.1,0l-0.1,0l-0.1,0.1l-0.2,0.1l-0.1,0l-0.2,0.1l-0.3,0.2L99.5,74l-0.2,0.1L99,74.2l-0.2,0.1l-0.1,0l0,0l0,0l0,0
	l-0.2,0.1l-0.2,0.1l-0.2,0.1L98,74.7l-0.2,0.1l-0.1,0.1l-0.2,0.1L97.4,75L97.2,75l-2.6,1.2l0,0l-3.4,1.5L90,78.3l0,0.1l0.1,0.1
	l-0.6,0.3l0,0l-0.1,0.1L89,79l0,0L89,78.8L86.4,80l-0.3,0.1l-0.8,0.4l-0.9,0.4l-0.5,0.2l-0.4,0.2l-0.4,0.2l-0.5,0.2l-0.4,0.2
	L81.9,82l-0.4,0.2l-0.3,0.1L81,82.4l0,0l-0.1,0l0,0l0,0l0,0l0,0l0,0l0,0l-0.1,0.1l0,0l0,0l0,0l0,0l-0.1,0l0,0l0,0l0,0l0,0l0,0l0,0
	l0,0l-0.1,0l-0.2,0.1l-0.3,0.1l-0.3,0.1l-0.2,0.1l-0.2,0.1L79,83.3l-0.2,0.1l-0.2,0.1l-0.2,0.1l-0.2,0.1l-0.2,0.1l-0.2,0.1l-0.1,0
	l-0.1,0L77.5,84l-0.3,0.2l-0.3,0.1l-0.3,0.1l-0.2,0.1l-0.2,0.1l-0.2,0.1l-0.2,0.1L75.5,85l-0.2,0.1l-0.2,0.1l-0.1,0l-0.1,0.1
	l-0.2,0.1l-0.2,0.1l-0.3,0.1L74,85.6l-0.2,0.1l-0.3,0.1l-0.2,0.1L73.2,86L73,86.1l-0.2,0.1l-0.2,0.1l0,0l-0.1,0.1l0,0l-0.3,0.1
	l-0.1,0l-0.1,0.1l-0.2,0.1l-0.2,0.1l-0.1,0.1l-0.1,0l-0.1,0.1L71.1,87L70.9,87l-0.2,0.1l-0.2,0.1l-0.2,0.1l-0.2,0.1L70,87.4
	l-0.2,0.1l-0.3,0.1l-0.2,0.1l-0.1,0.1l-0.1,0l0,0l-0.1,0l0,0l0,0l-0.1,0l-0.1,0l0,0l0,0l0,0l-0.1,0l-0.1,0l-0.1,0l-0.1,0l-0.3,0.1
	l-0.1,0l-0.1,0l0,0l0,0l0,0l0,0l0,0l0,0l-0.1,0l0,0l-0.1,0.1l-0.1,0l-0.1,0l-0.1,0l-0.1,0.1l-0.1,0l-0.1,0l-0.1,0.1l-0.2,0.1
	l-0.1,0.1l-0.1,0l0,0l-0.1,0L66.3,89l0,0l0,0l-0.1,0l-0.1,0l-0.1,0l-0.1,0l0,0l0,0l0,0l-0.1,0l-0.2,0l-0.1,0l-0.1,0l0,0l0,0l0,0
	l-0.1,0l-0.1,0l0,0l-0.1,0l-0.1,0l-0.1,0l-0.1,0l-0.1,0l-0.1,0l-0.1,0l-0.2,0.1l-0.2,0.1l-0.1,0l-0.1,0l-0.1,0l-0.1,0.1l-0.1,0
	l-0.1,0l0,0l-0.1,0l0,0l-0.1,0l-0.1,0.1l-0.1,0.1L63.1,90L63,90.1l-0.1,0l-0.1,0l-0.1,0l-0.1,0.1l-0.1,0.1l-0.1,0l-0.1,0l-0.1,0
	l-0.1,0l-0.1,0l-0.1,0.1l-0.1,0l-0.1,0l-0.1,0l-0.1,0l-0.1,0.1l-0.1,0l0,0l0,0l-0.1,0l-0.1,0l-0.1,0l-0.1,0L61,91l0,0l-0.1,0l-0.1,0
	l-0.1,0l0,0l0,0l0,0l-0.1,0.1l-0.1,0.1l-0.2,0.1l-0.1,0.1l0,0l-0.1,0l0,0l-0.1,0l-0.2,0l-0.1,0.1l-0.1,0l0,0l-0.2,0.1l-0.1,0l-0.2,0
	l-0.3,0.1l-0.2,0l-0.2,0.1l-0.1,0l-0.1,0l-0.1,0l0,0L58,92l0,0l-0.1,0l-0.2,0l-0.2,0l-0.1,0L57,92l-0.1,0l-0.1,0l-0.1,0l-0.2,0
	l-0.2,0l-0.2,0l-0.1,0L56,92l-0.2,0l-0.1,0l-0.1,0l-0.1,0l-0.1,0l-0.1,0l-0.1,0l-0.1,0l-0.1,0l-0.1,0l-0.1,0l-0.2,0l-0.1,0l-0.1,0
	h-0.1l-0.1,0l-0.1,0l-0.1,0l-0.1,0l-0.1,0l-0.1,0l-0.1,0l-0.1,0l-0.2,0.1L53,92.2l0,0l0,0l0,0l-0.1,0l-0.1,0l0,0l-0.1,0l0,0.1
	l-0.2,0l0,0l-0.4,0l0,0l-0.2,0l0-0.1l-0.1,0l0,0l0,0l-0.1,0l0,0l0,0l-0.1,0l0,0l0,0l-0.1,0l-0.3,0l-0.1,0l0,0l0,0l0,0l-0.1,0l0,0
	l-0.1,0l0,0l-0.2,0l0,0l0,0l0,0l0,0l-0.1,0l-0.1,0l-0.1,0l-0.1,0l0,0l0,0l-0.1,0l-0.2,0.1l-0.1,0.1l-0.2,0.1l-0.1,0l-0.1,0l-0.2,0.2
	L49,92.7l-0.1,0l-0.1,0l0,0l0,0l0,0l0,0l0,0l0,0l0,0l0,0l-0.1,0l0,0l-0.2,0l0,0l-0.2,0l-0.1,0l-0.1,0l-0.1,0l-0.2,0l-0.2,0l-0.1,0
	l0,0l-0.1,0l-0.1,0l-0.1,0l0,0l0,0l0,0l0,0l-0.2,0l0,0l0,0l0,0l-0.1,0l-0.1,0l0,0l0,0l0,0l0,0l0,0l0,0l0,0l0,0l0,0l-0.1,0l-0.1,0
	l-0.1,0l-0.1,0l-0.1,0l-0.1,0l-0.1-0.1l0,0L46,92.2l-0.1,0l-0.1,0l-0.1,0l-0.1,0l-0.2-0.1l0,0l-0.1,0l-0.2-0.1L45,91.8l-0.1-0.1
	l-0.1-0.1l-0.1-0.1l-0.2-0.1l-0.1-0.1l-0.1,0l-0.1-0.1L44,91.3l-0.1,0l0,0l0,0l0,0l0,0l-0.1,0l0,0l0,0l0,0l0,0l0,0l-0.1,0l-0.1,0
	l-0.1,0l-0.1,0l-0.1,0l0,0l0,0l-0.1,0l-0.1,0l-0.1-0.1l-0.1-0.1l-0.2-0.1l-0.2-0.1l-0.1-0.1l-0.1-0.1l-0.1,0l-0.1,0l-0.1,0l0,0
	l-0.1,0l0,0l0,0l0,0l0,0l-0.1-0.1l-0.1-0.1L41.3,90l-0.1,0l0,0l0,0l-0.1,0l-0.1-0.1l0,0l0,0l0,0l0,0l-0.1,0l-0.1,0l-0.1,0l-0.1,0
	l0,0l0,0l0,0l0,0l0,0l0,0l0,0l-0.1,0l-0.1,0l0,0l0,0l0,0l0,0l0,0l0,0l0,0l0,0l0,0l0,0l0,0l0,0l0,0l-0.1-0.1l-0.1,0L39.8,89l-0.1,0
	l-0.1,0l0,0l0,0l0,0l0,0l-0.1-0.1l-0.1-0.1l-0.1-0.1l-0.1-0.1l-0.1-0.1l-0.1-0.1l0,0l0,0l0,0l-0.1,0l0,0l0,0l0,0l0-0.1l0-0.1l0-0.1
	l0,0l0,0l0,0l0,0l0,0l0,0l0-0.1l0,0l-0.1-0.1l-0.1-0.1l-0.1-0.1l-0.1,0l0,0L38,87.3l-0.1-0.2L37.8,87l0,0l-0.1-0.2l-0.1-0.3l0-0.1
	l0-0.4l0-0.3l0-0.2l-0.1-0.4l0-0.3l0-0.3l-0.1-0.3L37.1,84L37,83.7l-0.1-0.3l-0.1-0.2l-0.1-0.2l-0.1-0.2l0-0.2l-0.1-0.4l0-0.1l0-0.3
	l0-0.3l0-0.2l0,0l0-0.2l0-0.3l0-0.3l0.1-0.5l0-0.1l0-0.1l0-0.1l0-0.1l0-0.1l0,0l0-0.1l0,0l0-0.1l0,0l0-0.1l0,0l0-0.1l0-0.1l0-0.2
	l0-0.2l0-0.1l0-0.3l0-0.2l0-0.3l0-0.2l0-0.1l0-0.1l0,0l0-0.1l0-0.3l0-0.3l0-0.3l0-0.2l0-0.3l0-0.1l0-0.2l0-0.1l0,0l0,0l0,0l0-0.2
	l0-0.1l0-0.3l0-0.3l0-0.3l0-0.2l0-0.2l0-0.2l0-0.3l0-0.2l0-0.1l0-0.1l0-0.1l0-0.1l0-0.1l0-0.1l0-0.1l0-0.1l0-0.1l0-0.1l0-0.1l0,0
	l-0.1-0.1l-0.1-0.1l0-0.1l0,0l0,0l0,0l0,0l0,0l0,0l0,0l0,0l0,0l0,0l0,0l0,0l0,0l0-0.1l0-0.1l0,0l0-0.1l0,0l0-0.1l0-0.1l0,0l0,0l0,0
	l0-0.2l0-0.1l0-0.1l0-0.2l0-0.1l0-0.2l0-0.1l0-0.1l0,0l0-0.1l0-0.1l0,0l0-0.3l0-0.1l0-0.1l0-0.2l0-0.1l0-0.2l0-0.1l0-0.1l0,0l0-0.3
	l0-0.1l0,0l0-0.1l0-0.1l0-0.2l0-0.1l0-0.2l0-0.1l0-0.1l0-0.1l0-0.3l0-0.1l0-0.1l0-0.1l0-0.1l0-0.1l0-0.1l0-0.2l0-1.4l0-0.1l0,0l0,0
	l-0.1,0l-0.1,0l0,0l0,0l0,0l0,0l0,0l0,0l0,0l0,0l0,0l0-0.2l0,0v0l0,0l0,0v0l0,0l0,0l0,0l0,0l0.2,0l0,0l0-0.1l0,0l0,0l0,0l0-0.1
	l0-0.1l0-0.1l0-0.1l0-0.1l0-0.1l0-0.1l0-0.1l0-0.1l0-0.1l0-0.1l0-0.1l0-0.1l0-0.1l0-0.1l0-0.1l0-0.1l0-0.1l0-0.1l0-0.1l0-0.1l0-0.1
	l0-0.1l0-0.1l0,0l0,0l0-0.1l0-0.1l0-0.1l0-0.1l0,0l0,0l0-0.1l0,0l0-0.1l0-0.1l0-0.1l0-0.1l0-0.1l0-0.1l0-0.1l0,0l0-0.1l0-0.1l0-0.1
	l0-0.1l0-0.1l0-0.1l0-0.1l0-0.1l0-0.1l0-0.2l0-0.1l0,0l0-0.1l0-0.1l0,0l0-0.1l0-0.1l0-0.1l0-0.1l0-0.1l0-0.1l0-0.1l0-0.2l0,0l0,0
	l0-0.1l0-0.1l0-0.1l0-0.1l0-0.1l0,0l0-0.1l0-0.1l0-0.1l0-0.1l0-0.1l0-0.1l0-0.1l0-0.1l0-0.1l0-0.1l0-0.1l0,0l0,0l0,0l0,0l0-0.1
	l0-0.1l0-0.1l0,0l0,0l0,0l0-0.1l0-0.1l0-0.1l0-0.1l0-0.1l0-0.1l0-0.1l0-0.1l0,0l0-0.1l0-0.1l0-0.1l0,0l0-0.1l0-0.1l0-0.1l0-0.1
	l0-0.1l-0.1-0.1l0-0.1l-0.1-0.1l-0.1-0.1l0-0.1l0-0.1l0-0.1l0,0l0-0.1l0-0.1l0-0.1l0-0.1l-0.1-0.1l0-0.1l0-0.1l0-0.1l-0.1-0.1
	L35,55.1l0-0.1l0-0.1l0-0.1l0,0l0-0.1l0-0.1l0-0.1l0-0.1l0-0.1l0-0.1l0-0.1l0-0.1l-0.1-0.1l0-0.1l0,0l0-0.1l0-0.1l0-0.1l0-0.1l0,0
	l-0.1-0.1l-0.1-0.1l0-0.1l0,0l0,0l0,0l0,0l0,0l-0.1,0l-0.1,0l-0.1,0l-0.1,0l0,0l0,0l0,0l0,0l0-0.1L33.4,53l0,0l0,0l0-0.1l-0.1-0.1
	l-0.1-0.2l-0.1-0.1L33,52.5l-0.1-0.1l-0.1-0.1l-0.1-0.1l0,0l0,0l0,0l0,0l0,0l-0.1,0l0,0l0,0l-0.2-0.1l-0.1,0l-0.1,0l-0.2-0.1l-0.2,0
	l-0.2-0.1l-0.2-0.1l-0.1-0.1l-0.1,0l-0.1,0l-0.2-0.1l-0.2,0l-0.2,0l-0.1,0l0,0l0,0l-0.1,0l-0.1,0l-0.1,0l-0.1,0l-0.2,0l-0.2,0
	l-0.2,0l-0.2,0l-0.1,0l-0.2,0l-0.2,0l-0.2,0l-0.3,0l-0.1,0l-0.1,0l-0.1,0l-0.1,0l-0.1,0l-0.1,0l-0.1,0l-0.2,0l-0.1,0l-0.2,0l-0.1,0
	l-0.3,0l-0.2,0l-0.2,0l-0.2,0l-0.1,0l-0.1,0l-0.1,0l-0.1,0l0,0l-0.1,0l-0.3,0l0,0l-0.3,0l-0.1,0l-0.2,0l0,0l0,0L24.8,52l-0.1,0.1
	l0,0l0,0l-0.1,0.1l-0.1,0l-0.1,0l0,0l0,0l0,0l-0.1,0l-0.1,0l0,0l0,0l0,0l0,0l0,0l0,0l0,0l0,0l0,0l-0.1-0.1l0,0l-0.1,0l0,0l0,0l0,0
	l0,0l0,0l0,0l0,0l0,0l0,0l0,0l0,0l0,0l0,0l-0.1,0l0,0l-0.2-0.1l-0.1-0.1l-0.1-0.1l-0.1-0.2l-0.2-0.2l-0.2-0.2l-0.2-0.2l-0.2-0.2
	l-0.1-0.1l0,0l0,0l0-0.1l0-0.1l0-0.1l0-0.1l0-0.1l0-0.1l0-0.1l0,0l0-0.1l0,0l0-0.1l0-0.1l0,0l0,0l0,0l0,0l0-0.1l0-0.1l0-0.1l0-0.1
	l0-0.1l0-0.1l0-0.1l0-0.1l0-0.1l0-0.1l0-0.1l0-0.1l0-0.1l0-0.1l0-0.1l0-0.1l0-0.1l0-0.1l0-0.1l0-0.1l0-0.1l0-0.1l0-0.1l0-0.1l0-0.1
	l0-0.1l0-0.1l-0.1-0.1l-0.1-0.1l0-0.1l0-0.1l0-0.1l-0.1-0.1l-0.1-0.2l0-0.1l0,0l-0.1-0.1l-0.1-0.1l-0.1-0.1l0-0.1l0,0l0,0l0,0l0,0
	l0,0l0,0l0,0l0,0l0,0l0,0L20,45.8l-0.1-0.1l-0.1-0.1l-0.1-0.1l-0.1-0.1l-0.1-0.1l0-0.1l-0.1-0.1l-0.1-0.1l0-0.1l-0.1-0.1L19.4,45
	l-0.1-0.1l-0.1-0.1l-0.1-0.1L19,44.6L19,44.5l-0.1-0.1l-0.1-0.1l-0.1-0.1l-0.1-0.1L18.6,44l-0.1-0.1l-0.1-0.1l-0.1-0.1l-0.1-0.1
	l-0.1-0.1l-0.1-0.1L18,43.4l0,0l-0.1-0.1l-0.1-0.1l-0.1-0.1l0-0.1l0,0l0,0l0,0l-0.1-0.1l-0.1-0.1l-0.1-0.1l-0.1-0.1l-0.1-0.1
	L17,42.5l-0.1-0.1l-0.1-0.1l-0.1-0.1l-0.1-0.1l0,0l0,0l0,0l0,0l0,0l0,0l0,0l0,0l0,0l-0.1,0l-0.1-0.1l-0.1-0.1l-0.1-0.1L16,41.6
	l-0.4-0.3l-0.1-0.1l-0.1-0.1l-0.1-0.1l0,0L15.2,41l-0.1-0.1L15,40.9l-0.1-0.1l-0.2-0.1l-0.1-0.1l-0.1-0.1l-0.1-0.1l-0.1-0.1
	l-0.1-0.1L14,40.2l-0.1,0l-0.1-0.1L13.6,40l-0.2-0.1l-0.1,0l-0.2-0.1l-0.2-0.1l-0.3-0.1l-0.2,0l-0.1,0l-0.2,0l-0.2,0l-0.6-0.1
	l-0.1,0l-0.1,0l-0.1,0l-0.2,0l-0.2,0l-0.1,0l-0.1,0l-0.1,0l-0.1,0l-0.1,0l-0.1,0l-0.1,0l-0.1,0l-0.1,0l-0.1,0l0,0l-0.1,0l0,0l0,0
	l0,0l0,0h0l0,0l0,0l0,0l0,0l0,0l0,0l0,0l-0.1,0l0,0l0,0l0,0l0,0l0,0l-0.1,0l-0.1,0l-0.1,0l-0.1,0l-0.1,0l-0.2,0l-0.1,0l-0.1,0
	l-0.2,0l-0.1,0l-0.1,0l-0.1,0l-0.1,0l-0.1,0l-0.1,0l-0.2,0l0,0l0,0l0,0l0,0l-0.1,0l0,0l-0.1,0l0,0l0,0l-0.1,0l-0.1,0l-0.1,0l0,0l0,0
	l0,0l0,0l-0.1,0l-0.1,0.1l0,0l0,0l0,0l0,0l-0.1,0l0,0l0,0l-0.1,0.1l-0.1,0.1l0,0l0,0l0,0l0,0l-0.1,0.1l-0.1,0l0,0l0,0l-0.1,0l0,0
	l0,0l-0.2,0.2l0,0l0,0l0,0l0,0l-0.1,0.1l0,0l0,0L5.6,41l-0.1,0.1l0,0l-0.1,0.1l-0.1,0.1l0,0.1l-0.1,0.1l-0.1,0.1l-0.1,0.1L5,41.7
	l0,0l0,0l0,0l0,0l0,0l0,0l0,0l0,0l0,0.1l0,0.1l0,0l0,0.1l0,0l0,0l0,0l-0.2,0.2l-0.1,0.1l0,0l0,0l0,0l0,0l0,0l0,0l0,0l0,0l0,0l0,0.1
	l0,0l0,0l0,0l0,0L4,43l0,0.1l0,0.1l0,0.1l-0.1,0.2l0,0.1l0,0.1l0,0.1l0,0.1l0,0.1l0,0l0,0.1l0,0.1l0,0.1v0l0,0.1l0,0l0,0.1l0,0.1
	l0,0.1l0,0.1l0,0.1l0,0l0,0.1l0,0l0,0l0,0l0,0l0,0l0,0l0,0l0,0l0,0l0,0l0,0l0,0l0,0l0,0l0,0l0,0l0,0l0,0l0,0l0,0l0,0l0,0l0,0l0,0
	l0.1,0.1l0,0l0,0l0,0l0,0l0,0l0,0l0,0l0,0l0,0l0,0l0,0l0,0l0,0l0,0l0,0l0,0l0,0l0,0l0,0l0,0l0,0l0,0l0,0l0,0l0,0l0.1,0.1l0,0l0,0
	l0,0l0,0l0,0l0,0l0,0.1l0,0.1l0,0l0,0l0,0l0.1,0.2l0,0l0,0l0,0l0,0l0,0l0,0l0,0l0,0l0,0l0,0l0,0l0.1,0.1l0,0.1l0,0.1l0,0.1l0,0l0,0
	l0.1,0.1l0,0l0,0L5,47.3l0.1,0.1l0,0l0,0l0,0l0,0.1l0,0.1l0,0.1l0,0.1l0.1,0.1l0,0.1l0,0.1l0,0l0,0l0,0l0,0l0,0.1l0,0l0,0l0,0l0,0
	l0,0l0,0l0,0l0,0l0.1,0.1l0,0l0,0l0,0l0.1,0.1l0,0l0.1,0.1l0,0L6,48.8l0,0l0,0l0,0l0,0l0,0l0,0l0,0l0,0l0,0l0,0.1l0,0.1l0,0l0,0l0,0
	l0,0l0,0.1l0,0l0,0.1l0,0.2l0,0.1l0,0.1l0,0.2l0,0.1l0,0.1l0,0.2l0,0.2l0,0.2l0,0.1l0,0.1l-0.1,0.1l0,0.1l0,0.1l0,0.1l-0.1,0.1
	l0,0.1l0,0l0,0.1l-0.1,0.2l0,0.1l0,0.1l0,0l0,0.1l-0.1,0.1l0,0l-0.1,0.1l-0.1,0.1l-0.1,0.1L5,52.6l0,0l-0.1,0.1l0,0.1L4.7,53
	l-0.1,0.1l-0.1,0.1l-0.1,0.1l-0.1,0.1l0,0l-0.2,0.2l-0.1,0.1L4,53.6l0,0l0,0l-0.1,0.1l-0.1,0.1l-0.1,0.1l0,0l0,0l0,0l0,0l0,0l0,0
	l0,0l-0.1,0.1l-0.2,0.2l0,0l0,0l0,0l0,0l0,0l0,0l-0.1,0.1l0,0l0,0l0,0l0,0l0,0l0,0l0,0l0,0l0,0l0,0l0,0l0,0l0,0l0,0l-0.1,0.1l0,0
	l0,0l0,0l0,0l0,0l-0.1,0.1l-0.1,0.1l-0.1,0l-0.1,0l0,0l0,0l-0.6,0.4l-0.3,0.1l0,0l-0.1,0.1l-0.3,0.1l0,0l0,0l-0.2,0.1l-0.1,0l-0.2,0
	l-0.1,0l0,0l-0.1,0l0,0v2.5l0.1,0l0,0l0,0l0,0l0,0l0,0l0-0.1L0.7,58l0.6-0.3l0,0l0,0l0,0l0,0l0-0.1l0.1-0.1l0,0l0.1,0l0.1-0.1l0.1,0
	l0.1,0l0.2-0.1l0.1,0l0.1,0l0.1-0.1l0.1,0l0.1,0l0.1,0l0.1,0l0.1-0.1l0,0l0,0l0,0l0,0l0,0l0.1,0l0.2-0.1l0.1,0l0,0l0,0l0.1,0l0,0
	l0.1,0l0.2-0.1l0.2-0.1l0.2-0.1l0.1-0.1l0,0L4.5,56l0.3-0.2l0.1-0.1l0.1-0.1l0.2-0.1l0.2-0.2l0,0l0.1-0.1l0,0l0,0l0.1-0.1l0,0l0,0
	l0,0l0,0l0,0l0,0l0,0l0,0l0,0l0,0L5.8,55l0.2-0.1l0,0L6,54.7l0.1-0.1l0.1-0.1l0,0l0,0l0.1,0l0,0l0,0l0.1-0.1l0,0l0,0l0,0l0,0l0,0
	l0-0.1l0-0.1l0-0.1l0,0l0,0l0.1-0.1l0,0l0,0l0.1-0.1l0,0l0,0l0,0l0-0.1l0,0l0,0l0,0l0,0l0,0l0,0l0.1-0.1l0,0l0,0l0,0l0,0l0,0l0,0
	l0,0l0,0l0,0l0,0l0,0l0,0l0,0l0,0l0,0l0,0l0,0l0,0l0,0l0,0l0.1-0.1L7.7,53l0.1-0.1l0.1-0.1l0.1,0l0,0l0,0l0,0L8,52.7l0,0l0,0l0,0
	l0,0l0,0l0-0.1l0,0l0,0l0,0l0,0l0,0l0,0l0,0l0,0l0,0l0,0l0,0l0,0l0,0l0-0.1l0,0l0,0l0,0l0,0l0,0l0,0l0,0l0,0l0-0.1l0,0l0-0.1l0-0.1
	l0,0l0-0.1l0-0.1l0-0.1l0-0.1l0-0.1l0-0.2l0-0.1l0-0.1l0-0.2l0-0.1l0-0.1l0-0.1l-0.1-0.4l0-0.1l0-0.1l-0.1-0.2l0-0.1l0-0.1l0-0.1
	l0-0.1l0-0.1l0-0.1l0-0.1l0,0l0-0.1l0,0l0-0.1l-0.1-0.1l0-0.1l0-0.1L8,48.3l0-0.1l-0.1-0.1l0-0.1l-0.1-0.1l0-0.1l-0.1-0.2l0,0
	l-0.1-0.1l-0.1-0.1l-0.1-0.1l0,0l-0.1-0.1L7.3,47L7.3,47l0,0l0,0l0,0l0,0l0,0L7,46.7l0-0.1l-0.1-0.1l-0.1-0.1l0-0.1l0-0.1l0,0l0,0
	l-0.1-0.1l-0.1,0l-0.1-0.1L6.5,46l0,0l0,0l0,0l0,0l0-0.1l-0.1-0.1l0,0l0,0l-0.1-0.1l0,0l0,0l0,0l0,0l0,0l0,0l0,0l0,0L6,45.4l0,0l0,0
	l0,0l0,0l0,0l0,0l0,0l0,0l0-0.1l0,0l0,0l0,0l0,0l0,0l0,0L5.8,45l0,0l0-0.1l0-0.1l0-0.1l0-0.1l0,0l0-0.1l0-0.1l0-0.1l0-0.1l0-0.1
	l0-0.1l0-0.1l0-0.1l0-0.1l0-0.1l0-0.2l0-0.1l0-0.1l0-0.1l0.1-0.1l0-0.1l0-0.1L6,43l0.1-0.1l0.1-0.1l0.1-0.1l0.1-0.1l0.1-0.1l0,0
	l0.3-0.2l0.1-0.1L7,42.1L7.1,42l0,0l0.1-0.1l0.1,0l0.1,0l0.1,0l0.1-0.1l0.1-0.1l0.2-0.1L8,41.5l0.1,0l0.1,0l0.1,0l0.1,0l0.3-0.1
	l0.1,0l0.1,0l0.1,0l0.3,0l0.3,0l0.1,0l0.1,0l0.2,0l0.1,0l0.2,0l0.1,0l0.2,0l0.2,0l0.2,0l0.2,0l0.2,0l0.1,0l0.2,0l0.1,0l0.2,0.1
	l0.2,0.1l0.1,0l0.2,0.1l0.2,0.1l0.1,0l0.4,0.2l0.2,0.1l0.1,0.1l0.1,0.1l0.1,0.1l0.1,0l0.1,0l0.1,0.1l0.1,0.1l0.1,0.1l0.1,0l0,0
	l0.1,0l0.1,0l0.1,0l0.1,0.1l0.1,0.1l0.1,0.1l0.1,0.1l0.1,0.1L15,43l0.1,0.1l0,0l0.1,0.1l0.1,0.1l0.1,0.1l0.1,0.1l0.1,0.1l0.1,0.1
	l0.1,0.1l0.1,0.1l0.1,0.1l0.1,0.1l0.1,0.1l0.1,0.1l0.1,0.1l0.1,0.1l0.1,0.1l0.1,0.1l0.1,0.1l0.1,0.1l0.1,0.2l0.1,0.1l0,0.1l0.1,0.1
	l0,0.1l0,0.1l0.1,0.2l0.1,0.4l0,0.1l0.1,0.5l0,0.1l0,0.1l0,0.1l0,0.1l0,0.1l0,0.1l0,0.1l0,0.2l0,0.2l0,0.1l0,0.1l0,0.1l0,0.1l0,0.1
	l0,0.1l0,0.1l0.1,0.1l0,0.1l0.1,0.1l0.1,0.1l0,0.1l0,0.1l0,0.1l0,0l0,0.1l0,0.1l0.1,0.1l0.1,0.1l0.1,0.1l0.1,0.1l0,0.1l0,0.1l0,0.1
	l0,0.1l0,0.1l0,0.1l0,0.1l0.1,0.1l0,0l0,0.1l0.1,0.1l0,0l0,0l0.5,0.8l0,0l0,0.1l0.1,0.1l0,0.1l0,0.1l0,0.1l0.1,0.1l0.1,0.2l0.1,0.1
	l0.1,0.1l0.1,0.1l0,0l0.2,0.2l0.1,0.1l0.1,0.1l0,0l0,0l0,0l0,0l0,0l0,0l0.1,0.1l0.1,0.1l0,0l0,0l0.1,0l0.1,0.1l0.1,0.1L21,53
	l0.1,0.1l0.3,0.1l0.1,0l0,0l0.1,0l0.1,0l0.1,0l0.2,0l0.1,0l0.1,0l0.1,0l0.1,0l0,0l0,0l0.1,0l0,0l0,0l0.1,0l0.1,0l0,0l0,0l0,0l0,0
	l0,0l0,0l0.1,0l0.1,0l0.1,0.1l0,0l0,0l0,0l0,0l0.1,0l0,0.1l0.1,0.1l0.1,0.1l0,0l0,0l0.1,0l0,0l0,0l0,0l0.1,0l0.2,0.1l0.2,0.1l0.1,0
	l0.1,0.1l0.1,0.1l0.1,0l0.1,0l0.1,0l0.1,0l0,0l0.1,0l0.2,0l0,0l0.1,0l0.1,0l0,0l0,0l0.1,0l0,0l0,0l0.1,0l0.1,0l0.1,0.1l0.1,0l0.1,0
	l0.1,0l0.2,0l0.1,0l0.2,0l0.1,0l0,0l0,0l0.1,0l0.1,0l0.1,0l0.2,0l0.2,0l0.1,0l0.1,0l0.1,0l0,0l0.1,0l0.1,0l0.1,0l0.1,0l0.1,0l0.1,0
	l0.1,0l0,0l0,0l0,0l0,0l0.1-0.1l0.1,0l0.2-0.1l0,0l0,0l0.1,0l0.1,0l0.1,0l0.2,0l0.2,0l0.1,0l0.1,0l0.1,0l0.1-0.1l0,0l0.1,0l0,0l0,0
	l0.1,0l0.1,0l0.1,0l0.1,0l0.1,0l0,0l0,0l0,0l0,0l0,0l0.1,0l0.1,0l0.2,0.1l0.2,0.1l0.1,0l0.1,0l0.2,0l0.1,0l0.1,0l0,0l0.4-0.1l0.1,0
	l0.1,0l0,0l0.1,0l0,0l0,0.1l0,0l0,0l0,0.1l0,0.1l0,0.1l0,0.1l0.1,0.1l0.1,0.2l0.1,0.2l0.1,0.3l0.1,0.2l0.1,0.4l0.1,0.2l0.1,0.1
	l0,0.2l0.1,0.3l0,0.1l0,0.1l0,0.2l0,0.1l0,0.2l0,0.1l0,0.1l0,0.1l0,0.1l0,0.2l0,0.2l0,0.1l0,0l0,0.1l0,0.1l0,0.1l0,0l0,0.1l0,0.1
	l0,0l0,0l0,0.1l0,0l0,0.1l0,0.1l0,0.1l0,0.2l0.1,0.4l0,0.1l0,0.2l0,0.2l0,0.2l0,0.1l0,0l0,0.2l0,0.3l0,0.2l0,0.1l0,0.1l0,0.1l0,0
	l0,0.1l0,0.2l0,0l0,0.3l0,0l0,0.4l0,0.2l0,0.3l0.2,0.3l0,0.1l0.1,0l0.1,0l0,0l0,0l0,0l0,0l0,0v0l0,0l0,0.1l0,0.1l0,0.1l0,0l0,0l0,0
	l0,0l0,0l0,0l0,0l0,0l0,0l0,0l0,0.3l-0.1,0.3l0,0.3l0,0.1l0,0.1l0,0.1l0,0.1l0,0.1l0,0.1l0,0.1l0,0.1l0,0.1l0,0.1l0,0.1l0,0.1l0,0.1
	l0,0.1l0,0.1l0,0.2l0,0.1l0,0.1l0,0.1l0,0.1l0,0.1l0,0.1l0,0.1l0,0.2l0,0.1l0,0.1l0,0.1l0,0.1l0,0.1l0,0.1l0,0.1l0,0.1l0,0.1l0,0.1
	l0,0.1l0,0.1l0,0.1l0,0.2l0,0.1l0,0.1l0,0.1l0,0.1l0,0.1l0,0.1l0,0.1l0,0.1l0,0.1l0,0.3l0,0l0,0.1l0,0.1l0,0.1l0,0.1l0,0.1l0,0.1
	l0,0.1l0,0.1l0,0.1l0,0.1l0,0.1l0,0.1l0,0.1l0,0.1l0,0l0,0.2l0,0l0.1,0.1l0,0.1l0.1,0.1l0,0l0,0l0,0l0,0.1l0,0l0,0l0.1,0.3l0,0l0,0
	l0,0l0,0l0,0l-0.2,0.1l-0.1,0.1l-0.1,0.1l0,0.1l0,0l0,0.2l0,0.3l0,0.3l0,0.3l0,0.3l0,0.2l0,0.2l0,0.2l0,0.2l0,0.2l0,0.3l0,0.2l0,0.2
	l0,0.2l0,0.2l0,0l0,0l0,0l0,0l0,0l0,0l0,0l0,0l0,0l0,0l0,0.1l0,0.1l0,0l0,0l0,0l0,0l0,0l0,0l0,0l0,0l0,0.1l0,0l0,0.1l0,0.1l0,0.1
	l0,0.1l0,0.1l0,0l0,0l0,0.1l-0.1,0.2l0,0.1l0,0.1l0,0l0,0l0,0l0,0l0,0l0,0.1l0,0.1l0,0l0,0l0,0l0,0l0,0l0,0l0,0.1l0,0.1l0,0.1l0,0.1
	l-0.1,0.2l0,0.1l0,0.1l0,0.1l0,0.1l0,0.1l0,0.1l0,0.1l0,0l0,0l0,0l0,0l0,0l0,0l0,0l0,0.1l0,0.1l0,0l0,0l0,0l0,0l0,0l0,0l0,0l0,0l0,0
	l0,0.1l0,0.1l0,0.1l0,0l0,0l0,0l0,0l0,0l0,0l0,0l0,0l0,0l0,0l0,0l0,0l0,0l0,0.1l0,0l0,0l0,0l0,0l0,0l0,0.1l0,0.1l0,0.1l0,0.1l0,0
	l0,0.1l0,0.1l0,0.1l0,0.1l0,0l0,0.1l0,0.1l0,0.1l0,0.1l0,0.1l0,0.1l0,0l0,0l0,0l0,0l0,0l0,0.1l0,0.1l0,0l0,0.1l0,0.1l0,0.1l0,0.1
	l0,0.1l0,0.1l0,0.1l0,0.1l0,0.1l0,0.1l0,0.1l0,0l0,0.1l0,0.1l0,0l0,0.2l0,0.2l0,0.1l0,0.1l0,0.1l0,0.1l0,0.1l0,0.1l0,0l0,0l0,0l0,0
	l0,0l0,0l0,0l0,0l0,0l0,0l0,0.1l0,0.1l0,0.1l0.1,0.2l0,0.2l0.1,0.2l0.1,0.3l0.1,0.2l0,0.1l0,0l0.1,0.3l0,0.1l0.1,0.3l0,0.1l0.1,0.3
	l0.3,0.4l0.1,0.1l0,0.1l0.1,0.1l0,0.1l0.1,0.1l0,0l0,0l0,0l0,0l0,0l0,0l0,0l0,0l0,0l0,0.1l0,0l0.1,0.1l0,0l0,0l0,0l0.1,0.1l0.1,0
	l0,0l0.1,0.1l0,0.1l0,0.1l0,0l0,0l0,0l0,0.1l0,0.1l0,0l0,0l0,0l0,0l0,0l0.1,0l0.1,0l0,0l0,0l0,0l0,0l0,0l0,0l0,0l0,0.1l0,0l0.1,0
	l0.1,0l0.1,0.1l0.1,0l0.1,0.1l0.1,0l0.1,0.1l0,0l0.1,0l0.1,0l0.1,0l0.1,0l0.1,0l0.1,0l0.1,0.1l0.1,0.1l0.1,0l0,0l0.1,0l0.1,0
	l0.1,0.1l0,0l0,0l0.1,0.1l0.1,0l0.1,0l0.1,0l0.1,0l1,0.5l1.1,0.7l0,0l1.3,0.8l0,0l0.1,0l0.1,0l0.1,0l1.6,0.6l0,0l0.1,0l0,0l1.4,0.4
	l0,0l0.3,0.1l0,0l0.1,0l0.1,0l0.1,0l0.1,0l0.1,0l0.1,0l0.2,0l0.2,0l0.1,0l0,0l0.1,0l0,0l0,0l0,0l0,0l0,0l0,0l0,0l0,0l0,0l0,0l0,0
	l0,0l0.1,0l0.1,0l0,0l0,0l0,0l0.1,0l0,0l0.1,0l0.1,0l0,0l0,0l0,0l0,0l0,0l0,0l0,0l0,0l0,0l0,0l0,0l0,0l0,0l0,0l0,0l0,0l0,0l0,0l0,0
	l0,0l0,0l0,0l0,0l0,0l0,0l0,0l0,0l0,0l0,0l0,0l0,0l0,0l0,0l0,0l0.1,0l0.1,0l0,0l0,0l0,0l0,0l0,0l0,0l0,0l0,0l0,0l0,0l0,0l0,0l0,0
	l0,0l0,0l0.3,0.1l0-0.1l0.8,0.1l0,0l0,0l0.5,0l0.2,0l0.7,0l0.5,0l0.2,0l0.4,0.1l0.4,0.1l0.5,0.1l0.8,0.2l0.6,0.2l0.5,0.2l0,0
	l0.2,0.1l0.1,0l0.1,0l0,0l0,0l0,0l0,0l0,0l0,0l0,0l0,0l0,0l0,0l0.1,0l0,0l0,0l0.1,0l0.3,0l0.3,0l0.5,0l0.4,0.1l0.2,0l0,0l0,0l0.1,0
	l0.1,0l0,0l0,0l0,0l0.1,0l0,0l0,0l0,0l0,0l0.1,0l0.1,0l0.1,0l0,0l0.1,0l0.1,0l0,0l0,0l0,0l0,0l0,0l0,0l0,0l0,0l0.1,0l0.1,0l0.1,0
	l0,0l0.1,0l0,0l0.2,0l0.2,0l0.1,0l0,0l0,0l0,0l0,0l0,0l0,0l0,0l0,0l0,0l0,0l0.1,0l0.1,0l0,0l0,0l0,0l0,0l0,0l0,0l0,0l0,0l0,0l0,0
	l0.1,0l0.1,0l0,0l0,0l0,0l0.1,0l0.1,0l0,0l0,0l0,0l0,0l0.1,0l0,0l0,0l0,0l0,0l0,0l0,0l0,0l0,0l0,0l0.1,0l0,0l0.1,0l0,0l0,0l0,0l0,0
	l0.1,0l0.1,0l0,0l0,0l0,0l0,0l0,0l0.1,0l0.1,0l0.1,0l0.1,0l0.1,0l0,0l0,0l0,0l0,0l0,0l0.1,0l0.1,0l0.1,0l0.1,0l0.5-0.1l0.1,0l0.1,0
	l0.1,0l0.1,0l0.1,0l0.2,0l0.2,0l0.1,0l0.2,0l0.1,0l0.1,0l0.1,0l0.3-0.1l0.1,0l0.1,0l0.1,0l0.2,0l0.1,0l0.1,0l0.2,0l0.1,0l0.1,0
	l0.2,0l0.3,0l0.2,0l0.1,0l0,0l0,0l0.1,0l0.1,0l0.1,0l0.1,0l0.1,0l0.1,0l0.2,0l0.1,0l0.1,0l0.1,0l0.1,0l0.1,0l0.1,0l0.1,0l0.1,0
	l0.1,0l0.2,0l0.2,0l0.2,0l0.1,0l0.1,0l0.1,0.1l0.2,0l0.1,0.1l0.1,0l0.1,0l0.1,0l0.1,0l0.2,0.1l0.2,0.1l0.2,0.1l0.2,0.1l0.2,0.1l0,0
	l0,0l0,0l0,0l0.1,0l0.1,0l0,0l0.2,0l0.3,0l0,0l0,0l0.1,0l0.1,0l0.1,0l0,0l0,0l0,0l0,0l0,0l0.2,0l0.2,0l0.1,0l0.1,0l0.1,0l0.1,0
	l0.1,0l0.1,0l0.1,0l0.1,0l0.1,0l0.2,0l0.1,0l0.1,0l0.1,0l0.1,0l0.1,0l0,0l0.1,0l0.1,0l0.1,0l0.1,0l0.1,0l0.1,0l0.1,0l0.1,0l0.1,0
	l0.2,0l0.1,0l0.1,0l0.1,0l0.2,0l0.1,0l0.2,0l0.2,0l0.1,0l0.2,0l0.1,0l0.1,0l0.2,0l0.1,0l0.1,0l0.1,0l0.1,0l0.1,0l0.1,0l0.1,0
	l0.2,0.1l0.1,0l0,0l0.1,0l0.1,0l0.1,0l0.1,0l0.1,0l0,0l0,0l0,0l0,0l0.1,0l0.1-0.1l0.1-0.1l0.1-0.1l0.1-0.1l0,0l0.1,0l0,0l0,0l0,0
	l0,0l0,0l0.1-0.1l0.1-0.1l0.1-0.1l0.1,0l0.1-0.1l0.1-0.1l0.1-0.1l0.1-0.1l0.1-0.1l0.1-0.1l0.1-0.1l0.1-0.1l0.1-0.1l0.1,0l0.1,0
	l0.1,0l0.1,0l0,0l0,0.1l0,0l0.1,0l0.2-0.1l0.2-0.1l0.3-0.1l0.2-0.1l0.2-0.1l0.2-0.1l0.2-0.1l0,0l0,0l0,0l0,0l0,0l0,0l0.1-0.1l0,0
	l0.2-0.1l0.1,0l0,0l0.1,0l0.1,0l0.1,0l0,0l0,0l0.1,0l0.1,0l0.1,0l0.1,0l0.1,0l0.1,0l0.1,0l0.2,0l0.2,0l0.2,0l0.2,0l0.2,0l0.1,0
	l0.2,0l0.2,0l0.2,0l0.1,0l0.1,0l0.1,0l0.1,0l0.1,0l0,0l0,0l0,0l0,0l0,0l0,0l0,0l0,0l0,0l0.1,0l0.1,0l0,0l0.1,0l0,0l0,0l0,0l0,0l0,0
	l0,0l0,0l0.1,0l0,0l0,0l0,0l0,0l0,0l0,0l0,0h0l0,0l0,0l0,0l0,0l0,0l0,0l0,0l0,0l0,0l0,0l0,0l0,0l0,0l0,0l0,0l0.1,0l0.1,0l0.2,0
	l0.1,0l0.1,0l0.2,0l0.1,0l0.1,0l0.1,0l0.1,0l0.1,0l0.1,0l0.1,0l0.1,0l0.1,0l0.2,0l0.1,0l0.1,0l0.1,0l0.1,0l0.1,0l0.1,0l0.1,0l0.1,0
	l0.1,0l0,0l0.1,0l0.1,0l0.1,0l0.1-0.1l0.1,0l0.1,0l0.1-0.1l0.1,0l0.1,0l0.1,0l0,0l0.1,0l0.1,0l0.1,0l0.1,0l0,0l0,0l0.1,0l0,0l0,0
	l0.1,0l0.1,0l0,0l0.1,0l0.1,0l0.1,0l0.1,0l0.1,0l0,0l0,0l0,0l0,0l0.1-0.1l0,0l0.1,0l0.2-0.1l0.1,0l0.1,0l0.1,0l0.1,0l0.1,0l0,0l0,0
	l0,0l0,0l0,0l0,0l0,0l0,0l0,0l0,0l0.1,0l0.1,0l0,0l0,0l0.1,0l0,0l0.1,0l0.1,0l0.1,0l0,0l0,0l0.1-0.1l0,0l0.1,0l0,0l0,0l0,0l0,0l0,0
	l0.1,0l0,0l0.1,0l0.2-0.1l0,0l0,0l0,0l0,0l0,0l0,0l0,0l0,0l0,0l0.1,0l0.1,0l0.1,0l0.1,0l0.1,0l0.1,0l0,0l0.1,0l0.1,0l0.1,0l0.1,0
	l0.1,0l0.2-0.1l0.1,0l0.1,0l0.1-0.1l0,0l0.1,0l0,0l0.1,0l0.1,0l0,0l0,0l0,0l0,0l0,0l0,0l0,0l0,0l0,0l0,0l0.1,0l0.2-0.1l0,0l0,0.1
	l0,0l0.1,0l0.1,0.1l0.1,0l0.1,0l0.1,0l0.1,0l0.1,0l0.1,0l0.1,0l0.1,0l0.1,0l0.2-0.1l0.2-0.1l0.2-0.1l0.3-0.1l0.3-0.1l0.2-0.1
	l0.2-0.1l0.4-0.1l0.3-0.1l0.3-0.1l0.3-0.1l0.2-0.1l0.3-0.1l0.3-0.1l0.3-0.1l0.4-0.1l0.1,0l0,0l0.1,0l0,0l0,0l0,0l0,0l0.1-0.1l0-0.1
	l0-0.1l0-0.1l0-0.1l0-0.1l0-0.1l0-0.1l0,0l0,0l0,0l0,0l0,0l0.3-0.1l0,0l0,0l0,0l0,0l0,0l0,0l0,0l0,0l0,0l0.1,0l0.1-0.1l0.2-0.1
	l0.2-0.1l0.1,0l0.1,0l0.2-0.1l0.1,0l0.1-0.1l0.1-0.1l0,0l0.1,0l0.1,0l0.1,0l0.1-0.1l0,0l0.1,0l0.1,0l0,0l0,0l0.1,0l0,0l0,0l0,0
	l0.1-0.1l0.1,0l0.1,0l0,0l0.1,0l0.1-0.1l0,0l0,0l0,0l0,0l0,0l0.2-0.1l0.1-0.1l0,0l0,0l0,0l0,0l0,0l0,0l0.1,0l0,0l0,0l0,0l0.1-0.1
	l0.1,0l0.1,0l0.1,0l0.1,0l0.1,0l0,0l0.1,0l0.1,0l0.1,0l0.1,0l0.1,0l0.1,0l0.1,0l0.1,0l0,0l0.1,0l0.1,0l0.1,0l0.1,0l0.1,0l0,0l0.1,0
	l0.1,0l0.1-0.1l0.1,0l0.1,0l0.1,0l0.1,0l0.1,0l0.2-0.1l0.1,0l0.1,0l0.1,0l0.1,0l0.1,0l0.2-0.1l0.1,0l0.1,0l0.1-0.1l0.1-0.1l0,0l0,0
	l0,0l0,0l0,0l0,0l0,0l0,0l0,0l0.1,0l0.1,0l0.1,0l0.1,0l0.1,0l0.1,0l0.1,0l0.1,0l0.1,0l0.1,0l0.1,0l0.1,0l0.1,0l0.1,0l0.1,0l0.1-0.1
	l0.2-0.1l0.1,0l0.1,0l0.1,0l0.1-0.1l0.1-0.1l0.1,0l0.1,0l0.2-0.1l0.1-0.1l0.1,0l0.1-0.1l0.1,0l0.1-0.1l0.1-0.1l0.1-0.1l0.1-0.1
	l0.1-0.1l0.1,0l0.1-0.1l0.1-0.1l0.1-0.1l0.1-0.1l0.1-0.1l0.1-0.1l0.1-0.1l0-0.1l0-0.1l0-0.1l0,0l0,0l0,0l0,0l0,0l0,0l0,0l0,0l0,0
	l0,0l0,0l0.1-0.1l0.1-0.1l0,0l0.1-0.1l0,0l0.1-0.1l0,0l0-0.1l0.1-0.1l0-0.1l0-0.1l0-0.1l0-0.1l0-0.1l0-0.1l0-0.1l0,0l0,0l0,0l0,0
	l0,0l0.1-0.1l0-0.1l0,0l0-0.1l0-0.1l0.1-0.1l0-0.1l0-0.1l0-0.1l0-0.1l0-0.1l0-0.1l0-0.1l0,0l0,0l0,0l0,0l0,0l0,0l0,0l0,0l0,0l0,0
	l0,0l0,0l0,0l0,0l0.1-0.1l0,0l0,0l0,0l0,0l0-0.1l0,0l0-0.1l0-0.1l0,0l0,0l0-0.1l0-0.1l0,0l0,0l0,0l0-0.1l0-0.1l0-0.1l0,0l0,0l0.1,0
	l0.1,0l0,0l0,0l0.1,0l0,0l0,0l0,0l0,0l0,0l0,0l0,0l0.1,0l0,0l0,0l0,0l0,0l0,0l0,0l0,0l0,0l0,0l0,0l0,0l0,0l0,0l0,0l0,0l0,0l0,0l0,0
	l0,0l0,0l0,0l0,0l0,0l0,0l0,0l0,0l0,0l0,0l0-0.1l0,0l0.1,0l0,0l0.1-0.3l0.1-0.3l0-0.1l0,0l0,0l0,0l0-0.1l0,0l0,0l0,0l0,0l0,0l0,0
	l0-0.1l0-0.1l0-0.1l0-0.1l0,0l0-0.1l0,0l0,0l0.1-0.2l0-0.1l0-0.2l0-0.1l-0.1,0l0,0l0-0.1l0,0l0,0l0,0l0-0.1l0-0.1l0-0.1l0-0.1l0-0.1
	l0-0.1l0,0l-0.1-0.1l-0.1-0.1l-0.1,0l-0.1,0l0,0l0,0l0,0l0,0l-0.1,0l0,0l0,0l0.1-0.2l0-0.2l0.5-1.5l0-0.2l0,0l0,0l0,0l0,0l0-0.1l0,0
	l0,0l0,0l0,0l0,0l0-0.1l0-0.1l0-0.1l0-0.1l0-0.1l0-0.1l0-0.1l0-0.1l0-0.1l0-0.1l0-0.1l0-0.1l0-0.1l0-0.1l0-0.1l0-0.1l0-0.1l0-0.1
	l0-0.1l0-0.1l0-0.1l0-0.1l0-0.1l0-0.1l0,0l0,0l0,0l0,0l0,0l0,0l0,0l0,0l0-0.2l0,0l0,0l0,0l0-0.1l0,0l0,0l0,0l0-0.1l0,0l0,0l0,0l0,0
	l0-0.1l0-0.1l0-0.1l0-0.1l0-0.1l0-0.1l0-0.1l0-0.1l0-0.1l0-0.1l0-0.1l0-0.1l0-0.1l0-0.1l0,0l0,0l0,0l0,0l0-0.1l0,0l0,0l0-0.1l0-0.1
	l0-0.1l0-0.1l0-0.1l0-0.1l0-0.1l0-0.1l0-0.1l0-0.1l0-0.1l0-0.1l0-0.1l0,0l0.1-0.5l0-0.1l0-0.1l0-0.1l0-0.1l0-0.1l0-0.1l0-0.1l0-0.1
	l0,0l0,0l0-0.1l0,0l0,0l0-0.1l0-0.1l0-0.1l0-0.1l0-0.1l0-0.1l0-0.1l0-0.1l0,0l0,0l0,0l0,0l0,0l0-0.1l0-0.1l0,0l0,0l0-0.1l0-0.1l0,0
	l0,0l0-0.1l0-0.1l0-0.1l0-0.1l0-0.1l0-0.1l0,0l0-0.1l0-0.1l0-0.1l0,0l0-0.1l0-0.1l0,0l0-0.1l0-0.1l0-0.1l0,0l0,0l0,0l0-0.1l0-0.1
	l0-0.1l0-0.1l0-0.1l0.1-0.1l0.1-0.1l0,0l0,0l0.1-0.1l0.1-0.1l0.1-0.1l0-0.1l0,0l0,0l0.1-0.1l0,0l0,0l0.1-0.1l0.1-0.1l0.1-0.1
	l0.1-0.1l0.1,0l0.1-0.1l0.1-0.1l0,0l0.1,0l0.1,0l0.1,0l0.1-0.1l0.1-0.1l0.1,0l0.1,0l0.1,0l0.1,0l0.1-0.1l0.1,0l0.1,0l0.1,0l0.1,0
	l0.1,0l0.1,0l0.1,0l0.1,0l0.1,0l0.1,0l0.1,0l0.1,0l0,0l0-0.1l0.3,0.1l0.4,0.2l0.3,0.1l0.2-0.4l0.1-0.4l0.2-0.5l0.1-0.4l0,0l0,0l0,0
	l0,0l0,0l0,0l-0.3-0.2l0,0l0,0l0,0l0,0l0,0l0,0l0,0l0,0l0.2-0.2l0.2-0.2l0.2-0.3l0.2-0.3l0.1-0.1l0,0l0,0l0-0.1l0,0l0,0l0,0l0.2-0.2
	l0.2-0.3l0.1-0.1l0.1-0.2l0.1-0.2l0.2-0.2l0.2-0.3l0.2-0.2l0.1-0.1l0.1-0.1l0,0l0,0l0,0l0,0l0.1-0.2l0,0l0,0l0,0l0.1-0.2l0,0l0,0
	l0,0l0,0l0.1-0.1l0,0l0-0.1l0-0.1l0-0.1l0-0.1l0,0l0.1,0L124.6,54.3L124.6,54.3z M113.2,79.7l0-0.2l0-0.1l0-0.2l0-0.2l0-0.1l0-0.1
	l0-0.1l0-0.1l0-0.1l0,0l0-0.1l0,0l0,0l0,0l0,0l0,0l0,0l0,0l0,0l0,0l0,0.1l0,0l0,0l0,0.2l0,0.1l0,0.1l0,0.1l0,0.1l0,0.2l0,0.1l0,0
	l0,0.1l0,0l0,0.1l0,0.1l0,0.2l0,0.2l0,0.1l0,0.2l0,0.2l0,0.2l0,0.2l0,0l0,0l0,0l0,0l0,0l0,0l0,0l0,0l0,0l0,0l0,0l0,0l0,0l0-0.1
	l0-0.2l0-0.1l0-0.1l0-0.1l0,0l0,0l0-0.1l0-0.1l0-0.1l0-0.2l0-0.1l0-0.1l0-0.1l0,0l0,0L113.2,79.7L113.2,79.7L113.2,79.7L113.2,79.7z
	 M114.1,82L114.1,82L114.1,82L114.1,82L114.1,82l-0.1,0.1l-0.1,0l-0.1,0l-0.1,0l-0.1,0l-0.1,0.1l-0.1,0.1l-0.1,0.1l-0.1,0l0,0l0,0
	l-0.1,0.1l0,0l0,0.1l0,0.1l0,0l0,0.1l0,0l0,0.1l0,0.1l0,0l0,0.1l0,0.1l0,0.1l0,0.1l0,0.1l0,0.1l0,0.1l0,0.1l0,0l0,0.1l0,0.1l0,0l0,0
	l0,0l0,0l0,0l0,0l0,0l0,0l0,0l0,0l-0.1,0.1l0,0l-0.1,0.1l-0.1,0l-0.1,0.1l-0.1,0.1l-0.1,0.1l-0.1,0.1l-0.1,0.1l-0.1,0.1l-0.1,0
	l-0.1,0l-0.1,0l-0.1,0l-0.1,0l0,0l-0.1,0l-0.1,0l-0.1,0l-0.1,0l-0.1,0l-0.1,0l-0.1,0l-0.1,0l0,0l-0.1,0l-0.1,0l-0.1,0l-0.1,0l0,0
	l-0.1,0l-0.1,0l-0.1,0l-0.1,0l-0.1,0l-0.1,0l-0.1,0l-0.1,0.1l-0.1,0l-0.1,0.1l-0.1,0l-0.2,0.1l-0.1,0.1l-0.1,0L109,86l-0.1,0.1
	l-0.1,0.1l0,0l-0.1,0l-0.1,0l0,0l0,0l0,0l0,0l0,0l0,0l0,0l0,0l-0.1,0l-0.1,0l-0.1,0l-0.1,0l-0.1,0l-0.1,0l-0.1,0l-0.1,0l-0.1-0.1
	l-0.1,0l-0.1,0l-0.1,0l-0.1,0l-0.1,0l-0.1,0l-0.1,0l-0.1,0l-0.1,0l-0.1,0l-0.1,0l-0.1,0.1l-0.1,0l-0.2,0.1l-0.2,0.1l-0.1,0l-0.2,0.1
	l-0.2,0.1l-0.2,0.1l-0.1,0l-0.1,0l-0.1,0l-0.1,0l-0.1,0l-0.1,0l-0.1,0l-0.1,0l-0.2,0.1l-0.1,0l-0.1,0l-0.1,0l-0.2,0.1l-0.1,0l-0.1,0
	l-0.1,0.1l0,0l-0.1,0l-0.1,0l-0.1,0l0,0l0,0l-0.1,0l-0.1,0l-0.1,0l-0.1,0l-0.1,0l0,0l0,0l0,0l-0.1,0.1l0,0l0,0l0,0.1l0,0l0,0.1
	l0,0.1l0,0.1l0,0l0,0l0,0l0,0l-0.2,0.1l-0.1,0l-0.2,0.1l-0.1,0.1l-0.1,0l0,0l0,0l0,0l0,0l-0.1,0l0,0l0,0l0,0l0,0l0,0l-0.1,0.1
	l-0.1,0l-0.1,0l0,0l0,0l0,0l0,0l0,0l-0.1-0.1l-0.1-0.1l-0.1,0l0,0l-0.1,0l-0.1,0l-0.1,0l0,0l-0.1,0l-0.1,0l0,0l-0.3,0.1l-0.6,0.2
	l-3.5,1.3l-0.3,0.1l-0.1,0.1l-0.1,0.1l-0.1,0.2l0,0.1l0,0.2l0,0.1l-0.3,0.1l0,0l0,0l0,0l0,0l-0.1,0l0,0l0,0l0,0l0,0l-0.6,0.1l-0.1,0
	l-0.1,0l0,0l0,0l0,0l0,0l0-0.1l0,0l0,0l0,0l0,0l0-0.1l0.1-0.1l0.1-0.1l0.1-0.1l0-0.1l0,0l0-0.1l0.1-0.1l0.1-0.1l0.1-0.1l0.1-0.1
	l0.1-0.1l0,0l0-0.1l0,0l0,0l0,0l0,0l0,0l0,0l0,0l0,0l0,0l0,0l0,0l0.1,0l0,0l0,0l0,0l0,0l0,0l0,0l0,0l0.1,0l0.1,0l0,0l0,0l0,0l0,0
	l0.1,0l0,0l0.1,0l0.1,0l0,0l0,0l0,0l0.1,0l0.1,0l0,0l0,0l0,0l0,0l0.1,0l0.1,0l0,0l0.1,0l0.1,0l0.1,0l0.1,0l0,0l0,0l0,0l0.1,0l0.1,0
	l0,0l0.1,0l0,0l0,0l0,0l0,0l0,0l0,0l0.1,0l0.1,0l0,0l0,0l0,0l0.1,0l0.1-0.1l0.1-0.1l0.1,0l0,0l0,0l0,0l0,0l0,0l0,0l0,0l0,0l0,0l0,0
	l0,0l0,0l0,0l0,0l0,0l0,0l0,0l0.1,0l0.1,0l0,0l0,0l0,0l0.1-0.1l0.1,0l0,0l0,0l0,0l0,0l0,0l0,0l0,0l0,0l0,0l0.1,0l0.1,0l0.1,0l0,0
	l0,0l0.1,0l0,0l0.1,0l0.1,0l0.1,0l0,0l0.1,0l0.1,0l0.1,0l0.1,0l0.1,0l0,0l0.1-0.1l0.1,0l0.1,0l0.1,0l0.1,0l0.1,0l0.1,0l0.1,0l0.1,0
	l0,0l0.1-0.1l0.1,0l0.1,0l0,0l0,0l0.1,0l0.1,0l0.1,0l0.2-0.1l0.1,0l0.1-0.1l0.1,0l0.1,0l0.1,0l0.1,0l0.1,0l0.1-0.1l0,0l0.1,0l0.1,0
	l0.1,0l0.1,0l0.1,0l0.2-0.1l0.1,0l0.1-0.1l0.2-0.1l0.2-0.1l0.1,0l0.1,0l0.2-0.1l0.1,0l0.1,0l0.1,0l0.1,0l0.2-0.1l0.2-0.1l0.1-0.1
	l0.2-0.1l0.1,0l0.1,0l0.1,0l0.1,0l0,0l0.1,0l0.1,0l0.1,0l0.1,0l0.1,0l0.1,0l0.1,0l0.1,0l0.1,0l0.1,0l0.1,0l0.1-0.1l0.1-0.1l0.1,0
	l0.1,0l0.1,0l0.1,0l0.1,0l0.1,0l0.1,0l0.1,0l0.1,0l0.1,0l0.1,0l0.1,0l0.1,0l0.1,0l0.1,0l0.1,0l0.1,0l0.1,0l0.1,0l0.1,0l0.1,0l0.1,0
	l0.1,0l0.1,0l0.1,0l0.1,0l0.1,0l0.1,0l0.1,0l0,0l0,0l0,0l0,0l0.1,0l0.1,0l0,0l0.1,0l0.1,0l0.1-0.1l0.1,0l0.1-0.1l0.1-0.1l0.1-0.1
	l0.1-0.1l0.1-0.1l0.1-0.1l0.1-0.1l0.1-0.1l0.1-0.1l0.1-0.1l0-0.1l0,0l0.1-0.1l0,0l0.1-0.1l0.1-0.1l0.1-0.1l0.1-0.1l0,0l0.1-0.1
	l0.1-0.1l0.1-0.1l0.1-0.1l0,0l0.1,0l0,0l0.1,0l0,0l0.1,0l0.1,0l0.1,0l0.1,0l0.1,0l0,0l0.1,0l0.1,0l0.1,0l0.1,0l0.1,0l0.1,0l0.2,0
	l0.1,0l0.1,0l0.1,0l0,0l0,0l0,0l0,0.1l0,0l0,0l0,0L114.1,82L114.1,82L114.1,82L114.1,82L114.1,82L114.1,82L114.1,82z M115.3,75.2
	L115.3,75.2L115.3,75.2l-0.2,0.2l-0.1,0.1l-0.1,0.1l0,0l0,0.1l0,0l0,0l0,0l0,0.1l0,0.1l0,0.1l0,0l0,0l0,0l0,0.1l0,0l0,0.1l0,0.1
	l0,0.1l0,0.1l0,0.1l0,0l0,0l0,0.1l0,0l0,0.1l-0.1,0.1l-0.1,0.1l0,0.1l0,0.1l0,0.1l0,0l0,0l0,0.1l0,0.1l0,0.1l0,0.1l0,0.1l0,0.1
	l0,0.1l0,0.1l0,0l0,0l0,0l0,0l0,0l0,0l0,0l0,0l0,0l0-0.1l0,0l0,0l0,0l0,0l0,0l0,0l0,0l0-0.1l0-0.1l0-0.1l0,0l0,0l0,0l0-0.1l0-0.1
	l0,0l0,0l0-0.1l0-0.1l0,0l0,0l0-0.1l0,0l0,0l0-0.1l0-0.1l0-0.1l0,0l0-0.1l0-0.1l0.1-0.1l0.1-0.1l0,0l0,0l0,0l0,0l0,0l0,0l0-0.1
	l0.1-0.1l0,0l0,0l0,0l0,0l0.1-0.1l0.1-0.1l0.1-0.1l0.1-0.1l0.1-0.1l0,0l0,0l0,0l0,0l0,0L115.3,75.2L115.3,75.2L115.3,75.2
	L115.3,75.2z"/>
<path d="M39.8,26.7L39.8,26.7c0.2-0.2,0.3-0.3,0.4-0.5c0.1-0.2,0.1-0.5,0.1-0.8v-0.6c0-0.7-0.2-1.2-0.6-1.6c-0.4-0.4-1.1-0.5-2-0.5
	h-4.1c-0.1,0-0.2,0-0.2,0c-0.1,0-0.1,0-0.2,0.1l-1.7,1.4c-0.1,0.1-0.1,0.1-0.1,0.2c0,0.1,0,0.2,0,0.3V33c0,0.2,0,0.4,0.1,0.5
	c0.1,0.1,0.2,0.1,0.5,0.1h5c0.4,0,0.8,0,1.2-0.1c0.3-0.1,0.6-0.2,0.8-0.4l1.7-1.4c0.2-0.2,0.4-0.4,0.5-0.7s0.2-0.6,0.2-1v-1.2
	c0-0.6-0.1-1.1-0.4-1.4C40.6,27,40.3,26.8,39.8,26.7z"/>
<path d="M51.1,23.2c-0.3-0.2-0.7-0.4-1.3-0.6s-1.2-0.2-2.1-0.2c-0.9,0-1.6,0.1-2.1,0.2c-0.5,0.1-1,0.3-1.3,0.6l-1.7,1.4
	c-0.3,0.2-0.5,0.5-0.6,0.9s-0.2,0.7-0.2,1.1v4c0,0.4,0.1,0.8,0.2,1.2c0.1,0.4,0.3,0.7,0.6,1c0.3,0.3,0.7,0.5,1.3,0.7
	c0.5,0.2,1.2,0.3,2.1,0.3c0.9,0,1.6-0.1,2.1-0.2c0.5-0.1,1-0.3,1.3-0.6l1.7-1.4c0.3-0.2,0.5-0.5,0.6-0.9c0.1-0.3,0.2-0.7,0.2-1.1
	v-4.4c0-0.4-0.1-0.8-0.2-1.1C51.6,23.7,51.4,23.4,51.1,23.2z M47,29.6c-0.1,0-0.2-0.1-0.2-0.2c0-0.1-0.1-0.1-0.1-0.2v-2.5
	c0.1,0,0.2,0.1,0.2,0.1S47,27,47,27.1V29.6z"/>
<path d="M60,26.2l1.2-1c0.1-0.1,0.1-0.1,0.1-0.2s0-0.2,0-0.3v-1.5c0-0.2,0-0.4-0.1-0.5c-0.1-0.1-0.2-0.1-0.5-0.1h-3.6
	c-0.4,0-0.8,0.1-1.2,0.2c-0.3,0.1-0.6,0.3-0.9,0.4l-1.7,1.4c-0.2,0.2-0.4,0.5-0.6,0.8s-0.2,0.6-0.2,1v1.4c0,0.6,0.1,1.1,0.4,1.4
	c0.3,0.3,0.6,0.6,1.1,0.7L52.8,31c-0.1,0.1-0.1,0.1-0.1,0.2s0,0.2,0,0.3V33c0,0.2,0,0.4,0.1,0.5c0.1,0.1,0.2,0.1,0.5,0.1h4.1
	c0.4,0,0.8-0.1,1.2-0.2s0.6-0.3,0.9-0.5l1.7-1.4c0.3-0.2,0.4-0.5,0.6-0.8c0.1-0.3,0.2-0.6,0.2-1v-1.4c0-0.7-0.2-1.2-0.5-1.6
	C61,26.6,60.6,26.3,60,26.2z"/>
<path d="M71.1,22.6h-6.9c-0.1,0-0.2,0-0.2,0c-0.1,0-0.1,0-0.2,0.1l-1.7,1.4c-0.1,0.1-0.1,0.1-0.1,0.2c0,0.1,0,0.2,0,0.3v1.6
	c0,0.2,0,0.4,0.1,0.5c0.1,0.1,0.2,0.1,0.5,0.1h1.8V33c0,0.2,0,0.4,0.1,0.5s0.2,0.1,0.5,0.1h2.1c0.1,0,0.2,0,0.2,0
	c0.1,0,0.1-0.1,0.2-0.1l1.7-1.4c0.1-0.1,0.1-0.1,0.1-0.2c0-0.1,0-0.2,0-0.3v-4.8h0.1c0.1,0,0.2,0,0.2,0c0.1,0,0.1-0.1,0.2-0.1
	l1.7-1.4c0.1-0.1,0.1-0.1,0.1-0.2c0-0.1,0-0.2,0-0.3v-1.6c0-0.2,0-0.4-0.1-0.5C71.5,22.7,71.3,22.6,71.1,22.6z"/>
<path d="M81.3,23.2c-0.3-0.2-0.7-0.4-1.3-0.6c-0.5-0.1-1.2-0.2-2.1-0.2c-0.9,0-1.6,0.1-2.1,0.2c-0.5,0.1-1,0.3-1.3,0.6l-1.7,1.4
	c-0.3,0.2-0.5,0.5-0.6,0.9c-0.1,0.3-0.2,0.7-0.2,1.1v4c0,0.4,0.1,0.8,0.2,1.2c0.1,0.4,0.3,0.7,0.6,1c0.3,0.3,0.7,0.5,1.3,0.7
	c0.5,0.2,1.2,0.3,2.1,0.3c0.9,0,1.6-0.1,2.1-0.2c0.5-0.1,1-0.3,1.3-0.6l1.7-1.4c0.3-0.2,0.5-0.5,0.6-0.9s0.2-0.7,0.2-1.1v-4.4
	c0-0.4-0.1-0.8-0.2-1.1C81.9,23.7,81.6,23.4,81.3,23.2z M77.3,29.6c-0.1,0-0.2-0.1-0.2-0.2c0-0.1-0.1-0.1-0.1-0.2v-2.5
	c0.1,0,0.2,0.1,0.2,0.1c0,0.1,0.1,0.1,0.1,0.2V29.6z"/>
<path d="M92.5,22.6h-2c-0.1,0-0.2,0-0.2,0c-0.1,0-0.1,0-0.2,0.1L88.5,24l-0.9-1c-0.1-0.1-0.3-0.2-0.4-0.3c-0.1-0.1-0.3-0.1-0.5-0.1
	h-1.4c-0.1,0-0.2,0-0.2,0c-0.1,0-0.1,0-0.2,0.1l-1.7,1.4c-0.1,0.1-0.1,0.1-0.1,0.2c0,0.1,0,0.2,0,0.3V33c0,0.2,0,0.4,0.1,0.5
	s0.2,0.1,0.5,0.1h2c0.1,0,0.2,0,0.2,0c0.1,0,0.1-0.1,0.2-0.1l1.7-1.4c0.1-0.1,0.1-0.1,0.1-0.2c0-0.1,0-0.2,0-0.3v-0.5l0.3,0.4V33
	c0,0.2,0,0.4,0.1,0.5c0.1,0.1,0.2,0.1,0.5,0.1h2c0.1,0,0.2,0,0.2,0c0.1,0,0.1-0.1,0.2-0.1l1.7-1.4C93,32.1,93,32,93,31.9
	c0-0.1,0-0.2,0-0.3v-8.4c0-0.2,0-0.4-0.1-0.5C92.8,22.7,92.7,22.6,92.5,22.6z"/>
<path d="M50.9,41.7l-1.1-3c-0.1-0.2-0.2-0.3-0.3-0.4c-0.1-0.1-0.3-0.1-0.5-0.1h-3.5c-0.1,0-0.2,0-0.3,0S45,38.3,45,38.4l-1.7,1.4
	l0,0c0,0-0.1,0.1-0.1,0.1s-0.1,0.1-0.1,0.2L42,43.1c-0.2,0.5-0.3,0.9-0.4,1.2c-0.1,0.3-0.1,0.6-0.1,0.9v3.4c0,0.2,0,0.4,0.1,0.5
	c0.1,0.1,0.2,0.1,0.5,0.1h1.9c0.1,0,0.2,0,0.2,0c0.1,0,0.1-0.1,0.2-0.1l1.7-1.4c0.1-0.1,0.1-0.1,0.1-0.2c0-0.1,0-0.2,0-0.3V47h0.4
	v1.7c0,0.2,0.1,0.3,0.2,0.4s0.3,0.1,0.5,0.1h2c0.1,0,0.2,0,0.2,0c0.1,0,0.1-0.1,0.2-0.1l1.7-1.4c0.1-0.1,0.1-0.1,0.1-0.2
	c0-0.1,0-0.2,0-0.3v-3.4c0-0.3,0-0.6-0.1-0.9C51.2,42.5,51.1,42.1,50.9,41.7z"/>
<path d="M61.2,42.5L61.2,42.5c0.2-0.1,0.3-0.3,0.4-0.6c0.1-0.2,0.1-0.5,0.1-0.8v-0.6c0-0.7-0.2-1.2-0.6-1.7
	c-0.4-0.4-1.1-0.6-2.1-0.6h-4.3c-0.1,0-0.2,0-0.2,0c-0.1,0-0.1,0-0.2,0.1l-1.7,1.4c-0.1,0.1-0.1,0.1-0.1,0.2c0,0.1,0,0.2,0,0.3v8.4
	c0,0.2,0,0.4,0.1,0.5c0.1,0.1,0.2,0.1,0.5,0.1h2c0.1,0,0.2,0,0.2,0c0.1,0,0.1-0.1,0.2-0.1l1.7-1.4c0.1-0.1,0.1-0.1,0.1-0.2
	c0-0.1,0-0.2,0-0.3v-1h0c0.1,0,0.2,0,0.3,0.1c0.1,0.1,0.1,0.2,0.1,0.3v2c0,0.2,0,0.4,0.1,0.5s0.2,0.1,0.5,0.1h2c0.1,0,0.2,0,0.2,0
	c0.1,0,0.1-0.1,0.2-0.1l1.7-1.4c0.1-0.1,0.1-0.1,0.1-0.2c0-0.1,0-0.2,0-0.3v-2.8c0-0.5-0.1-0.9-0.4-1.3S61.6,42.6,61.2,42.5z"/>
<path d="M71.7,38.2h-6c-0.1,0-0.2,0-0.2,0c-0.1,0-0.1,0-0.2,0.1l-1.7,1.4c-0.1,0.1-0.1,0.1-0.1,0.2c0,0.1,0,0.2,0,0.3v8.4
	c0,0.2,0,0.4,0.1,0.5c0.1,0.1,0.2,0.1,0.5,0.1h6c0.1,0,0.2,0,0.2,0c0.1,0,0.1-0.1,0.2-0.1l1.7-1.4c0.1-0.1,0.1-0.1,0.1-0.2
	c0-0.1,0-0.2,0-0.3v-1.5c0-0.2,0-0.4-0.1-0.5c-0.1-0.1-0.2-0.1-0.5-0.1h-1.8l1.2-1c0.1-0.1,0.1-0.1,0.1-0.2c0-0.1,0-0.2,0-0.3v-1.4
	c0-0.1,0-0.3-0.1-0.3c0-0.1-0.1-0.2-0.2-0.2l1.1-0.9c0.1-0.1,0.1-0.1,0.1-0.2s0-0.2,0-0.3v-1.5c0-0.2,0-0.4-0.1-0.5
	C72,38.3,71.9,38.2,71.7,38.2z"/>
<path d="M82.5,41.7l-1.1-3c-0.1-0.2-0.2-0.3-0.3-0.4c-0.1-0.1-0.3-0.1-0.5-0.1h-3.5c-0.1,0-0.2,0-0.3,0c-0.1,0-0.2,0.1-0.2,0.1
	l-1.7,1.4l0,0c0,0-0.1,0.1-0.1,0.1s-0.1,0.1-0.1,0.2l-1.1,2.9c-0.2,0.5-0.3,0.9-0.4,1.2C73,44.6,73,44.9,73,45.2v3.4
	c0,0.2,0,0.4,0.1,0.5c0.1,0.1,0.2,0.1,0.5,0.1h1.9c0.1,0,0.2,0,0.2,0c0.1,0,0.1-0.1,0.2-0.1l1.7-1.4c0.1-0.1,0.1-0.1,0.1-0.2
	c0-0.1,0-0.2,0-0.3V47h0.4v1.7c0,0.2,0.1,0.3,0.2,0.4c0.1,0.1,0.3,0.1,0.5,0.1h2c0.1,0,0.2,0,0.2,0c0.1,0,0.1-0.1,0.2-0.1l1.7-1.4
	c0.1-0.1,0.1-0.1,0.1-0.2c0-0.1,0-0.2,0-0.3v-3.4c0-0.3,0-0.6-0.1-0.9S82.7,42.1,82.5,41.7z"/>
<g>
	<g id="XMLID_28_">
		<g>
			<path fill="#FFFFFF" d="M40.5,31.6c-0.4,0.4-1,0.5-1.9,0.5h-5c-0.2,0-0.3,0-0.4-0.1c-0.1-0.1-0.1-0.2-0.1-0.4v-8.4
				c0-0.2,0-0.3,0.1-0.4c0.1-0.1,0.2-0.1,0.4-0.1h4.2c0.8,0,1.5,0.2,1.9,0.5c0.4,0.3,0.6,0.8,0.6,1.5v0.6c0,0.4-0.1,0.7-0.2,0.9
				c-0.1,0.2-0.3,0.4-0.6,0.5c0.5,0,1,0.2,1.2,0.6s0.4,0.8,0.4,1.4V30C41.1,30.7,40.9,31.2,40.5,31.6z M38.6,24.3
				c-0.1-0.1-0.3-0.2-0.5-0.3c-0.2-0.1-0.5-0.1-0.9-0.1h-2.6v7H38c0.4,0,0.7,0,0.9-0.1c0.2-0.1,0.4-0.1,0.5-0.3
				c0.1-0.1,0.2-0.2,0.2-0.4c0-0.2,0.1-0.3,0.1-0.5v-0.8c0-0.2,0-0.4-0.1-0.6s-0.1-0.3-0.2-0.5c-0.1-0.1-0.3-0.2-0.5-0.3
				c-0.2-0.1-0.5-0.1-0.9-0.1c0.4-0.1,0.6-0.2,0.7-0.5c0.1-0.2,0.1-0.4,0.1-0.7v-0.8c0-0.2,0-0.4-0.1-0.5
				C38.8,24.6,38.7,24.4,38.6,24.3z"/>
			<path fill="#FFFFFF" d="M37.6,25.8v-0.4c0-0.2,0-0.3-0.1-0.4c-0.1-0.1-0.2-0.1-0.4-0.1H36v1.4h1.1c0.2,0,0.3,0,0.4-0.1
				C37.6,26.1,37.6,26,37.6,25.8z M38.7,25.3v0.8c0,0.2,0,0.3,0,0.4c0,0.1-0.1,0.3-0.2,0.4c-0.1,0.1-0.3,0.2-0.5,0.3
				c-0.2,0.1-0.5,0.1-0.9,0.1h-2.5V24h2.5c0.7,0,1.1,0.1,1.3,0.4C38.6,24.6,38.7,24.9,38.7,25.3z"/>
			<path fill="#FFFFFF" d="M38.1,28.5c-0.1-0.1-0.2-0.1-0.4-0.1H36v1.5h1.7c0.2,0,0.3,0,0.4-0.1c0.1-0.1,0.1-0.2,0.1-0.4v-0.5
				C38.2,28.7,38.2,28.6,38.1,28.5z M39.3,27.8c0.2,0.3,0.3,0.6,0.3,1v0.8c0,0.4-0.1,0.6-0.3,0.8c-0.2,0.2-0.6,0.3-1.3,0.3h-3.4
				v-3.4H38C38.7,27.4,39.1,27.6,39.3,27.8z"/>
		</g>
		<g>
		</g>
	</g>
	<g id="XMLID_29_">
		<g>
			<path fill="#FFFFFF" d="M45.2,25.5c0-0.5,0.2-0.9,0.5-1.2c0.3-0.3,1-0.4,2-0.4s1.6,0.1,2,0.4c0.4,0.3,0.5,0.7,0.5,1.2v3.8
				c0,0.5-0.2,0.9-0.5,1.2c-0.4,0.3-1,0.5-2,0.5s-1.6-0.2-2-0.5s-0.5-0.7-0.5-1.2V25.5z M47.7,29.8c0.5,0,0.8-0.1,0.9-0.2
				c0.1-0.1,0.2-0.3,0.2-0.4v-3.5c0-0.2-0.1-0.3-0.2-0.4c-0.1-0.1-0.4-0.2-0.9-0.2c-0.5,0-0.8,0.1-0.9,0.2c-0.1,0.1-0.2,0.2-0.2,0.4
				v3.5c0,0.2,0.1,0.3,0.2,0.4C46.9,29.7,47.2,29.8,47.7,29.8z"/>
			<path fill="#FFFFFF" d="M45.6,24.2c-0.4,0.3-0.5,0.8-0.5,1.3v3.8c0,0.5,0.2,1,0.5,1.3c0.4,0.3,1.1,0.5,2.1,0.5
				c1,0,1.7-0.2,2.1-0.5c0.4-0.3,0.6-0.8,0.6-1.3v-3.8c0-0.5-0.2-0.9-0.6-1.3c-0.4-0.3-1.1-0.5-2.1-0.5C46.7,23.7,46,23.9,45.6,24.2
				z M43.7,29.6v-4.4c0-0.4,0.1-0.8,0.2-1.1c0.1-0.3,0.3-0.6,0.6-0.8c0.3-0.2,0.7-0.4,1.2-0.6c0.5-0.1,1.2-0.2,2-0.2
				c0.8,0,1.5,0.1,2,0.2c0.5,0.1,0.9,0.3,1.2,0.6c0.3,0.2,0.5,0.5,0.6,0.8c0.1,0.3,0.2,0.7,0.2,1.1v4.4c0,0.4-0.1,0.8-0.2,1.1
				c-0.1,0.3-0.3,0.6-0.6,0.8c-0.3,0.2-0.7,0.4-1.2,0.5c-0.5,0.1-1.2,0.2-2,0.2c-0.8,0-1.5-0.1-2-0.2c-0.5-0.1-1-0.3-1.2-0.5
				c-0.3-0.2-0.5-0.5-0.6-0.8C43.7,30.4,43.7,30,43.7,29.6z"/>
		</g>
		<g>
		</g>
	</g>
	<g id="XMLID_30_">
		<g>
			<path fill="#FFFFFF" d="M59.9,30.6c0.3-0.2,0.4-0.6,0.4-0.9v-0.8c0-0.5-0.1-0.8-0.2-0.9c-0.2-0.2-0.4-0.3-0.6-0.3L56.7,27
				c-0.2,0-0.4-0.1-0.5-0.2c-0.1-0.1-0.2-0.3-0.2-0.6v-1.1c0-0.3,0.1-0.5,0.3-0.8c0.2-0.2,0.5-0.3,0.9-0.3h2.9v-0.1h-2.9
				c-0.4,0-0.7,0.1-1,0.3c-0.2,0.2-0.4,0.5-0.4,0.9v1.1c0,0.4,0.1,0.6,0.2,0.7c0.1,0.1,0.3,0.2,0.5,0.3l2.7,0.6
				c0.2,0,0.4,0.1,0.6,0.3c0.1,0.2,0.2,0.4,0.2,0.8v0.8C60.2,30,60.1,30.2,59.9,30.6c-0.3,0.1-0.6,0.2-1,0.2h-3.2v0.1h3.2
				C59.3,30.9,59.7,30.8,59.9,30.6z M61.7,29.8c0,0.7-0.2,1.3-0.7,1.7c-0.5,0.4-1.1,0.6-2,0.6h-4.1c-0.2,0-0.3,0-0.4-0.1
				c-0.1-0.1-0.1-0.2-0.1-0.4v-1.5c0-0.2,0-0.3,0.1-0.4c0.1-0.1,0.2-0.1,0.4-0.1h3.5c0.1,0,0.2,0,0.2-0.1c0.1-0.1,0.1-0.2,0.1-0.3
				c0-0.1,0-0.3-0.1-0.3c0-0.1-0.1-0.1-0.2-0.1l-2-0.3c-0.6-0.1-1.1-0.3-1.5-0.6c-0.4-0.3-0.6-0.8-0.6-1.6V25c0-0.7,0.2-1.3,0.7-1.7
				c0.5-0.4,1.1-0.6,2-0.6h3.6c0.2,0,0.3,0,0.3,0.1c0.1,0.1,0.1,0.2,0.1,0.4v1.5c0,0.2,0,0.3-0.1,0.4c-0.1,0.1-0.2,0.1-0.3,0.1h-3
				c-0.1,0-0.2,0-0.3,0.1c-0.1,0.1-0.1,0.2-0.1,0.3c0,0.1,0,0.2,0.1,0.3c0.1,0.1,0.1,0.1,0.3,0.1l1.9,0.3c0.6,0.1,1.1,0.3,1.5,0.6
				c0.4,0.3,0.6,0.8,0.6,1.6V29.8z"/>
		</g>
		<g>
		</g>
	</g>
	<g id="XMLID_31_">
		<g>
			<path fill="#FFFFFF" d="M67.7,30.9V24h2.7v-0.1H65V24h2.7v6.9H67.7z M63.8,24.8v-1.6c0-0.2,0-0.3,0.1-0.4
				c0.1-0.1,0.2-0.1,0.3-0.1h6.9c0.2,0,0.3,0,0.3,0.1c0.1,0.1,0.1,0.2,0.1,0.4v1.6c0,0.2,0,0.3-0.1,0.4c-0.1,0.1-0.2,0.1-0.3,0.1
				h-1.9v6.4c0,0.2,0,0.3-0.1,0.4c-0.1,0.1-0.2,0.1-0.4,0.1h-2.1c-0.2,0-0.3,0-0.4-0.1c-0.1-0.1-0.1-0.2-0.1-0.4v-6.4h-1.9
				c-0.2,0-0.3,0-0.3-0.1C63.8,25.1,63.8,24.9,63.8,24.8z"/>
		</g>
		<g>
		</g>
	</g>
	<g id="XMLID_32_">
		<g>
			<path fill="#FFFFFF" d="M79.1,25.7c0-0.2-0.1-0.3-0.2-0.4c-0.1-0.1-0.4-0.2-0.9-0.2s-0.8,0.1-0.9,0.2c-0.1,0.1-0.2,0.2-0.2,0.4
				v3.5c0,0.2,0.1,0.3,0.2,0.4c0.1,0.1,0.4,0.2,0.9,0.2s0.8-0.1,0.9-0.2c0.1-0.1,0.2-0.3,0.2-0.4V25.7z M75.5,25.5
				c0-0.5,0.2-0.9,0.5-1.2c0.3-0.3,1-0.4,2-0.4c1,0,1.6,0.1,2,0.4c0.4,0.3,0.5,0.7,0.5,1.2v3.8c0,0.5-0.2,0.9-0.5,1.2
				c-0.3,0.3-1,0.5-2,0.5c-1,0-1.6-0.2-2-0.5c-0.4-0.3-0.5-0.7-0.5-1.2V25.5z"/>
			<path fill="#FFFFFF" d="M78,23.7c-1,0-1.7,0.2-2.1,0.5c-0.4,0.3-0.5,0.8-0.5,1.3v3.8c0,0.5,0.2,1,0.5,1.3
				c0.4,0.3,1.1,0.5,2.1,0.5c1,0,1.7-0.2,2.1-0.5c0.4-0.3,0.6-0.8,0.6-1.3v-3.8c0-0.5-0.2-0.9-0.6-1.3C79.7,23.9,79,23.7,78,23.7z
				 M78,32.3c-0.8,0-1.5-0.1-2-0.2c-0.5-0.1-0.9-0.3-1.2-0.5c-0.3-0.2-0.5-0.5-0.6-0.8c-0.1-0.3-0.2-0.7-0.2-1.1v-4.4
				c0-0.4,0.1-0.8,0.2-1.1c0.1-0.3,0.3-0.6,0.6-0.8c0.3-0.2,0.7-0.4,1.2-0.6c0.5-0.1,1.2-0.2,2-0.2c0.8,0,1.5,0.1,2,0.2
				c0.5,0.1,0.9,0.3,1.2,0.6c0.3,0.2,0.5,0.5,0.6,0.8c0.1,0.3,0.2,0.7,0.2,1.1v4.4c0,0.4-0.1,0.8-0.2,1.1c-0.1,0.3-0.3,0.6-0.6,0.8
				c-0.3,0.2-0.7,0.4-1.2,0.5C79.4,32.2,78.8,32.3,78,32.3z"/>
		</g>
		<g>
		</g>
	</g>
	<g id="XMLID_33_">
		<g>
			<path fill="#FFFFFF" d="M85.4,22.7h1.4c0.2,0,0.3,0,0.4,0.1c0.1,0.1,0.2,0.1,0.3,0.3l2.5,2.9v-2.8c0-0.2,0-0.3,0.1-0.4
				c0.1-0.1,0.2-0.1,0.4-0.1h2c0.2,0,0.3,0,0.4,0.1c0.1,0.1,0.1,0.2,0.1,0.4v8.4c0,0.2,0,0.3-0.1,0.4c-0.1,0.1-0.2,0.1-0.4,0.1h-2
				c-0.2,0-0.3,0-0.4-0.1c-0.1-0.1-0.1-0.2-0.1-0.4V30l-2.2-2.7v4.3c0,0.2,0,0.3-0.1,0.4c-0.1,0.1-0.2,0.1-0.4,0.1h-2
				c-0.2,0-0.3,0-0.4-0.1C85,31.9,85,31.8,85,31.6v-8.4c0-0.2,0-0.3,0.1-0.4C85.1,22.8,85.3,22.7,85.4,22.7z M86.3,24v6.9h0.1v-6.9
				c0,0,0,0,0,0c0,0,0,0,0,0s0,0,0,0c0,0,0,0,0,0l4.9,5.5v1.3h0.1v-7h-0.1v5.5L86.7,24c0,0-0.1-0.1-0.1-0.1c0,0,0,0-0.1,0
				c0,0-0.1,0-0.1,0C86.3,24,86.3,24,86.3,24z"/>
		</g>
		<g>
		</g>
	</g>
	<g id="XMLID_37_">
		<g>
			<path fill="#FFFFFF" d="M47.6,41.1c0-0.1-0.1-0.1-0.1-0.2c0,0-0.1,0-0.1,0h-0.3c0,0-0.1,0-0.1,0c0,0-0.1,0.1-0.1,0.2l-0.6,2h2
				L47.6,41.1z M47.9,39.6c0.2,0,0.4,0.1,0.5,0.2c0.1,0.1,0.2,0.3,0.3,0.6l0.9,2.1c0.1,0.2,0.1,0.4,0.1,0.6c0,0.2,0.1,0.4,0.1,0.7
				v0.4h-5.1v-0.4c0-0.2,0-0.5,0.1-0.7c0-0.2,0.1-0.4,0.2-0.6l0.8-2.1c0.1-0.2,0.2-0.4,0.3-0.5c0.1-0.2,0.3-0.2,0.5-0.2H47.9z"/>
			<path fill="#FFFFFF" d="M45.6,47.7h-1.9c-0.2,0-0.3,0-0.4-0.1c-0.1-0.1-0.1-0.2-0.1-0.4v-3.4c0-0.3,0-0.6,0.1-0.9
				c0.1-0.3,0.2-0.7,0.4-1.2l1.1-3c0-0.1,0.1-0.3,0.2-0.3s0.2-0.1,0.4-0.1H49c0.2,0,0.3,0,0.4,0.1c0.1,0.1,0.2,0.2,0.2,0.3l1.1,3
				c0.2,0.5,0.3,0.9,0.4,1.2c0.1,0.3,0.1,0.6,0.1,0.9v3.4c0,0.2,0,0.3-0.1,0.4c-0.1,0.1-0.2,0.1-0.3,0.1h-2c-0.2,0-0.3,0-0.4-0.1
				c-0.1-0.1-0.1-0.2-0.1-0.4v-1.8h-2.3v1.8c0,0.2,0,0.3-0.1,0.4C45.9,47.7,45.8,47.7,45.6,47.7z M48.5,39.8
				c-0.1-0.2-0.3-0.2-0.6-0.2h-1.3c-0.3,0-0.5,0.1-0.6,0.2c-0.1,0.2-0.2,0.4-0.3,0.6l-0.8,2.1c-0.1,0.2-0.1,0.4-0.2,0.6
				c0,0.2-0.1,0.4-0.1,0.7v2.8h0.1v-2.2h5.1v2.2h0.1v-2.8c0-0.2,0-0.5-0.1-0.7c0-0.2-0.1-0.4-0.2-0.6l-0.9-2.1
				C48.7,40.1,48.6,39.9,48.5,39.8z"/>
		</g>
		<g>
		</g>
	</g>
	<g id="XMLID_36_">
		<g>
			<path fill="#FFFFFF" d="M58.7,41.3c0-0.2,0-0.3-0.1-0.4c-0.1-0.1-0.2-0.2-0.5-0.2h-1v1.7h1c0.2,0,0.4-0.1,0.5-0.2
				c0.1-0.1,0.1-0.3,0.1-0.4V41.3z M55.8,43.4v-3.8h2.8c0.5,0,0.8,0.1,1,0.4c0.2,0.2,0.3,0.6,0.3,1v0.9c0,0.5-0.1,0.9-0.3,1.1
				s-0.5,0.4-1.1,0.4H55.8z"/>
			<path fill="#FFFFFF" d="M54.3,47.6c-0.1-0.1-0.1-0.2-0.1-0.4v-8.4c0-0.2,0-0.3,0.1-0.4c0.1-0.1,0.2-0.1,0.4-0.1H59
				c1,0,1.6,0.2,2,0.6c0.4,0.4,0.5,0.9,0.5,1.6v0.6c0,0.4,0,0.7-0.2,0.9c-0.1,0.2-0.3,0.4-0.6,0.6c0.5,0,0.9,0.2,1.1,0.6
				c0.3,0.3,0.4,0.8,0.4,1.3v2.8c0,0.2,0,0.3-0.1,0.4c-0.1,0.1-0.2,0.1-0.4,0.1h-2c-0.2,0-0.3,0-0.3-0.1c-0.1-0.1-0.1-0.2-0.1-0.4
				v-2c0-0.2,0-0.3-0.1-0.4c-0.1-0.1-0.2-0.1-0.4-0.1h-1.8v2.5c0,0.2,0,0.3-0.1,0.4c-0.1,0.1-0.2,0.1-0.4,0.1h-2
				C54.5,47.7,54.4,47.7,54.3,47.6z M58.6,39.5h-3v7h0.1v-3h3.7c0.5,0,0.9,0.1,1.1,0.3s0.4,0.5,0.4,1v1.7H61v-1.7
				c0-0.4-0.1-0.8-0.4-1c-0.3-0.2-0.6-0.4-1.2-0.4h-0.1c0.3-0.1,0.5-0.3,0.6-0.5c0.1-0.2,0.2-0.6,0.2-1V41c0-0.4-0.1-0.8-0.4-1.1
				C59.5,39.6,59.1,39.5,58.6,39.5z"/>
		</g>
		<g>
		</g>
	</g>
	<g id="XMLID_35_">
		<g>
			<path fill="#FFFFFF" d="M71,39.6v-0.1h-4.4v7H71v-0.1h-4.2V43h3.2v-0.1h-3.2v-3.3H71z M65.2,47.2v-8.4c0-0.2,0-0.3,0.1-0.4
				c0.1-0.1,0.2-0.1,0.4-0.1h6c0.2,0,0.3,0,0.4,0.1s0.1,0.2,0.1,0.4v1.5c0,0.2,0,0.3-0.1,0.4c-0.1,0.1-0.2,0.1-0.4,0.1h-3.6v1h2.5
				c0.2,0,0.3,0,0.4,0.1c0.1,0.1,0.1,0.2,0.1,0.4v1.4c0,0.2,0,0.3-0.1,0.3c-0.1,0.1-0.2,0.1-0.4,0.1h-2.5v1.1h3.6
				c0.2,0,0.3,0,0.4,0.1c0.1,0.1,0.1,0.2,0.1,0.4v1.5c0,0.2,0,0.3-0.1,0.4c-0.1,0.1-0.2,0.1-0.4,0.1h-6c-0.2,0-0.3,0-0.4-0.1
				C65.2,47.5,65.2,47.4,65.2,47.2z"/>
		</g>
		<g>
		</g>
	</g>
	<g id="XMLID_34_">
		<g>
			<path fill="#FFFFFF" d="M79.2,41.1c0-0.1-0.1-0.1-0.1-0.2c0,0-0.1,0-0.1,0h-0.3c-0.1,0-0.1,0-0.1,0c0,0-0.1,0.1-0.1,0.2l-0.6,2h2
				L79.2,41.1z M78.2,39.6h1.3c0.2,0,0.4,0.1,0.5,0.2c0.1,0.1,0.2,0.3,0.3,0.6l0.9,2.1c0.1,0.2,0.1,0.4,0.2,0.6
				c0,0.2,0.1,0.4,0.1,0.7v0.4h-5.1v-0.4c0-0.2,0-0.5,0.1-0.7c0-0.2,0.1-0.4,0.2-0.6l0.8-2.1c0.1-0.2,0.2-0.4,0.3-0.5
				C77.7,39.7,77.9,39.6,78.2,39.6z"/>
			<path fill="#FFFFFF" d="M77.2,40.4l-0.8,2.1c-0.1,0.2-0.1,0.4-0.2,0.6c0,0.2-0.1,0.4-0.1,0.7v2.8h0.1v-2.2h5.1v2.2h0.1v-2.8
				c0-0.2,0-0.5-0.1-0.7c0-0.2-0.1-0.4-0.2-0.6l-0.9-2.1c-0.1-0.2-0.2-0.5-0.3-0.6c-0.1-0.2-0.3-0.2-0.6-0.2h-1.3
				c-0.3,0-0.5,0.1-0.6,0.2C77.4,39.9,77.3,40.1,77.2,40.4z M74.8,43.8c0-0.3,0-0.6,0.1-0.9c0.1-0.3,0.2-0.7,0.4-1.2l1.1-3
				c0.1-0.1,0.1-0.3,0.2-0.3s0.2-0.1,0.4-0.1h3.5c0.2,0,0.3,0,0.4,0.1s0.2,0.2,0.2,0.3l1.1,3c0.2,0.5,0.3,0.9,0.4,1.2
				c0.1,0.3,0.1,0.6,0.1,0.9v3.4c0,0.2,0,0.3-0.1,0.4c-0.1,0.1-0.2,0.1-0.3,0.1h-2c-0.2,0-0.3,0-0.4-0.1c-0.1-0.1-0.1-0.2-0.1-0.4
				v-1.8h-2.3v1.8c0,0.2,0,0.3-0.1,0.4c-0.1,0.1-0.2,0.1-0.4,0.1h-1.9c-0.2,0-0.3,0-0.4-0.1c-0.1-0.1-0.1-0.2-0.1-0.4V43.8z"/>
		</g>
		<g>
		</g>
	</g>
</g>
<path d="M34.4,61.4H30c-0.1,0-0.2,0-0.2,0c-0.1,0-0.1,0-0.2,0.1L27.9,63c-0.1,0.1-0.1,0.1-0.1,0.2c0,0.1,0,0.2,0,0.3v8.4
	c0,0.2,0,0.4,0.1,0.5c0.1,0.1,0.2,0.1,0.5,0.1h4.4c0.6,0,1.1-0.1,1.5-0.2c0.4-0.1,0.8-0.3,1-0.5l1.7-1.4c0.3-0.2,0.5-0.5,0.6-0.9
	s0.2-0.8,0.2-1.2v-4.1c0-0.9-0.3-1.6-0.8-2.1S35.5,61.4,34.4,61.4z M32.8,68.3h-0.2v-2.7c0.1,0,0.1,0.1,0.2,0.2s0.1,0.2,0.1,0.3
	V68.3z"/>
<path d="M46.3,61.4h-5.5c-0.1,0-0.2,0-0.2,0c-0.1,0-0.1,0-0.2,0.1L38.7,63c-0.1,0.1-0.1,0.1-0.1,0.2c0,0.1,0,0.2,0,0.3V65
	c0,0.2,0,0.4,0.1,0.5c0.1,0.1,0.2,0.1,0.5,0.1h1.2v2.9l-1.6,1.3c-0.1,0.1-0.1,0.1-0.1,0.2c0,0.1,0,0.2,0,0.3v1.5
	c0,0.2,0,0.4,0.1,0.5c0.1,0.1,0.2,0.1,0.5,0.1h5.5c0.1,0,0.2,0,0.2,0c0.1,0,0.1-0.1,0.2-0.1l1.7-1.4c0.1-0.1,0.1-0.1,0.1-0.2
	c0-0.1,0-0.2,0-0.3v-1.5c0-0.2,0-0.4-0.1-0.5c-0.1-0.1-0.2-0.1-0.5-0.1h-1.1v-2.9l1.5-1.3c0.1-0.1,0.1-0.1,0.1-0.2
	c0-0.1,0-0.2,0-0.3V62c0-0.2,0-0.4-0.1-0.5C46.7,61.5,46.5,61.4,46.3,61.4z"/>
<path d="M56.8,65.8h-2c-0.1,0-0.2,0-0.2,0c-0.1,0-0.1,0-0.2,0.1l-1.7,1.4c0,0,0,0-0.1,0.1c0,0,0,0,0,0.1v-1.9h1.7c0.1,0,0.2,0,0.2,0
	c0.1,0,0.1-0.1,0.2-0.1l1.7-1.4c0.1-0.1,0.1-0.1,0.1-0.2c0-0.1,0-0.2,0-0.3V62c0-0.2,0-0.4-0.1-0.5c-0.1-0.1-0.2-0.1-0.5-0.1h-3.2
	c-0.6,0-1.1,0.1-1.5,0.2c-0.4,0.1-0.8,0.3-1,0.5l-1.7,1.4c-0.3,0.2-0.5,0.5-0.6,0.9s-0.2,0.8-0.2,1.2v3.7c0,0.9,0.3,1.7,0.8,2.3
	s1.4,0.9,2.5,0.9h4.1c0.1,0,0.2,0,0.2,0c0.1,0,0.1-0.1,0.2-0.1l1.7-1.4c0.1-0.1,0.1-0.1,0.1-0.2c0-0.1,0-0.2,0-0.3v-4
	c0-0.2,0-0.4-0.1-0.5C57.2,65.9,57,65.8,56.8,65.8z"/>
<path d="M66,61.4h-5.5c-0.1,0-0.2,0-0.2,0c-0.1,0-0.1,0-0.2,0.1L58.3,63c-0.1,0.1-0.1,0.1-0.1,0.2c0,0.1,0,0.2,0,0.3V65
	c0,0.2,0,0.4,0.1,0.5c0.1,0.1,0.2,0.1,0.5,0.1h1.2v2.9l-1.6,1.3c-0.1,0.1-0.1,0.1-0.1,0.2c0,0.1,0,0.2,0,0.3v1.5
	c0,0.2,0,0.4,0.1,0.5c0.1,0.1,0.2,0.1,0.5,0.1h5.5c0.1,0,0.2,0,0.2,0c0.1,0,0.1-0.1,0.2-0.1l1.7-1.4c0.1-0.1,0.1-0.1,0.1-0.2
	c0-0.1,0-0.2,0-0.3v-1.5c0-0.2,0-0.4-0.1-0.5c-0.1-0.1-0.2-0.1-0.5-0.1h-1.1v-2.9l1.5-1.3c0.1-0.1,0.1-0.1,0.1-0.2
	c0-0.1,0-0.2,0-0.3V62c0-0.2,0-0.4-0.1-0.5C66.3,61.5,66.2,61.4,66,61.4z"/>
<path d="M76.1,61.4h-6.9c-0.1,0-0.2,0-0.2,0c-0.1,0-0.1,0-0.2,0.1L67.2,63c-0.1,0.1-0.1,0.1-0.1,0.2c0,0.1,0,0.2,0,0.3V65
	c0,0.2,0,0.4,0.1,0.5c0.1,0.1,0.2,0.1,0.5,0.1h1.8v6.3c0,0.2,0,0.4,0.1,0.5c0.1,0.1,0.2,0.1,0.5,0.1h2.1c0.1,0,0.2,0,0.2,0
	c0.1,0,0.1-0.1,0.2-0.1l1.7-1.4c0.1-0.1,0.1-0.1,0.1-0.2c0-0.1,0-0.2,0-0.3v-4.8h0.1c0.1,0,0.2,0,0.2,0c0.1,0,0.1-0.1,0.2-0.1
	l1.7-1.4c0.1-0.1,0.1-0.1,0.1-0.2c0-0.1,0-0.2,0-0.3V62c0-0.2,0-0.4-0.1-0.5C76.5,61.5,76.3,61.4,76.1,61.4z"/>
<path d="M86.1,64.9l-1.1-3c-0.1-0.2-0.2-0.3-0.3-0.4c-0.1-0.1-0.3-0.1-0.5-0.1h-3.5c-0.1,0-0.2,0-0.3,0c-0.1,0-0.2,0.1-0.2,0.1
	L78.5,63l0,0c0,0-0.1,0.1-0.1,0.1s-0.1,0.1-0.1,0.2l-1.1,2.9c-0.2,0.5-0.3,0.9-0.4,1.2s-0.1,0.6-0.1,0.9v3.4c0,0.2,0,0.4,0.1,0.5
	s0.2,0.1,0.5,0.1h1.9c0.1,0,0.2,0,0.2,0c0.1,0,0.1-0.1,0.2-0.1l1.7-1.4c0.1-0.1,0.1-0.1,0.1-0.2c0-0.1,0-0.2,0-0.3v-0.3h0.4v1.7
	c0,0.2,0.1,0.3,0.2,0.4c0.1,0.1,0.3,0.1,0.5,0.1h2c0.1,0,0.2,0,0.2,0c0.1,0,0.1-0.1,0.2-0.1l1.7-1.4c0.1-0.1,0.1-0.1,0.1-0.2
	c0-0.1,0-0.2,0-0.3V67c0-0.3,0-0.6-0.1-0.9C86.5,65.7,86.3,65.3,86.1,64.9z"/>
<path d="M96.5,65.7h-1.9c-0.1,0-0.2,0-0.2,0c-0.1,0-0.1,0-0.2,0.1l-1.7,1.4l0,0V62c0-0.2,0-0.4-0.1-0.5c-0.1-0.1-0.2-0.1-0.5-0.1h-2
	c-0.1,0-0.2,0-0.2,0c-0.1,0-0.1,0-0.2,0.1L87.8,63c-0.1,0.1-0.1,0.1-0.1,0.2c0,0.1,0,0.2,0,0.3v8.4c0,0.2,0,0.4,0.1,0.5
	s0.2,0.1,0.5,0.1h6.6c0.1,0,0.2,0,0.2,0c0.1,0,0.1-0.1,0.2-0.1l1.7-1.4c0.1-0.1,0.1-0.1,0.1-0.2c0-0.1,0-0.2,0-0.3v-4.1
	c0-0.2,0-0.4-0.1-0.5C96.9,65.8,96.7,65.7,96.5,65.7z"/>
<path d="M13.2,80.6l1.2-1c0.1-0.1,0.1-0.1,0.1-0.2s0-0.2,0-0.3v-1.5c0-0.2,0-0.4-0.1-0.5c-0.1-0.1-0.2-0.1-0.5-0.1h-3.6
	c-0.4,0-0.8,0.1-1.2,0.2c-0.3,0.1-0.6,0.3-0.9,0.4L6.6,79c-0.2,0.2-0.4,0.5-0.6,0.8s-0.2,0.6-0.2,1v1.4c0,0.6,0.1,1.1,0.4,1.4
	c0.3,0.3,0.6,0.6,1.1,0.7L6,85.5c-0.1,0.1-0.1,0.1-0.1,0.2s0,0.2,0,0.3v1.5c0,0.2,0,0.4,0.1,0.5C6,88,6.2,88.1,6.4,88.1h4.1
	c0.4,0,0.8-0.1,1.2-0.2s0.6-0.3,0.9-0.5l1.7-1.4c0.3-0.2,0.4-0.5,0.6-0.8c0.1-0.3,0.2-0.6,0.2-1v-1.4c0-0.7-0.2-1.2-0.5-1.6
	C14.2,81,13.7,80.7,13.2,80.6z"/>
<path d="M23.8,77h-3.2c-0.6,0-1.1,0.1-1.5,0.2c-0.4,0.1-0.8,0.3-1,0.5l-1.7,1.4c-0.3,0.2-0.5,0.5-0.6,0.9s-0.2,0.8-0.2,1.2v3.7
	c0,0.9,0.3,1.7,0.8,2.3s1.4,0.9,2.5,0.9h3.2c0.1,0,0.2,0,0.2,0c0.1,0,0.1-0.1,0.2-0.1l1.7-1.4c0.1-0.1,0.1-0.1,0.1-0.2
	c0-0.1,0-0.2,0-0.3v-1.5c0-0.2,0-0.4-0.1-0.5c-0.1-0.1-0.2-0.1-0.5-0.1h-2.6c-0.2,0-0.4,0-0.5-0.1c-0.1-0.1-0.2-0.2-0.2-0.4v-2.2
	h1.6c0.1,0,0.2,0,0.2,0c0.1,0,0.1-0.1,0.2-0.1l1.7-1.4c0.1-0.1,0.1-0.1,0.1-0.2c0-0.1,0-0.2,0-0.3v-1.6c0-0.2,0-0.4-0.1-0.5
	C24.2,77.1,24,77,23.8,77z"/>
<path d="M34.7,77h-2c-0.1,0-0.2,0-0.2,0c-0.1,0-0.1,0-0.2,0.1l-1.7,1.4c-0.1,0.1-0.1,0.1-0.1,0.2c0,0.1,0,0.2,0,0.3v1.3h-0.2v-2.7
	c0-0.2,0-0.4-0.1-0.5c-0.1-0.1-0.2-0.1-0.5-0.1h-2c-0.1,0-0.2,0-0.2,0c-0.1,0-0.1,0-0.2,0.1l-1.7,1.4c-0.1,0.1-0.1,0.1-0.1,0.2
	c0,0.1,0,0.2,0,0.3v8.4c0,0.2,0,0.4,0.1,0.5c0.1,0.1,0.2,0.1,0.5,0.1h2c0.1,0,0.2,0,0.2,0c0.1,0,0.1-0.1,0.2-0.1l1.7-1.4
	c0.1-0.1,0.1-0.1,0.1-0.2c0-0.1,0-0.2,0-0.3v-1.3h0.2v2.8c0,0.2,0,0.4,0.1,0.5c0.1,0.1,0.2,0.1,0.5,0.1h2c0.1,0,0.2,0,0.2,0
	c0.1,0,0.1-0.1,0.2-0.1l1.7-1.4c0.1-0.1,0.1-0.1,0.1-0.2c0-0.1,0-0.2,0-0.3v-8.4c0-0.2,0-0.4-0.1-0.5C35,77.1,34.9,77,34.7,77z"/>
<path d="M45.5,77.6c-0.3-0.2-0.7-0.4-1.3-0.6s-1.2-0.2-2.1-0.2c-0.9,0-1.6,0.1-2.1,0.2c-0.5,0.1-1,0.3-1.3,0.6L37,79
	c-0.3,0.2-0.5,0.5-0.6,0.9s-0.2,0.7-0.2,1.1v4c0,0.4,0.1,0.8,0.2,1.2c0.1,0.4,0.3,0.7,0.6,1c0.3,0.3,0.7,0.5,1.3,0.7
	c0.5,0.2,1.2,0.3,2.1,0.3c0.9,0,1.6-0.1,2.1-0.2c0.5-0.1,1-0.3,1.3-0.6l1.7-1.4c0.3-0.2,0.5-0.5,0.6-0.9c0.1-0.3,0.2-0.7,0.2-1.1
	v-4.4c0-0.4-0.1-0.8-0.2-1.1C46,78.2,45.8,77.9,45.5,77.6z M41.4,84c-0.1,0-0.2-0.1-0.2-0.2c0-0.1-0.1-0.1-0.1-0.2v-2.5
	c0.1,0,0.2,0.1,0.2,0.1s0.1,0.1,0.1,0.2V84z"/>
<path d="M56.2,81.3h-1.9c-0.1,0-0.2,0-0.2,0c-0.1,0-0.1,0-0.2,0.1l-1.7,1.4l0,0v-5.3c0-0.2,0-0.4-0.1-0.5c-0.1-0.1-0.2-0.1-0.5-0.1
	h-2c-0.1,0-0.2,0-0.2,0c-0.1,0-0.1,0-0.2,0.1l-1.7,1.4c-0.1,0.1-0.1,0.1-0.1,0.2c0,0.1,0,0.2,0,0.3v8.4c0,0.2,0,0.4,0.1,0.5
	c0.1,0.1,0.2,0.1,0.5,0.1h6.6c0.1,0,0.2,0,0.2,0c0.1,0,0.1-0.1,0.2-0.1l1.7-1.4c0.1-0.1,0.1-0.1,0.1-0.2c0-0.1,0-0.2,0-0.3v-4.1
	c0-0.2,0-0.4-0.1-0.5C56.5,81.4,56.4,81.3,56.2,81.3z"/>
<path d="M66.9,80.5l-1.1-3c-0.1-0.2-0.2-0.3-0.3-0.4C65.4,77.1,65.2,77,65,77h-3.5c-0.1,0-0.2,0-0.3,0S61,77.1,61,77.2l-1.7,1.4l0,0
	c0,0-0.1,0.1-0.1,0.1s-0.1,0.1-0.1,0.2L58,81.9c-0.2,0.5-0.3,0.9-0.4,1.2c-0.1,0.3-0.1,0.6-0.1,0.9v3.4c0,0.2,0,0.4,0.1,0.5
	c0.1,0.1,0.2,0.1,0.5,0.1h1.9c0.1,0,0.2,0,0.2,0c0.1,0,0.1-0.1,0.2-0.1l1.7-1.4c0.1-0.1,0.1-0.1,0.1-0.2c0-0.1,0-0.2,0-0.3v-0.3h0.4
	v1.7c0,0.2,0.1,0.3,0.2,0.4s0.3,0.1,0.5,0.1h2c0.1,0,0.2,0,0.2,0c0.1,0,0.1-0.1,0.2-0.1l1.7-1.4c0.1-0.1,0.1-0.1,0.1-0.2
	c0-0.1,0-0.2,0-0.3v-3.4c0-0.3,0-0.6-0.1-0.9C67.3,81.3,67.1,80.9,66.9,80.5z"/>
<path d="M77.2,81.3L77.2,81.3c0.2-0.1,0.3-0.3,0.4-0.6c0.1-0.2,0.1-0.5,0.1-0.8v-0.6c0-0.7-0.2-1.2-0.6-1.7C76.8,77.2,76.1,77,75,77
	h-4.3c-0.1,0-0.2,0-0.2,0c-0.1,0-0.1,0-0.2,0.1l-1.7,1.4c-0.1,0.1-0.1,0.1-0.1,0.2c0,0.1,0,0.2,0,0.3v8.4c0,0.2,0,0.4,0.1,0.5
	c0.1,0.1,0.2,0.1,0.5,0.1h2c0.1,0,0.2,0,0.2,0c0.1,0,0.1-0.1,0.2-0.1l1.7-1.4c0.1-0.1,0.1-0.1,0.1-0.2c0-0.1,0-0.2,0-0.3v-1h0
	c0.1,0,0.2,0,0.3,0.1c0.1,0.1,0.1,0.2,0.1,0.3v2c0,0.2,0,0.4,0.1,0.5c0.1,0.1,0.2,0.1,0.5,0.1h2c0.1,0,0.2,0,0.2,0
	c0.1,0,0.1-0.1,0.2-0.1l1.7-1.4c0.1-0.1,0.1-0.1,0.1-0.2c0-0.1,0-0.2,0-0.3v-2.8c0-0.5-0.1-0.9-0.4-1.3S77.6,81.4,77.2,81.3z"/>
<path d="M86.5,80.6l1.2-1c0.1-0.1,0.1-0.1,0.1-0.2s0-0.2,0-0.3v-1.5c0-0.2,0-0.4-0.1-0.5c-0.1-0.1-0.2-0.1-0.5-0.1h-3.6
	c-0.4,0-0.8,0.1-1.2,0.2c-0.3,0.1-0.6,0.3-0.9,0.4L79.9,79c-0.2,0.2-0.4,0.5-0.6,0.8s-0.2,0.6-0.2,1v1.4c0,0.6,0.1,1.1,0.4,1.4
	c0.3,0.3,0.6,0.6,1.1,0.7l-1.3,1.1c-0.1,0.1-0.1,0.1-0.1,0.2s0,0.2,0,0.3v1.5c0,0.2,0,0.4,0.1,0.5c0.1,0.1,0.2,0.1,0.5,0.1h4.1
	c0.4,0,0.8-0.1,1.2-0.2s0.6-0.3,0.9-0.5l1.7-1.4c0.3-0.2,0.4-0.5,0.6-0.8c0.1-0.3,0.2-0.6,0.2-1v-1.4c0-0.7-0.2-1.2-0.5-1.6
	C87.5,81,87.1,80.7,86.5,80.6z"/>
<path d="M98.5,77h-2c-0.1,0-0.2,0-0.2,0c-0.1,0-0.1,0-0.2,0.1l-1.7,1.4c-0.1,0.1-0.1,0.1-0.1,0.2c0,0.1,0,0.2,0,0.3v1.3H94v-2.7
	c0-0.2,0-0.4-0.1-0.5c-0.1-0.1-0.2-0.1-0.5-0.1h-2c-0.1,0-0.2,0-0.2,0c-0.1,0-0.1,0-0.2,0.1l-1.7,1.4c-0.1,0.1-0.1,0.1-0.1,0.2
	c0,0.1,0,0.2,0,0.3v8.4c0,0.2,0,0.4,0.1,0.5s0.2,0.1,0.5,0.1h2c0.1,0,0.2,0,0.2,0c0.1,0,0.1-0.1,0.2-0.1l1.7-1.4
	c0.1-0.1,0.1-0.1,0.1-0.2c0-0.1,0-0.2,0-0.3v-1.3h0.2v2.8c0,0.2,0,0.4,0.1,0.5s0.2,0.1,0.5,0.1h2c0.1,0,0.2,0,0.2,0
	c0.1,0,0.1-0.1,0.2-0.1l1.7-1.4c0.1-0.1,0.1-0.1,0.1-0.2c0-0.1,0-0.2,0-0.3v-8.4c0-0.2,0-0.4-0.1-0.5C98.9,77.1,98.7,77,98.5,77z"/>
<path d="M107.9,77h-5.5c-0.1,0-0.2,0-0.2,0c-0.1,0-0.1,0-0.2,0.1l-1.7,1.4c-0.1,0.1-0.1,0.1-0.1,0.2c0,0.1,0,0.2,0,0.3v1.6
	c0,0.2,0,0.4,0.1,0.5c0.1,0.1,0.2,0.1,0.5,0.1h1.2v2.9l-1.6,1.3c-0.1,0.1-0.1,0.1-0.1,0.2c0,0.1,0,0.2,0,0.3v1.5
	c0,0.2,0,0.4,0.1,0.5s0.2,0.1,0.5,0.1h5.5c0.1,0,0.2,0,0.2,0c0.1,0,0.1-0.1,0.2-0.1l1.7-1.4c0.1-0.1,0.1-0.1,0.1-0.2
	c0-0.1,0-0.2,0-0.3v-1.5c0-0.2,0-0.4-0.1-0.5c-0.1-0.1-0.2-0.1-0.5-0.1h-1.1V81l1.5-1.3c0.1-0.1,0.1-0.1,0.1-0.2c0-0.1,0-0.2,0-0.3
	v-1.6c0-0.2,0-0.4-0.1-0.5C108.3,77.1,108.1,77,107.9,77z"/>
<path d="M118.2,77.8c-0.2-0.2-0.6-0.4-1-0.5s-0.9-0.2-1.5-0.2h-4c-0.1,0-0.2,0-0.2,0c-0.1,0-0.1,0-0.2,0.1l-1.7,1.4
	c-0.1,0.1-0.1,0.1-0.1,0.2c0,0.1,0,0.2,0,0.3v8.4c0,0.2,0,0.4,0.1,0.5s0.2,0.1,0.5,0.1h2c0.1,0,0.2,0,0.2,0c0.1,0,0.1-0.1,0.2-0.1
	l1.7-1.4c0.1-0.1,0.1-0.1,0.1-0.2c0-0.1,0-0.2,0-0.3v-0.6c0.5,0,0.9-0.1,1.3-0.2c0.3-0.1,0.6-0.3,0.8-0.4l1.7-1.4
	c0.3-0.2,0.5-0.5,0.6-0.9s0.2-0.7,0.2-1.1v-1.7c0-0.4-0.1-0.7-0.2-1.1C118.7,78.3,118.5,78,118.2,77.8z"/>
<path d="M22.1,96.2l1.2-1c0.1-0.1,0.1-0.1,0.1-0.2s0-0.2,0-0.3v-1.5c0-0.2,0-0.4-0.1-0.5c-0.1-0.1-0.2-0.1-0.5-0.1h-3.6
	c-0.4,0-0.8,0.1-1.2,0.2c-0.3,0.1-0.6,0.3-0.9,0.4l-1.7,1.4c-0.2,0.2-0.4,0.5-0.6,0.8s-0.2,0.6-0.2,1v1.4c0,0.6,0.1,1.1,0.4,1.4
	c0.3,0.3,0.6,0.6,1.1,0.7l-1.3,1.1c-0.1,0.1-0.1,0.1-0.1,0.2s0,0.2,0,0.3v1.5c0,0.2,0,0.4,0.1,0.5c0.1,0.1,0.2,0.1,0.5,0.1h4.1
	c0.4,0,0.8-0.1,1.2-0.2s0.6-0.3,0.9-0.5l1.7-1.4c0.3-0.2,0.4-0.5,0.6-0.8c0.1-0.3,0.2-0.6,0.2-1v-1.4c0-0.7-0.2-1.2-0.5-1.6
	C23,96.6,22.6,96.3,22.1,96.2z"/>
<path d="M33.5,92.6h-1.9c-0.1,0-0.2,0-0.2,0c-0.1,0-0.1,0-0.2,0.1l-1.7,1.4c-0.1,0.1-0.1,0.1-0.1,0.2c0,0.1,0,0.2,0,0.3V96l-0.2-0.2
	c0-0.1-0.1-0.2-0.1-0.2c0-0.1,0-0.2,0-0.2v-2.1c0-0.2,0-0.4-0.1-0.5c-0.1-0.1-0.2-0.1-0.5-0.1h-2c-0.1,0-0.2,0-0.2,0
	c-0.1,0-0.1,0-0.2,0.1l-1.7,1.4c-0.1,0.1-0.1,0.1-0.1,0.2c0,0.1,0,0.2,0,0.3v2.5c0,0.4,0,0.7,0.1,0.9s0.2,0.5,0.4,0.7l2,2.6v1.6
	c0,0.2,0,0.4,0.1,0.5c0.1,0.1,0.2,0.1,0.5,0.1h2.1c0.1,0,0.2,0,0.2,0c0.1,0,0.1-0.1,0.2-0.1l1.7-1.4c0.1-0.1,0.1-0.1,0.1-0.2
	c0-0.1,0-0.2,0-0.3V100l2-2.6c0.2-0.3,0.3-0.5,0.4-0.7s0.1-0.5,0.1-0.9v-2.5c0-0.2,0-0.4-0.1-0.5C33.9,92.7,33.8,92.6,33.5,92.6z"/>
<path d="M45.6,92.6h-2.1c-0.1,0-0.2,0-0.3,0c-0.1,0-0.1,0.1-0.2,0.1l-1.7,1.4c0,0-0.1,0.1-0.1,0.1c0,0.1-0.1,0.1-0.1,0.2L41,94.7
	l-0.9-1.6c-0.1-0.2-0.2-0.3-0.3-0.4c-0.1-0.1-0.2-0.1-0.4-0.1h-2.1c-0.1,0-0.2,0-0.2,0c-0.1,0-0.1,0-0.2,0.1l-1.7,1.4
	c-0.1,0.1-0.1,0.1-0.1,0.2c0,0.1,0,0.2,0,0.3v8.4c0,0.2,0,0.4,0.1,0.5c0.1,0.1,0.2,0.1,0.5,0.1h1.9c0.1,0,0.2,0,0.2,0
	c0.1,0,0.1-0.1,0.2-0.1l1.7-1.4c0.1-0.1,0.1-0.1,0.1-0.2c0-0.1,0-0.2,0-0.3v-1.2H40c0.1,0,0.2,0,0.3,0c0.1,0,0.2-0.1,0.2-0.1
	l0.8-0.6v3.4c0,0.2,0,0.4,0.1,0.5c0.1,0.1,0.2,0.1,0.5,0.1h2c0.1,0,0.2,0,0.2,0c0.1,0,0.1-0.1,0.2-0.1l1.7-1.4
	c0.1-0.1,0.1-0.1,0.1-0.2c0-0.1,0-0.2,0-0.3v-8.4c0-0.2,0-0.4-0.1-0.5C45.9,92.7,45.8,92.6,45.6,92.6z"/>
<path d="M56.1,93.4c-0.2-0.2-0.6-0.4-1-0.5c-0.4-0.1-0.9-0.2-1.5-0.2h-4c-0.1,0-0.2,0-0.2,0c-0.1,0-0.1,0-0.2,0.1l-1.7,1.4
	c-0.1,0.1-0.1,0.1-0.1,0.2c0,0.1,0,0.2,0,0.3v8.4c0,0.2,0,0.4,0.1,0.5c0.1,0.1,0.2,0.1,0.5,0.1h2c0.1,0,0.2,0,0.2,0
	c0.1,0,0.1-0.1,0.2-0.1l1.7-1.4c0.1-0.1,0.1-0.1,0.1-0.2c0-0.1,0-0.2,0-0.3V101c0.5,0,0.9-0.1,1.3-0.2s0.6-0.3,0.8-0.4L56,99
	c0.3-0.2,0.5-0.5,0.6-0.9c0.1-0.3,0.2-0.7,0.2-1.1v-1.7c0-0.4-0.1-0.7-0.1-1.1C56.5,93.9,56.4,93.6,56.1,93.4z"/>
<path d="M66.6,93.2c-0.3-0.2-0.7-0.4-1.3-0.6c-0.5-0.1-1.2-0.2-2.1-0.2c-0.9,0-1.6,0.1-2.1,0.2c-0.5,0.1-1,0.3-1.3,0.6l-1.7,1.4
	c-0.3,0.2-0.5,0.5-0.6,0.9s-0.2,0.7-0.2,1.1v4c0,0.4,0.1,0.8,0.2,1.2c0.1,0.4,0.3,0.7,0.6,1c0.3,0.3,0.7,0.5,1.3,0.7
	c0.5,0.2,1.2,0.3,2.1,0.3c0.9,0,1.6-0.1,2.1-0.2c0.5-0.1,1-0.3,1.3-0.6l1.7-1.4c0.3-0.2,0.5-0.5,0.6-0.9s0.2-0.7,0.2-1.1v-4.4
	c0-0.4-0.1-0.8-0.2-1.1C67.1,93.8,66.9,93.5,66.6,93.2z M62.5,99.6c-0.1,0-0.2-0.1-0.2-0.2c0-0.1-0.1-0.1-0.1-0.2v-2.5
	c0.1,0,0.2,0.1,0.2,0.1s0.1,0.1,0.1,0.2V99.6z"/>
<path d="M75.5,96.2l1.2-1c0.1-0.1,0.1-0.1,0.1-0.2s0-0.2,0-0.3v-1.5c0-0.2,0-0.4-0.1-0.5c-0.1-0.1-0.2-0.1-0.5-0.1h-3.6
	c-0.4,0-0.8,0.1-1.2,0.2c-0.3,0.1-0.6,0.3-0.9,0.4l-1.7,1.4c-0.2,0.2-0.4,0.5-0.6,0.8s-0.2,0.6-0.2,1v1.4c0,0.6,0.1,1.1,0.4,1.4
	c0.3,0.3,0.6,0.6,1.1,0.7l-1.3,1.1c-0.1,0.1-0.1,0.1-0.1,0.2s0,0.2,0,0.3v1.5c0,0.2,0,0.4,0.1,0.5s0.2,0.1,0.5,0.1h4.1
	c0.4,0,0.8-0.1,1.2-0.2s0.6-0.3,0.9-0.5l1.7-1.4c0.3-0.2,0.4-0.5,0.6-0.8c0.1-0.3,0.2-0.6,0.2-1v-1.4c0-0.7-0.2-1.2-0.5-1.6
	C76.5,96.6,76.1,96.3,75.5,96.2z"/>
<path d="M85.7,92.6h-5.5c-0.1,0-0.2,0-0.2,0c-0.1,0-0.1,0-0.2,0.1l-1.7,1.4C78,94.2,78,94.3,78,94.3c0,0.1,0,0.2,0,0.3v1.6
	c0,0.2,0,0.4,0.1,0.5c0.1,0.1,0.2,0.1,0.5,0.1h1.2v2.9l-1.6,1.3c-0.1,0.1-0.1,0.1-0.1,0.2c0,0.1,0,0.2,0,0.3v1.5
	c0,0.2,0,0.4,0.1,0.5c0.1,0.1,0.2,0.1,0.5,0.1h5.5c0.1,0,0.2,0,0.2,0c0.1,0,0.1-0.1,0.2-0.1l1.7-1.4c0.1-0.1,0.1-0.1,0.1-0.2
	c0-0.1,0-0.2,0-0.3v-1.5c0-0.2,0-0.4-0.1-0.5c-0.1-0.1-0.2-0.1-0.5-0.1h-1.1v-2.9l1.5-1.3c0.1-0.1,0.1-0.1,0.1-0.2
	c0-0.1,0-0.2,0-0.3v-1.6c0-0.2,0-0.4-0.1-0.5C86.1,92.7,85.9,92.6,85.7,92.6z"/>
<path d="M96.6,92.6h-2c-0.1,0-0.2,0-0.2,0c-0.1,0-0.1,0-0.2,0.1l-1.7,1.4l0,0c-0.1,0-0.1,0.1-0.1,0.2c0,0.1,0,0.2,0,0.3v4.9
	c-0.1,0-0.1-0.1-0.2-0.1s0-0.1,0-0.2v-5.9c0-0.2,0-0.4-0.1-0.5c-0.1-0.1-0.2-0.1-0.5-0.1h-2c-0.1,0-0.2,0-0.2,0
	c-0.1,0-0.1,0-0.2,0.1l-1.7,1.4c-0.1,0.1-0.1,0.1-0.1,0.2c0,0.1,0,0.2,0,0.3v6c0,0.4,0.1,0.8,0.2,1.2s0.3,0.7,0.6,1
	c0.3,0.3,0.7,0.5,1.3,0.7c0.5,0.2,1.2,0.3,2.1,0.3c0.9,0,1.6-0.1,2.1-0.2s1-0.3,1.3-0.6l1.7-1.4c0.3-0.2,0.5-0.5,0.6-0.9
	c0.1-0.3,0.2-0.7,0.2-1.1v-6.4c0-0.2,0-0.4-0.1-0.5C97,92.7,96.8,92.6,96.6,92.6z"/>
<path d="M108.9,92.6h-2.1c-0.1,0-0.2,0-0.3,0c-0.1,0-0.1,0.1-0.2,0.1l-1.7,1.4c0,0-0.1,0.1-0.1,0.1c0,0.1-0.1,0.1-0.1,0.2l-0.1,0.2
	l-0.9-1.6c-0.1-0.2-0.2-0.3-0.3-0.4c-0.1-0.1-0.2-0.1-0.4-0.1h-2.1c-0.1,0-0.2,0-0.2,0c-0.1,0-0.1,0-0.2,0.1l-1.7,1.4
	c-0.1,0.1-0.1,0.1-0.1,0.2c0,0.1,0,0.2,0,0.3v8.4c0,0.2,0,0.4,0.1,0.5s0.2,0.1,0.5,0.1h1.9c0.1,0,0.2,0,0.2,0c0.1,0,0.1-0.1,0.2-0.1
	l1.7-1.4c0.1-0.1,0.1-0.1,0.1-0.2c0-0.1,0-0.2,0-0.3v-1.2h0.2c0.1,0,0.2,0,0.3,0c0.1,0,0.2-0.1,0.2-0.1l0.8-0.6v3.4
	c0,0.2,0,0.4,0.1,0.5s0.2,0.1,0.5,0.1h2c0.1,0,0.2,0,0.2,0c0.1,0,0.1-0.1,0.2-0.1l1.7-1.4c0.1-0.1,0.1-0.1,0.1-0.2
	c0-0.1,0-0.2,0-0.3v-8.4c0-0.2,0-0.4-0.1-0.5C109.2,92.7,109.1,92.6,108.9,92.6z"/>
<g>
	<g id="XMLID_1_">
		<g>
			<path fill="#FFFFFF" d="M34.1,62.8c0.4,0,0.7,0,1,0.1c0.3,0.1,0.5,0.2,0.6,0.3c0.1,0.2,0.2,0.3,0.3,0.5c0,0.2,0.1,0.4,0.1,0.7V68
				c0,0.2,0,0.5-0.1,0.7c-0.1,0.2-0.2,0.4-0.3,0.5c-0.1,0.1-0.3,0.2-0.6,0.3c-0.3,0.1-0.6,0.1-1,0.1h-3v-6.8H34.1z M34.5,68.3
				c0.1-0.1,0.2-0.3,0.2-0.5v-3.2c0-0.2-0.1-0.4-0.2-0.5S34.2,64,34,64h-1.5v4.4H34C34.2,68.4,34.4,68.4,34.5,68.3z"/>
			<path fill="#FFFFFF" d="M34.1,69.7c0.4,0,0.8-0.1,1.1-0.1c0.3-0.1,0.5-0.2,0.6-0.4c0.2-0.1,0.2-0.3,0.3-0.6
				c0-0.2,0.1-0.4,0.1-0.7v-3.4c0-0.2,0-0.5-0.1-0.7s-0.2-0.4-0.3-0.6c-0.2-0.2-0.4-0.3-0.6-0.4c-0.3-0.1-0.6-0.1-1.1-0.1h-3.1v7
				H34.1z M36.8,70.3c-0.5,0.4-1.3,0.6-2.4,0.6H30c-0.2,0-0.3,0-0.4-0.1c-0.1-0.1-0.1-0.2-0.1-0.4V62c0-0.2,0-0.3,0.1-0.4
				c0.1-0.1,0.2-0.1,0.4-0.1h4.4c1.1,0,1.9,0.2,2.4,0.6c0.5,0.4,0.8,1.1,0.8,2v4.1C37.5,69.2,37.3,69.8,36.8,70.3z"/>
		</g>
		<g>
		</g>
	</g>
	<g id="XMLID_2_">
		<g>
			<path fill="#FFFFFF" d="M43.5,62.8v6.8h-2v0.1h4.1v-0.1h-2v-6.8h2v-0.1h-4.1v0.1H43.5z M40.3,63.6V62c0-0.2,0-0.3,0.1-0.4
				c0.1-0.1,0.2-0.1,0.3-0.1h5.5c0.2,0,0.3,0,0.4,0.1c0.1,0.1,0.1,0.2,0.1,0.4v1.6c0,0.2,0,0.3-0.1,0.4c-0.1,0.1-0.2,0.1-0.4,0.1H45
				v4.4h1.3c0.2,0,0.3,0,0.4,0.1c0.1,0.1,0.1,0.2,0.1,0.3v1.5c0,0.2,0,0.3-0.1,0.4c-0.1,0.1-0.2,0.1-0.4,0.1h-5.5
				c-0.2,0-0.3,0-0.3-0.1c-0.1-0.1-0.1-0.2-0.1-0.4v-1.5c0-0.2,0-0.3,0.1-0.3c0.1-0.1,0.2-0.1,0.3-0.1H42v-4.4h-1.3
				c-0.2,0-0.3,0-0.3-0.1C40.3,63.9,40.3,63.8,40.3,63.6z"/>
		</g>
		<g>
		</g>
	</g>
	<g id="XMLID_3_">
		<g>
			<path fill="#FFFFFF" d="M49.5,64.2c0-0.9,0.3-1.6,0.8-2c0.5-0.4,1.3-0.6,2.4-0.6H56c0.2,0,0.3,0,0.4,0.1s0.1,0.2,0.1,0.4v1.6
				c0,0.2,0,0.3-0.1,0.4c-0.1,0.1-0.2,0.1-0.4,0.1h-2.7c-0.3,0-0.5,0.1-0.6,0.2c-0.1,0.1-0.2,0.3-0.2,0.5v3.1c0,0.2,0,0.4,0.1,0.5
				c0.1,0.1,0.2,0.2,0.5,0.2h1.3v-2c0-0.2,0-0.3,0.1-0.4c0.1-0.1,0.2-0.1,0.4-0.1h2c0.2,0,0.3,0,0.3,0.1c0.1,0.1,0.1,0.2,0.1,0.4v4
				c0,0.2,0,0.3-0.1,0.4c-0.1,0.1-0.2,0.1-0.3,0.1h-4.1c-1.1,0-1.9-0.2-2.4-0.6c-0.5-0.4-0.8-1.1-0.8-2V64.2z M52.1,69.6
				c0.3,0.1,0.7,0.1,1.2,0.1h2.6v-2.6h-0.1v2.5h-2.5c-0.9,0-1.5-0.1-1.8-0.3c-0.3-0.2-0.5-0.6-0.5-1.2v-3.6c0-0.6,0.1-1,0.4-1.2
				c0.3-0.2,0.8-0.4,1.5-0.4h2.2v-0.1H53c-0.8,0-1.4,0.1-1.7,0.4c-0.3,0.3-0.4,0.7-0.4,1.3v3.6c0,0.3,0,0.6,0.1,0.8
				c0.1,0.2,0.2,0.4,0.4,0.5C51.6,69.5,51.8,69.6,52.1,69.6z"/>
		</g>
		<g>
		</g>
	</g>
	<g id="XMLID_4_">
		<g>
			<path fill="#FFFFFF" d="M61.1,62.8h2v6.8h-2v0.1h4.1v-0.1h-2v-6.8h2v-0.1h-4.1V62.8z M60,63.6V62c0-0.2,0-0.3,0.1-0.4
				c0.1-0.1,0.2-0.1,0.4-0.1H66c0.2,0,0.3,0,0.4,0.1c0.1,0.1,0.1,0.2,0.1,0.4v1.6c0,0.2,0,0.3-0.1,0.4c-0.1,0.1-0.2,0.1-0.4,0.1
				h-1.3v4.4H66c0.2,0,0.3,0,0.4,0.1c0.1,0.1,0.1,0.2,0.1,0.3v1.5c0,0.2,0,0.3-0.1,0.4c-0.1,0.1-0.2,0.1-0.4,0.1h-5.5
				c-0.2,0-0.3,0-0.4-0.1C60,70.7,60,70.6,60,70.4v-1.5c0-0.2,0-0.3,0.1-0.3c0.1-0.1,0.2-0.1,0.4-0.1h1.3v-4.4h-1.3
				c-0.2,0-0.3,0-0.4-0.1C60,63.9,60,63.8,60,63.6z"/>
		</g>
		<g>
		</g>
	</g>
	<g id="XMLID_5_">
		<g>
			<path fill="#FFFFFF" d="M70,62.8h2.7v6.9h0.1v-6.9h2.7v-0.1H70V62.8z M69.3,61.5h6.9c0.2,0,0.3,0,0.4,0.1
				c0.1,0.1,0.1,0.2,0.1,0.4v1.6c0,0.2,0,0.3-0.1,0.4c-0.1,0.1-0.2,0.1-0.4,0.1h-1.9v6.4c0,0.2,0,0.3-0.1,0.4
				c-0.1,0.1-0.2,0.1-0.3,0.1h-2.1c-0.2,0-0.3,0-0.4-0.1c-0.1-0.1-0.1-0.2-0.1-0.4v-6.4h-1.9c-0.2,0-0.3,0-0.4-0.1
				c-0.1-0.1-0.1-0.2-0.1-0.4V62c0-0.2,0-0.3,0.1-0.4C69,61.6,69.1,61.5,69.3,61.5z"/>
		</g>
		<g>
		</g>
	</g>
	<g id="XMLID_6_">
		<g>
			<path fill="#FFFFFF" d="M82.3,64.1c-0.1,0-0.1,0-0.1,0.1c0,0-0.1,0.1-0.1,0.2l-0.6,2h2l-0.6-2c0-0.1-0.1-0.1-0.1-0.2
				c0,0-0.1-0.1-0.1-0.1H82.3z M85,66.3c0,0.2,0.1,0.4,0.1,0.7v0.4H80V67c0-0.2,0-0.5,0.1-0.7c0-0.2,0.1-0.4,0.2-0.6l0.8-2.1
				c0.1-0.2,0.2-0.4,0.3-0.5c0.1-0.1,0.3-0.2,0.5-0.2h1.3c0.2,0,0.4,0.1,0.5,0.2c0.1,0.2,0.2,0.3,0.3,0.6l0.9,2.1
				C84.9,65.9,84.9,66.1,85,66.3z"/>
			<path fill="#FFFFFF" d="M85.1,66.3c0-0.2-0.1-0.4-0.2-0.6L84,63.6c-0.1-0.2-0.2-0.5-0.3-0.6c-0.1-0.2-0.3-0.2-0.6-0.2h-1.3
				c-0.3,0-0.5,0.1-0.6,0.2c-0.1,0.2-0.2,0.4-0.3,0.6L80,65.7c-0.1,0.2-0.1,0.4-0.2,0.6c0,0.2-0.1,0.4-0.1,0.7v2.8H80v-2.2H85v2.2
				h0.1V67C85.2,66.7,85.1,66.5,85.1,66.3z M86.5,70.4c0,0.2,0,0.3-0.1,0.4c-0.1,0.1-0.2,0.1-0.4,0.1h-2c-0.2,0-0.3,0-0.4-0.1
				s-0.1-0.2-0.1-0.4v-1.8h-2.3v1.8c0,0.2,0,0.3-0.1,0.4c-0.1,0.1-0.2,0.1-0.4,0.1h-1.9c-0.2,0-0.3,0-0.4-0.1s-0.1-0.2-0.1-0.4V67
				c0-0.3,0-0.6,0.1-0.9c0.1-0.3,0.2-0.7,0.4-1.2l1.1-3c0-0.2,0.1-0.3,0.2-0.3s0.2-0.1,0.4-0.1h3.5c0.2,0,0.3,0,0.4,0.1
				c0.1,0.1,0.2,0.2,0.2,0.3l1.1,3c0.2,0.4,0.3,0.8,0.4,1.2c0.1,0.3,0.1,0.6,0.1,0.9V70.4z"/>
		</g>
		<g>
		</g>
	</g>
	<g id="XMLID_7_">
		<g>
			<path fill="#FFFFFF" d="M95.5,69.6H91v-6.9h-0.1v7h4.8V67h-0.1V69.6z M89.4,70.4V62c0-0.2,0-0.3,0.1-0.4c0.1-0.1,0.2-0.1,0.4-0.1
				h2c0.2,0,0.3,0,0.3,0.1c0.1,0.1,0.1,0.2,0.1,0.4v6.4h1.8v-2.1c0-0.2,0-0.3,0.1-0.4c0.1-0.1,0.2-0.1,0.3-0.1h1.9
				c0.2,0,0.3,0,0.4,0.1c0.1,0.1,0.1,0.2,0.1,0.4v4.1c0,0.2,0,0.3-0.1,0.4c-0.1,0.1-0.2,0.1-0.4,0.1h-6.6c-0.2,0-0.3,0-0.4-0.1
				C89.5,70.7,89.4,70.6,89.4,70.4z"/>
		</g>
		<g>
		</g>
	</g>
	<g id="XMLID_27_">
		<g>
			<path fill="#FFFFFF" d="M12.2,86.5H8.1c-0.2,0-0.3,0-0.4-0.1c-0.1-0.1-0.1-0.2-0.1-0.4v-1.5c0-0.2,0-0.3,0.1-0.4
				C7.8,84.1,7.9,84,8.1,84h3.5c0.1,0,0.2,0,0.3-0.1c0.1-0.1,0.1-0.2,0.1-0.3c0-0.2,0-0.3-0.1-0.3c-0.1-0.1-0.1-0.1-0.3-0.1l-2-0.3
				c-0.6-0.1-1.1-0.3-1.5-0.6c-0.4-0.3-0.5-0.8-0.5-1.6v-1.4c0-0.7,0.2-1.3,0.7-1.7c0.5-0.4,1.1-0.6,2-0.6h3.6c0.2,0,0.3,0,0.4,0.1
				c0.1,0.1,0.1,0.2,0.1,0.4v1.5c0,0.2,0,0.3-0.1,0.4c-0.1,0.1-0.2,0.1-0.4,0.1h-3c-0.1,0-0.2,0-0.3,0.1c-0.1,0.1-0.1,0.2-0.1,0.3
				c0,0.1,0,0.2,0.1,0.3c0.1,0.1,0.1,0.1,0.3,0.1l1.9,0.3c0.6,0.1,1.1,0.3,1.5,0.6c0.4,0.3,0.6,0.8,0.6,1.6v1.4
				c0,0.7-0.2,1.3-0.7,1.7C13.7,86.3,13,86.5,12.2,86.5z M12,85.2H8.8v0.1H12c0.4,0,0.8-0.1,1.1-0.4c0.3-0.2,0.4-0.6,0.4-0.9v-0.8
				c0-0.4-0.1-0.8-0.3-0.9C13,82.2,12.8,82,12.6,82l-2.7-0.6c-0.2,0-0.4-0.1-0.5-0.2c-0.1-0.1-0.2-0.3-0.2-0.6v-1.1
				c0-0.3,0.1-0.6,0.3-0.8c0.2-0.2,0.5-0.3,0.9-0.3h2.9v-0.1h-2.9c-0.4,0-0.7,0.1-1,0.3C9.1,78.9,9,79.2,9,79.5v1.1
				c0,0.3,0.1,0.6,0.2,0.7c0.1,0.1,0.3,0.2,0.5,0.3l2.7,0.6c0.2,0.1,0.4,0.2,0.6,0.3c0.1,0.2,0.2,0.4,0.2,0.8V84
				c0,0.3-0.1,0.6-0.4,0.8S12.4,85.2,12,85.2z"/>
		</g>
		<g>
		</g>
	</g>
	<g id="XMLID_26_">
		<g>
			<path fill="#FFFFFF" d="M24.2,79.5c-0.1,0.1-0.2,0.1-0.4,0.1h-2.6c-0.3,0-0.5,0.1-0.6,0.2c-0.1,0.1-0.2,0.3-0.2,0.5v3.1
				c0,0.2,0.1,0.4,0.2,0.5c0.1,0.1,0.3,0.2,0.6,0.2h2.6c0.2,0,0.3,0,0.4,0.1c0.1,0.1,0.1,0.2,0.1,0.4V86c0,0.2,0,0.3-0.1,0.4
				c-0.1,0.1-0.2,0.1-0.4,0.1h-3.2c-1.1,0-1.9-0.2-2.4-0.7c-0.5-0.4-0.8-1.1-0.8-2v-4c0-0.9,0.3-1.6,0.8-2c0.5-0.4,1.3-0.7,2.4-0.7
				h3.2c0.2,0,0.3,0,0.4,0.1c0.1,0.1,0.1,0.2,0.1,0.4v1.6C24.3,79.4,24.2,79.5,24.2,79.5z M23.1,85.3v-0.1h-2.2
				c-0.8,0-1.3-0.1-1.6-0.3c-0.3-0.2-0.4-0.6-0.4-1.2V80c0-0.6,0.1-1,0.4-1.2c0.3-0.2,0.8-0.4,1.5-0.4h2.2v-0.1h-2.2
				c-0.8,0-1.4,0.1-1.7,0.4C19,79,18.8,79.4,18.8,80v3.6c0,0.6,0.1,1,0.4,1.3c0.3,0.3,0.8,0.4,1.7,0.4H23.1z"/>
		</g>
		<g>
		</g>
	</g>
	<g id="XMLID_25_">
		<g>
			<path fill="#FFFFFF" d="M33.6,81.8h-5v-3.4h-0.1v7h0.1v-3.4h5v3.4h0.1v-7h-0.1V81.8z M30,77.6v2.8h2.2v-2.8c0-0.2,0-0.3,0.1-0.4
				c0.1-0.1,0.2-0.1,0.3-0.1h2c0.2,0,0.3,0,0.4,0.1c0.1,0.1,0.1,0.2,0.1,0.4V86c0,0.2,0,0.3-0.1,0.4c-0.1,0.1-0.2,0.1-0.4,0.1h-2
				c-0.2,0-0.3,0-0.3-0.1c-0.1-0.1-0.1-0.2-0.1-0.4v-2.9H30V86c0,0.2,0,0.3-0.1,0.4c-0.1,0.1-0.2,0.1-0.4,0.1h-2
				c-0.2,0-0.3,0-0.4-0.1C27.1,86.3,27,86.2,27,86v-8.4c0-0.2,0-0.3,0.1-0.4c0.1-0.1,0.2-0.1,0.4-0.1h2c0.2,0,0.3,0,0.4,0.1
				C30,77.3,30,77.4,30,77.6z"/>
		</g>
		<g>
		</g>
	</g>
	<g id="XMLID_24_">
		<g>
			<path fill="#FFFFFF" d="M42.1,78.3c1,0,1.6,0.1,2,0.4c0.4,0.3,0.5,0.7,0.5,1.2v3.8c0,0.5-0.2,0.9-0.5,1.2c-0.3,0.3-1,0.4-2,0.4
				c-1,0-1.6-0.2-2-0.4c-0.3-0.3-0.5-0.7-0.5-1.2v-3.8c0-0.5,0.2-0.9,0.5-1.2C40.5,78.4,41.1,78.3,42.1,78.3z M43,84
				c0.1-0.1,0.2-0.3,0.2-0.4v-3.5c0-0.2-0.1-0.3-0.2-0.4c-0.1-0.1-0.4-0.2-0.9-0.2s-0.8,0.1-0.9,0.2c-0.1,0.1-0.2,0.2-0.2,0.4v3.5
				c0,0.2,0.1,0.3,0.2,0.4c0.1,0.1,0.4,0.2,0.9,0.2S42.9,84.1,43,84z"/>
			<path fill="#FFFFFF" d="M44.2,78.6c-0.4-0.3-1.1-0.5-2.1-0.5c-1,0-1.7,0.2-2.1,0.5c-0.4,0.3-0.5,0.8-0.5,1.3v3.8
				c0,0.5,0.2,0.9,0.5,1.3c0.4,0.3,1,0.5,2.1,0.5c1,0,1.7-0.2,2.1-0.5c0.4-0.3,0.5-0.8,0.5-1.3v-3.8C44.7,79.4,44.5,79,44.2,78.6z
				 M44.1,86.5c-0.5,0.1-1.2,0.2-2,0.2c-0.8,0-1.5-0.1-2-0.2c-0.5-0.1-0.9-0.3-1.2-0.5c-0.3-0.2-0.5-0.5-0.6-0.8
				c-0.1-0.3-0.2-0.7-0.2-1.1v-4.4c0-0.4,0.1-0.8,0.2-1.1c0.1-0.3,0.3-0.6,0.6-0.8c0.3-0.2,0.7-0.4,1.2-0.5c0.5-0.1,1.2-0.2,2-0.2
				c0.8,0,1.5,0.1,2,0.2c0.5,0.1,0.9,0.3,1.2,0.5c0.3,0.2,0.5,0.5,0.6,0.8c0.1,0.3,0.2,0.7,0.2,1.1V84c0,0.4-0.1,0.8-0.2,1.1
				c-0.1,0.3-0.3,0.6-0.6,0.8C45,86.2,44.6,86.4,44.1,86.5z"/>
		</g>
		<g>
		</g>
	</g>
	<g id="XMLID_23_">
		<g>
			<path fill="#FFFFFF" d="M50.6,85.2v-6.9h-0.1v7h4.8v-2.7h-0.1v2.6H50.6z M49.1,86v-8.4c0-0.2,0-0.3,0.1-0.4
				c0.1-0.1,0.2-0.1,0.4-0.1h2c0.2,0,0.3,0,0.3,0.1c0.1,0.1,0.1,0.2,0.1,0.4V84h1.8v-2.1c0-0.2,0-0.3,0.1-0.4
				c0.1-0.1,0.2-0.1,0.4-0.1h1.9c0.2,0,0.3,0,0.4,0.1c0.1,0.1,0.1,0.2,0.1,0.4V86c0,0.2,0,0.3-0.1,0.4c-0.1,0.1-0.2,0.1-0.4,0.1
				h-6.6c-0.2,0-0.3,0-0.4-0.1C49.1,86.3,49.1,86.2,49.1,86z"/>
		</g>
		<g>
		</g>
	</g>
	<g id="XMLID_22_">
		<g>
			<path fill="#FFFFFF" d="M62.9,79.7c0,0-0.1,0.1-0.1,0.2l-0.6,2h2l-0.6-2c0-0.1-0.1-0.1-0.1-0.2c0,0-0.1-0.1-0.1-0.1h-0.3
				C63,79.7,63,79.7,62.9,79.7z M61.8,79.2c0.1-0.2,0.2-0.4,0.3-0.5c0.1-0.2,0.3-0.2,0.5-0.2h1.3c0.2,0,0.4,0.1,0.5,0.2
				c0.1,0.2,0.2,0.3,0.3,0.6l0.9,2.1c0.1,0.2,0.1,0.4,0.2,0.6s0.1,0.4,0.1,0.7V83h-5.1v-0.4c0-0.2,0-0.5,0.1-0.7
				c0-0.2,0.1-0.4,0.2-0.6L61.8,79.2z"/>
			<path fill="#FFFFFF" d="M59.7,80.5l1.1-2.9c0-0.2,0.1-0.3,0.2-0.3s0.2-0.1,0.4-0.1H65c0.2,0,0.3,0,0.4,0.1s0.2,0.2,0.2,0.3
				l1.1,2.9c0.2,0.4,0.3,0.8,0.4,1.2c0.1,0.3,0.1,0.6,0.1,0.9V86c0,0.2,0,0.3-0.1,0.4c-0.1,0.1-0.2,0.1-0.4,0.1h-2
				c-0.2,0-0.3,0-0.4-0.1c-0.1-0.1-0.1-0.2-0.1-0.4v-1.8h-2.3V86c0,0.2,0,0.3-0.1,0.4s-0.2,0.1-0.4,0.1h-1.9c-0.2,0-0.3,0-0.4-0.1
				c-0.1-0.1-0.1-0.2-0.1-0.4v-3.4c0-0.3,0-0.6,0.1-0.9C59.4,81.4,59.6,81,59.7,80.5z M61.7,79.2l-0.8,2.1c-0.1,0.2-0.1,0.4-0.2,0.6
				c0,0.2-0.1,0.4-0.1,0.7v2.8h0.1v-2.2h5.1v2.2h0.1v-2.8c0-0.2,0-0.5-0.1-0.7c0-0.2-0.1-0.4-0.2-0.6l-0.9-2.1
				c-0.1-0.2-0.2-0.5-0.3-0.6c-0.1-0.2-0.3-0.2-0.6-0.2h-1.3c-0.3,0-0.5,0.1-0.6,0.2C61.9,78.7,61.8,78.9,61.7,79.2z"/>
		</g>
		<g>
		</g>
	</g>
	<g id="XMLID_21_">
		<g>
			<path fill="#FFFFFF" d="M71.8,78.4h2.8c0.5,0,0.8,0.1,1,0.4c0.2,0.2,0.3,0.6,0.3,1v0.9c0,0.5-0.1,0.8-0.3,1.1
				c-0.2,0.3-0.5,0.4-1.1,0.4h-2.8V78.4z M74.6,79.7c-0.1-0.1-0.2-0.2-0.5-0.2h-1v1.7h1c0.2,0,0.4-0.1,0.5-0.2
				c0.1-0.1,0.1-0.3,0.1-0.4v-0.4C74.7,79.9,74.7,79.8,74.6,79.7z"/>
			<path fill="#FFFFFF" d="M75.7,78.7c-0.2-0.3-0.6-0.4-1.1-0.4h-3v7h0.1v-3h3.7c0.5,0,0.9,0.1,1.1,0.3c0.2,0.2,0.3,0.5,0.3,1v1.7
				H77v-1.7c0-0.4-0.1-0.8-0.4-1c-0.3-0.2-0.7-0.3-1.2-0.3h-0.1c0.3-0.1,0.5-0.3,0.6-0.5c0.1-0.2,0.2-0.6,0.2-1v-0.9
				C76.1,79.4,76,79,75.7,78.7z M70.2,86v-8.4c0-0.2,0-0.3,0.1-0.4c0.1-0.1,0.2-0.1,0.4-0.1H75c1,0,1.6,0.2,2,0.6
				c0.4,0.4,0.6,0.9,0.6,1.6v0.6c0,0.4-0.1,0.7-0.2,0.9c-0.1,0.2-0.3,0.4-0.6,0.6c0.5,0,0.8,0.2,1.1,0.6c0.3,0.3,0.4,0.8,0.4,1.3V86
				c0,0.2,0,0.3-0.1,0.4s-0.2,0.1-0.4,0.1h-2c-0.2,0-0.3,0-0.4-0.1s-0.1-0.2-0.1-0.4v-2c0-0.2,0-0.3-0.1-0.4
				c-0.1-0.1-0.2-0.1-0.4-0.1h-1.8V86c0,0.2,0,0.3-0.1,0.4c-0.1,0.1-0.2,0.1-0.4,0.1h-2c-0.2,0-0.3,0-0.4-0.1
				C70.3,86.3,70.2,86.2,70.2,86z"/>
		</g>
		<g>
		</g>
	</g>
	<g id="XMLID_20_">
		<g>
			<path fill="#FFFFFF" d="M84.2,79.6c-0.1,0-0.2,0-0.3,0.1c-0.1,0.1-0.1,0.2-0.1,0.3c0,0.1,0,0.2,0.1,0.3c0.1,0.1,0.1,0.1,0.3,0.1
				l1.9,0.3c0.6,0.1,1.1,0.3,1.5,0.6c0.4,0.3,0.6,0.8,0.6,1.6v1.4c0,0.7-0.2,1.3-0.7,1.7c-0.5,0.4-1.1,0.6-2,0.6h-4.1
				c-0.2,0-0.3,0-0.4-0.1c-0.1-0.1-0.1-0.2-0.1-0.4v-1.5c0-0.2,0-0.3,0.1-0.4c0.1-0.1,0.2-0.1,0.4-0.1h3.5c0.1,0,0.2,0,0.2-0.1
				c0.1-0.1,0.1-0.2,0.1-0.3c0-0.2,0-0.3-0.1-0.3c-0.1-0.1-0.1-0.1-0.2-0.1L83,83c-0.6-0.1-1.1-0.3-1.5-0.6
				c-0.4-0.3-0.5-0.8-0.5-1.6v-1.4c0-0.7,0.2-1.3,0.7-1.7c0.5-0.4,1.1-0.6,2-0.6h3.6c0.2,0,0.3,0,0.4,0.1c0.1,0.1,0.1,0.2,0.1,0.4
				v1.5c0,0.2,0,0.3-0.1,0.4c-0.1,0.1-0.2,0.1-0.4,0.1H84.2z M85.9,82l-2.7-0.6c-0.2,0-0.4-0.1-0.5-0.2c-0.1-0.1-0.2-0.3-0.2-0.6
				v-1.1c0-0.3,0.1-0.6,0.3-0.8c0.2-0.2,0.5-0.3,0.9-0.3h2.9v-0.1h-2.9c-0.4,0-0.7,0.1-1,0.3c-0.2,0.2-0.4,0.5-0.4,0.8v1.1
				c0,0.3,0.1,0.6,0.2,0.7c0.2,0.1,0.3,0.2,0.6,0.3l2.7,0.6c0.2,0.1,0.4,0.2,0.6,0.3c0.1,0.2,0.2,0.4,0.2,0.8V84
				c0,0.3-0.1,0.6-0.4,0.8c-0.2,0.2-0.6,0.3-1,0.3h-3.2v0.1h3.2c0.4,0,0.8-0.1,1.1-0.4s0.4-0.6,0.4-0.9v-0.8c0-0.4-0.1-0.8-0.2-0.9
				C86.4,82.2,86.2,82,85.9,82z"/>
		</g>
		<g>
		</g>
	</g>
	<g id="XMLID_10_">
		<g>
			<path fill="#FFFFFF" d="M92.5,81.8v-3.4h-0.1v7h0.1v-3.4h5v3.4h0.1v-7h-0.1v3.4H92.5z M93.9,77.6v2.8h2.2v-2.8
				c0-0.2,0-0.3,0.1-0.4c0.1-0.1,0.2-0.1,0.4-0.1h2c0.2,0,0.3,0,0.4,0.1c0.1,0.1,0.1,0.2,0.1,0.4V86c0,0.2,0,0.3-0.1,0.4
				c-0.1,0.1-0.2,0.1-0.4,0.1h-2c-0.2,0-0.3,0-0.4-0.1s-0.1-0.2-0.1-0.4v-2.9h-2.2V86c0,0.2,0,0.3-0.1,0.4c-0.1,0.1-0.2,0.1-0.4,0.1
				h-2c-0.2,0-0.3,0-0.3-0.1c-0.1-0.1-0.1-0.2-0.1-0.4v-8.4c0-0.2,0-0.3,0.1-0.4c0.1-0.1,0.2-0.1,0.3-0.1h2c0.2,0,0.3,0,0.4,0.1
				C93.8,77.3,93.9,77.4,93.9,77.6z"/>
		</g>
		<g>
		</g>
	</g>
	<g id="XMLID_9_">
		<g>
			<path fill="#FFFFFF" d="M107.2,85.2h-2v-6.8h2v-0.1h-4.1v0.1h2v6.8h-2v0.1h4.1V85.2z M106.6,84h1.3c0.2,0,0.3,0,0.4,0.1
				c0.1,0.1,0.1,0.2,0.1,0.4V86c0,0.2,0,0.3-0.1,0.4c-0.1,0.1-0.2,0.1-0.4,0.1h-5.5c-0.2,0-0.3,0-0.3-0.1c-0.1-0.1-0.1-0.2-0.1-0.4
				v-1.5c0-0.2,0-0.3,0.1-0.4c0.1-0.1,0.2-0.1,0.3-0.1h1.3v-4.4h-1.3c-0.2,0-0.3,0-0.3-0.1c-0.1-0.1-0.1-0.2-0.1-0.4v-1.6
				c0-0.2,0-0.3,0.1-0.4c0.1-0.1,0.2-0.1,0.3-0.1h5.5c0.2,0,0.3,0,0.4,0.1c0.1,0.1,0.1,0.2,0.1,0.4v1.6c0,0.2,0,0.3-0.1,0.4
				c-0.1,0.1-0.2,0.1-0.4,0.1h-1.3V84z"/>
		</g>
		<g>
		</g>
	</g>
	<g id="XMLID_8_">
		<g>
			<path fill="#FFFFFF" d="M117,82.2c-0.1,0.1-0.3,0.2-0.5,0.3c-0.2,0.1-0.6,0.1-0.9,0.1h-2.7v-4.2h2.7c0.4,0,0.7,0,0.9,0.1
				c0.2,0.1,0.4,0.2,0.5,0.3s0.2,0.3,0.3,0.5c0,0.2,0.1,0.4,0.1,0.7v1c0,0.2,0,0.5-0.1,0.6C117.2,81.9,117.1,82.1,117,82.2z
				 M115.9,81.3c0.1-0.1,0.1-0.3,0.1-0.4v-0.7c0-0.2,0-0.3-0.1-0.4c-0.1-0.1-0.2-0.2-0.5-0.2h-1.2v2h1.2
				C115.6,81.5,115.8,81.5,115.9,81.3z"/>
			<path fill="#FFFFFF" d="M111.7,77.1h4c1.2,0,2,0.2,2.4,0.7s0.7,1.1,0.7,1.8v1.7c0,0.8-0.2,1.4-0.7,1.8s-1.2,0.7-2.4,0.7h-1.5V86
				c0,0.2,0,0.3-0.1,0.4s-0.2,0.1-0.4,0.1h-2c-0.2,0-0.3,0-0.4-0.1c-0.1-0.1-0.1-0.2-0.1-0.4v-8.4c0-0.2,0-0.3,0.1-0.4
				C111.4,77.2,111.6,77.1,111.7,77.1z M117.1,78.8c-0.1-0.2-0.3-0.3-0.6-0.4c-0.3-0.1-0.6-0.1-1-0.1h-2.8v7h0.1v-2.6h2.7
				c0.4,0,0.7,0,1-0.1c0.2-0.1,0.4-0.2,0.6-0.4c0.1-0.2,0.2-0.3,0.3-0.5c0.1-0.2,0.1-0.5,0.1-0.7v-1c0-0.2,0-0.5-0.1-0.7
				C117.3,79.2,117.3,79,117.1,78.8z"/>
		</g>
		<g>
		</g>
	</g>
	<g id="XMLID_19_">
		<g>
			<path fill="#FFFFFF" d="M22.2,98.9v0.8c0,0.3-0.1,0.6-0.4,0.8c-0.2,0.2-0.6,0.3-1,0.3h-3.2v0.1h3.2c0.4,0,0.8-0.1,1-0.4
				s0.4-0.6,0.4-0.9v-0.8c0-0.4-0.1-0.8-0.2-0.9c-0.2-0.2-0.4-0.3-0.7-0.3L18.7,97c-0.2,0-0.4-0.1-0.5-0.2c-0.1-0.1-0.2-0.3-0.2-0.6
				v-1.1c0-0.3,0.1-0.6,0.3-0.8c0.2-0.2,0.5-0.3,0.9-0.3h2.9v-0.1h-2.9c-0.4,0-0.7,0.1-1,0.3c-0.2,0.2-0.4,0.5-0.4,0.8v1.1
				c0,0.3,0.1,0.6,0.2,0.7c0.1,0.1,0.3,0.2,0.6,0.3l2.8,0.6c0.2,0.1,0.4,0.2,0.6,0.3C22.1,98.2,22.2,98.5,22.2,98.9z M23.7,98.5v1.4
				c0,0.7-0.2,1.3-0.7,1.7c-0.5,0.4-1.1,0.6-2,0.6h-4.1c-0.2,0-0.3,0-0.4-0.1c-0.1-0.1-0.1-0.2-0.1-0.4v-1.5c0-0.2,0-0.3,0.1-0.4
				c0.1-0.1,0.2-0.1,0.4-0.1h3.5c0.1,0,0.2,0,0.3-0.1c0.1-0.1,0.1-0.2,0.1-0.3c0-0.2,0-0.3-0.1-0.3c-0.1-0.1-0.1-0.1-0.3-0.1
				l-1.9-0.3c-0.6-0.1-1.1-0.3-1.5-0.6c-0.4-0.3-0.5-0.8-0.5-1.6V95c0-0.7,0.2-1.3,0.7-1.7c0.5-0.4,1.1-0.6,2-0.6h3.6
				c0.2,0,0.3,0,0.4,0.1c0.1,0.1,0.1,0.2,0.1,0.4v1.5c0,0.2,0,0.3-0.1,0.3c-0.1,0.1-0.2,0.1-0.4,0.1h-3c-0.1,0-0.2,0-0.3,0.1
				c-0.1,0.1-0.1,0.2-0.1,0.3c0,0.1,0,0.2,0.1,0.3c0.1,0.1,0.2,0.1,0.3,0.1l1.9,0.3c0.6,0.1,1.1,0.3,1.5,0.6
				C23.6,97.2,23.7,97.7,23.7,98.5z"/>
		</g>
		<g>
		</g>
	</g>
	<g id="XMLID_18_">
		<g>
			<path fill="#FFFFFF" d="M30.6,98.5c-0.1,0.1-0.3,0.1-0.5,0.1h-0.3c-0.2,0-0.3,0-0.4-0.1c-0.1-0.1-0.3-0.2-0.4-0.4l-1.3-1.8
				c-0.1-0.1-0.1-0.3-0.2-0.4c0-0.2,0-0.3,0-0.5v-1.5h-0.1v1.5c0,0.2,0,0.4,0,0.5s0.1,0.3,0.2,0.5l1.3,1.8c0.1,0.2,0.3,0.3,0.4,0.4
				c0.1,0.1,0.3,0.1,0.5,0.1H30v2.2h0.1v-2.2h0.1c0.2,0,0.4-0.1,0.5-0.1c0.1-0.1,0.3-0.2,0.4-0.4l1.3-1.8c0.1-0.1,0.2-0.3,0.2-0.5
				c0-0.2,0-0.3,0-0.5v-1.5h-0.1v1.5c0,0.2,0,0.3,0,0.5c0,0.2-0.1,0.3-0.2,0.4L31,98.1C30.9,98.3,30.8,98.4,30.6,98.5z M26.5,97.3
				c-0.2-0.3-0.3-0.5-0.4-0.7C26,96.4,26,96.1,26,95.7v-2.5c0-0.2,0-0.3,0.1-0.4s0.2-0.1,0.4-0.1h2c0.2,0,0.3,0,0.4,0.1
				c0.1,0.1,0.1,0.2,0.1,0.4v2.1c0,0.1,0,0.2,0,0.3c0,0.1,0,0.2,0.1,0.3l0.6,0.9c0,0.1,0.1,0.1,0.1,0.2c0,0,0.1,0,0.2,0h0.1
				c0.1,0,0.1,0,0.2,0c0.1,0,0.1-0.1,0.1-0.2l0.6-0.9c0.1-0.1,0.1-0.2,0.1-0.3c0-0.1,0-0.2,0-0.3v-2.1c0-0.2,0-0.3,0.1-0.4
				c0.1-0.1,0.2-0.1,0.4-0.1h1.9c0.2,0,0.3,0,0.4,0.1C34,92.9,34,93,34,93.2v2.5c0,0.4,0,0.7-0.1,0.9c-0.1,0.2-0.2,0.4-0.4,0.7
				l-2,2.7v1.7c0,0.2,0,0.3-0.1,0.4c-0.1,0.1-0.2,0.1-0.4,0.1H29c-0.2,0-0.3,0-0.4-0.1c-0.1-0.1-0.1-0.2-0.1-0.4V100L26.5,97.3z"/>
		</g>
		<g>
		</g>
	</g>
	<g id="XMLID_17_">
		<g>
			<path fill="#FFFFFF" d="M37.3,92.7h2.1c0.1,0,0.2,0,0.3,0.1c0.1,0.1,0.2,0.2,0.3,0.3l1.2,2.1c0,0.1,0.1,0.1,0.1,0.2
				c0,0,0.1,0,0.1,0h0.1c0,0,0.1,0,0.1,0c0,0,0.1-0.1,0.1-0.2l1.2-2.1c0.1-0.1,0.2-0.2,0.2-0.3c0.1-0.1,0.2-0.1,0.4-0.1h2.1
				c0.2,0,0.3,0,0.4,0.1S46,93,46,93.2v8.4c0,0.2,0,0.3-0.1,0.4s-0.2,0.1-0.4,0.1h-2c-0.2,0-0.3,0-0.4-0.1c-0.1-0.1-0.1-0.2-0.1-0.4
				v-4.6l-0.8,1.4c-0.1,0.2-0.2,0.3-0.3,0.3c-0.1,0.1-0.2,0.1-0.4,0.1h-0.5c-0.2,0-0.3,0-0.4-0.1c-0.1-0.1-0.2-0.2-0.3-0.3l-0.8-1.4
				v4.6c0,0.2,0,0.3-0.1,0.4c-0.1,0.1-0.2,0.1-0.4,0.1h-1.9c-0.2,0-0.3,0-0.4-0.1c-0.1-0.1-0.1-0.2-0.1-0.4v-8.4
				c0-0.2,0-0.3,0.1-0.4C37,92.8,37.1,92.7,37.3,92.7z M40.7,96.6l-1.6-2.4c0-0.1-0.1-0.1-0.2-0.2c-0.1,0-0.1-0.1-0.2-0.1h-0.2
				c-0.1,0-0.2,0-0.2,0.1c-0.1,0.1-0.1,0.2-0.1,0.3v6.6h0.1v-6.6c0-0.1,0-0.1,0-0.2c0,0,0.1-0.1,0.2-0.1h0.2c0.1,0,0.1,0,0.2,0
				c0,0,0.1,0.1,0.2,0.1L40.7,96.6c0,0.3,0.2,0.5,0.2,0.6c0.1,0.1,0.2,0.1,0.4,0.1s0.3-0.1,0.4-0.1c0.1-0.1,0.2-0.2,0.4-0.5l1.6-2.4
				c0-0.1,0.1-0.1,0.1-0.1c0,0,0.1,0,0.2,0h0.2c0.1,0,0.1,0,0.2,0.1c0,0.1,0,0.1,0,0.2v6.6h0.1v-6.6c0-0.1,0-0.2-0.1-0.3
				c-0.1-0.1-0.1-0.1-0.3-0.1H44c-0.1,0-0.1,0-0.2,0.1c-0.1,0-0.1,0.1-0.2,0.2L42,96.6c-0.2,0.2-0.3,0.4-0.3,0.4s-0.2,0.1-0.3,0.1
				c-0.1,0-0.3,0-0.3-0.1C41,96.9,40.9,96.8,40.7,96.6z"/>
		</g>
		<g>
		</g>
	</g>
	<g id="XMLID_16_">
		<g>
			<path fill="#FFFFFF" d="M53.2,97.1c0.2,0,0.4-0.1,0.5-0.2c0.1-0.1,0.1-0.3,0.1-0.4v-0.7c0-0.2,0-0.3-0.1-0.4
				c-0.1-0.1-0.2-0.2-0.5-0.2h-1.2v2H53.2z M54.3,98.1c-0.2,0.1-0.5,0.1-0.9,0.1h-2.7V94h2.7c0.4,0,0.7,0,0.9,0.1
				c0.2,0.1,0.4,0.2,0.6,0.3c0.1,0.2,0.2,0.3,0.3,0.5c0,0.2,0.1,0.4,0.1,0.6v1c0,0.2,0,0.4-0.1,0.6c0,0.2-0.1,0.4-0.3,0.5
				C54.7,97.9,54.6,98,54.3,98.1z"/>
			<path fill="#FFFFFF" d="M53.6,99.5h-1.5v2.2c0,0.2,0,0.3-0.1,0.4c-0.1,0.1-0.2,0.1-0.4,0.1h-2c-0.2,0-0.3,0-0.4-0.1
				c-0.1-0.1-0.1-0.2-0.1-0.4v-8.4c0-0.2,0-0.3,0.1-0.4c0.1-0.1,0.2-0.1,0.4-0.1h4c1.2,0,2,0.2,2.4,0.7s0.6,1.1,0.6,1.8v1.7
				c0,0.8-0.2,1.4-0.6,1.8S54.8,99.5,53.6,99.5z M53.4,98.4c0.4,0,0.7,0,1-0.1c0.3-0.1,0.5-0.2,0.6-0.4c0.1-0.2,0.2-0.3,0.3-0.5
				c0-0.2,0.1-0.4,0.1-0.7v-1c0-0.2,0-0.5-0.1-0.7c0-0.2-0.2-0.4-0.3-0.6c-0.1-0.2-0.3-0.3-0.6-0.4c-0.2-0.1-0.6-0.1-1-0.1h-2.8v7
				h0.1v-2.6H53.4z"/>
		</g>
		<g>
		</g>
	</g>
	<g id="XMLID_15_">
		<g>
			<path fill="#FFFFFF" d="M62.1,99.2c0,0.2,0.1,0.3,0.2,0.4c0.1,0.1,0.4,0.2,0.9,0.2c0.5,0,0.8-0.1,0.9-0.2
				c0.1-0.1,0.2-0.3,0.2-0.4v-3.5c0-0.2-0.1-0.3-0.2-0.4c-0.1-0.1-0.4-0.2-0.9-0.2c-0.5,0-0.8,0.1-0.9,0.2c-0.1,0.1-0.2,0.2-0.2,0.4
				V99.2z M60.7,95.5c0-0.5,0.2-0.9,0.5-1.2c0.3-0.3,1-0.4,2-0.4c1,0,1.6,0.2,2,0.4c0.4,0.3,0.5,0.7,0.5,1.2v3.8
				c0,0.5-0.2,0.9-0.5,1.2c-0.3,0.3-1,0.4-2,0.4c-1,0-1.6-0.1-2-0.4s-0.5-0.7-0.5-1.2V95.5z"/>
			<path fill="#FFFFFF" d="M63.2,102.3c-0.8,0-1.5-0.1-2-0.2c-0.5-0.1-0.9-0.3-1.2-0.5c-0.3-0.2-0.5-0.5-0.6-0.8
				c-0.1-0.3-0.2-0.7-0.2-1.1v-4.4c0-0.4,0.1-0.8,0.2-1.1c0.1-0.3,0.3-0.6,0.6-0.8c0.3-0.2,0.7-0.4,1.2-0.5c0.5-0.1,1.2-0.2,2-0.2
				c0.8,0,1.5,0.1,2,0.2c0.5,0.1,0.9,0.3,1.2,0.5c0.3,0.2,0.5,0.5,0.6,0.8c0.1,0.3,0.2,0.7,0.2,1.1v4.4c0,0.4-0.1,0.8-0.2,1.1
				c-0.1,0.3-0.3,0.6-0.6,0.8c-0.3,0.2-0.7,0.4-1.2,0.5C64.7,102.2,64,102.3,63.2,102.3z M61.1,94.2c-0.4,0.3-0.6,0.8-0.6,1.3v3.8
				c0,0.5,0.2,0.9,0.6,1.3c0.4,0.3,1,0.5,2.1,0.5c1,0,1.7-0.2,2.1-0.5c0.4-0.3,0.6-0.8,0.6-1.3v-3.8c0-0.5-0.2-0.9-0.6-1.3
				c-0.4-0.3-1.1-0.5-2.1-0.5C62.2,93.8,61.5,93.9,61.1,94.2z"/>
		</g>
		<g>
		</g>
	</g>
	<g id="XMLID_14_">
		<g>
			<path fill="#FFFFFF" d="M74.3,100.9c0.4,0,0.8-0.1,1.1-0.4s0.4-0.6,0.4-0.9v-0.8c0-0.4-0.1-0.8-0.3-0.9c-0.2-0.2-0.4-0.3-0.6-0.3
				L72.2,97c-0.2,0-0.4-0.1-0.5-0.2c-0.1-0.1-0.2-0.3-0.2-0.6v-1.1c0-0.3,0.1-0.6,0.3-0.8c0.2-0.2,0.5-0.3,0.9-0.3h2.9v-0.1h-2.9
				c-0.4,0-0.7,0.1-1,0.3s-0.4,0.5-0.4,0.8v1.1c0,0.3,0.1,0.6,0.2,0.7c0.1,0.1,0.3,0.2,0.6,0.3l2.7,0.6c0.2,0.1,0.4,0.2,0.6,0.3
				c0.2,0.2,0.2,0.4,0.2,0.8v0.8c0,0.3-0.1,0.6-0.4,0.8c-0.2,0.2-0.6,0.3-1,0.3h-3.2v0.1H74.3z M74.5,102.1h-4.1
				c-0.2,0-0.3,0-0.4-0.1c-0.1-0.1-0.1-0.2-0.1-0.4v-1.5c0-0.2,0-0.3,0.1-0.4c0.1-0.1,0.2-0.1,0.4-0.1h3.5c0.1,0,0.2,0,0.3-0.1
				c0-0.1,0.1-0.2,0.1-0.3c0-0.2,0-0.3-0.1-0.3c-0.1-0.1-0.2-0.1-0.3-0.1L72,98.6c-0.6-0.1-1.1-0.3-1.5-0.6
				c-0.4-0.3-0.5-0.8-0.5-1.6V95c0-0.7,0.2-1.3,0.7-1.7c0.5-0.4,1.1-0.6,2-0.6h3.6c0.2,0,0.3,0,0.4,0.1c0.1,0.1,0.1,0.2,0.1,0.4v1.5
				c0,0.2,0,0.3-0.1,0.3c-0.1,0.1-0.2,0.1-0.4,0.1h-3c-0.1,0-0.2,0-0.3,0.1c-0.1,0.1-0.1,0.2-0.1,0.3c0,0.1,0,0.2,0.1,0.3
				C73,96,73.1,96,73.2,96l1.9,0.3c0.6,0.1,1.1,0.3,1.5,0.6c0.4,0.3,0.6,0.8,0.6,1.6v1.4c0,0.7-0.2,1.3-0.7,1.7
				C76,101.9,75.4,102.1,74.5,102.1z"/>
		</g>
		<g>
		</g>
	</g>
	<g id="XMLID_13_">
		<g>
			<path fill="#FFFFFF" d="M85,100.8h-2V94h2v-0.1h-4.1V94h2v6.8h-2v0.1H85V100.8z M85.7,99.6c0.2,0,0.3,0,0.4,0.1
				c0.1,0.1,0.1,0.2,0.1,0.4v1.5c0,0.2,0,0.3-0.1,0.4c-0.1,0.1-0.2,0.1-0.4,0.1h-5.5c-0.2,0-0.3,0-0.4-0.1c-0.1-0.1-0.1-0.2-0.1-0.4
				v-1.5c0-0.2,0-0.3,0.1-0.4c0.1-0.1,0.2-0.1,0.4-0.1h1.3v-4.4h-1.3c-0.2,0-0.3,0-0.4-0.1c-0.1-0.1-0.1-0.2-0.1-0.4v-1.6
				c0-0.2,0-0.3,0.1-0.4c0.1-0.1,0.2-0.1,0.4-0.1h5.5c0.2,0,0.3,0,0.4,0.1c0.1,0.1,0.1,0.2,0.1,0.4v1.6c0,0.2,0,0.3-0.1,0.4
				c-0.1,0.1-0.2,0.1-0.4,0.1h-1.3v4.4H85.7z"/>
		</g>
		<g>
		</g>
	</g>
	<g id="XMLID_12_">
		<g>
			<path fill="#FFFFFF" d="M95.1,100.6c0.4-0.3,0.5-0.8,0.5-1.3v-5.4h-0.1v5.4c0,0.5-0.2,0.9-0.5,1.2c-0.3,0.3-1,0.5-2,0.5
				s-1.6-0.2-2-0.5c-0.3-0.3-0.5-0.7-0.5-1.2v-5.4h-0.1v5.4c0,0.5,0.2,0.9,0.5,1.3c0.4,0.3,1.1,0.5,2.1,0.5
				C94.1,101.1,94.8,100.9,95.1,100.6z M94.6,92.7h2c0.2,0,0.3,0,0.3,0.1c0.1,0.1,0.1,0.2,0.1,0.4v6.4c0,0.4-0.1,0.8-0.2,1.1
				c-0.1,0.3-0.3,0.6-0.6,0.8c-0.3,0.2-0.7,0.4-1.2,0.5c-0.5,0.1-1.2,0.2-2,0.2c-0.8,0-1.5-0.1-2-0.2c-0.5-0.1-0.9-0.3-1.2-0.5
				c-0.3-0.2-0.5-0.5-0.6-0.8c-0.1-0.3-0.2-0.7-0.2-1.1v-6.4c0-0.2,0-0.3,0.1-0.4c0.1-0.1,0.2-0.1,0.4-0.1h2c0.2,0,0.3,0,0.4,0.1
				C92,92.9,92,93,92,93.2v5.9c0,0.2,0.1,0.3,0.2,0.4c0.1,0.1,0.4,0.2,0.9,0.2c0.5,0,0.8-0.1,0.9-0.2c0.1-0.1,0.2-0.3,0.2-0.4v-5.9
				c0-0.2,0-0.3,0.1-0.4C94.3,92.8,94.5,92.7,94.6,92.7z"/>
		</g>
		<g>
		</g>
	</g>
	<g id="XMLID_11_">
		<g>
			<path fill="#FFFFFF" d="M104.3,97.1c0.1,0.1,0.2,0.1,0.4,0.1c0.2,0,0.3-0.1,0.4-0.1c0.1-0.1,0.2-0.2,0.4-0.5l1.6-2.4
				c0.1-0.1,0.1-0.1,0.2-0.1c0,0,0.1,0,0.1,0h0.2c0.1,0,0.1,0,0.2,0.1c0,0.1,0.1,0.1,0.1,0.2v6.6h0.1v-6.6c0-0.1,0-0.2-0.1-0.3
				c-0.1-0.1-0.1-0.1-0.3-0.1h-0.2c-0.1,0-0.1,0-0.2,0.1c-0.1,0-0.1,0.1-0.2,0.2l-1.6,2.4c-0.1,0.2-0.2,0.4-0.3,0.4
				s-0.2,0.1-0.3,0.1c-0.2,0-0.3,0-0.3-0.1s-0.2-0.2-0.3-0.4l-1.6-2.4c-0.1-0.1-0.1-0.1-0.2-0.2c-0.1,0-0.1-0.1-0.2-0.1h-0.2
				c-0.1,0-0.2,0-0.2,0.1c-0.1,0.1-0.1,0.2-0.1,0.3v6.6h0.1v-6.6c0-0.1,0-0.1,0-0.2c0,0,0.1-0.1,0.2-0.1h0.2c0.1,0,0.1,0,0.2,0
				c0,0,0.1,0.1,0.1,0.1l1.6,2.4C104.1,96.9,104.2,97,104.3,97.1z M100.2,92.9c0.1-0.1,0.2-0.1,0.4-0.1h2.1c0.1,0,0.2,0,0.3,0.1
				c0.1,0.1,0.2,0.2,0.2,0.3l1.2,2.1c0,0.1,0.1,0.1,0.1,0.2c0,0,0.1,0,0.1,0h0.1c0.1,0,0.1,0,0.1,0c0,0,0.1-0.1,0.1-0.2l1.2-2.1
				c0.1-0.1,0.2-0.2,0.2-0.3c0.1-0.1,0.2-0.1,0.3-0.1h2.1c0.2,0,0.3,0,0.4,0.1c0.1,0.1,0.1,0.2,0.1,0.4v8.4c0,0.2,0,0.3-0.1,0.4
				c-0.1,0.1-0.2,0.1-0.4,0.1h-2c-0.2,0-0.3,0-0.4-0.1s-0.1-0.2-0.1-0.4v-4.6l-0.8,1.4c-0.1,0.2-0.2,0.3-0.3,0.3
				c-0.1,0.1-0.2,0.1-0.4,0.1h-0.5c-0.2,0-0.3,0-0.4-0.1c-0.1-0.1-0.2-0.2-0.3-0.3l-0.8-1.4v4.6c0,0.2,0,0.3-0.1,0.4
				c-0.1,0.1-0.2,0.1-0.4,0.1h-1.9c-0.2,0-0.3,0-0.4-0.1c-0.1-0.1-0.1-0.2-0.1-0.4v-8.4C100.1,93,100.1,92.9,100.2,92.9z"/>
		</g>
		<g>
		</g>
	</g>
</g>
</svg>
