<svg width="2109" height="411" viewBox="0 0 2109 411" fill="none" xmlns="http://www.w3.org/2000/svg">
<path d="M0 401.685C0 404.766 2.50436 407.264 5.59365 407.264H138.12C141.21 407.264 143.714 404.766 143.714 401.685V11.1832C143.714 8.10218 141.21 5.60455 138.12 5.60455H5.59365C2.50436 5.60455 0 8.10218 0 11.1832V401.685Z" fill="#528486"/>
<path d="M364.076 95.9961C364.076 149.013 321.18 191.992 268.266 191.992C215.352 191.992 172.457 149.013 172.457 95.9961C172.457 42.9789 215.352 0 268.266 0C321.18 0 364.076 42.9789 364.076 95.9961Z" fill="#528486"/>
<path d="M364.076 315.004C364.076 368.021 321.18 411 268.266 411C215.352 411 172.457 368.021 172.457 315.004C172.457 261.987 215.352 219.008 268.266 219.008C321.18 219.008 364.076 261.987 364.076 315.004Z" fill="#528486"/>
<path d="M622.761 95.9961C622.761 149.013 579.866 191.992 526.951 191.992C474.037 191.992 431.142 149.013 431.142 95.9961C431.142 42.9789 474.037 0 526.951 0C579.866 0 622.761 42.9789 622.761 95.9961Z" fill="#528486"/>
<path d="M622.276 315.004C622.276 368.021 579.381 411 526.467 411C473.553 411 430.657 368.021 430.657 315.004C430.657 261.987 473.553 219.008 526.467 219.008C579.381 219.008 622.276 261.987 622.276 315.004Z" fill="#528486"/>
<path d="M843.122 95.9961C843.122 149.013 800.227 191.992 747.313 191.992C694.399 191.992 651.503 149.013 651.503 95.9961C651.503 42.9789 694.399 0 747.313 0C800.227 0 843.122 42.9789 843.122 95.9961Z" fill="#528486"/>
<path d="M844.211 315.004C844.211 368.021 801.315 411 748.401 411C695.487 411 652.592 368.021 652.592 315.004C652.592 261.987 695.487 219.008 748.401 219.008C801.315 219.008 844.211 261.987 844.211 315.004Z" fill="#528486"/>
<path d="M986.609 95.9961H950.374V197.653H967.568V159.496H986.609C1007.5 159.496 1022.56 145.686 1022.56 127.319C1022.56 109.38 1008.63 95.9961 986.609 95.9961ZM985.188 145.116H967.568V110.376H985.188C997.977 110.376 1005.37 116.071 1005.37 127.461C1005.37 138.852 997.977 145.116 985.188 145.116Z" fill="#528486"/>
<path d="M1071.96 139.136V122.621C1060.3 123.19 1053.2 129.739 1050.36 139.706H1050.07V124.044H1033.87V197.653H1050.36V162.771C1050.36 148.248 1058.03 139.279 1071.96 139.136Z" fill="#528486"/>
<path d="M1114.6 199.646C1136.34 199.646 1152.4 183.985 1152.4 160.92C1152.4 137.855 1136.34 122.051 1114.6 122.051C1092.86 122.051 1076.8 137.855 1076.8 160.92C1076.8 183.985 1092.86 199.646 1114.6 199.646ZM1114.6 186.263C1102.38 186.263 1093.28 175.727 1093.28 160.92C1093.28 145.97 1102.52 135.577 1114.6 135.577C1126.82 135.577 1135.91 145.97 1135.91 160.92C1135.91 175.727 1126.82 186.263 1114.6 186.263Z" fill="#528486"/>
<path d="M1219 124.044V137.001H1218.86C1215.45 128.743 1206.78 122.051 1194.84 122.051C1174.66 122.051 1161.45 137.001 1161.45 159.639C1161.45 182.277 1174.66 197.084 1194.84 197.084C1206.78 197.084 1215.45 190.819 1218.86 182.561H1219V192.385C1219 206.196 1211.89 212.318 1200.38 212.318C1190.01 212.318 1183.05 208.901 1181.48 199.931H1165.28C1167.13 215.023 1180.77 225.274 1200.52 225.274C1219.57 225.274 1235.91 214.596 1235.91 190.534V124.044H1219ZM1178.64 159.639C1178.64 146.113 1186.17 135.577 1199.25 135.577C1212.32 135.577 1219.85 146.54 1219.85 160.066C1219.85 172.737 1213.74 183.558 1199.25 183.558C1186.03 183.558 1178.64 173.164 1178.64 159.639Z" fill="#528486"/>
<path d="M1291.07 139.136V122.621C1279.42 123.19 1272.32 129.739 1269.47 139.706H1269.19V124.044H1252.99V197.653H1269.47V162.771C1269.47 148.248 1277.15 139.279 1291.07 139.136Z" fill="#528486"/>
<path d="M1361 180.71V152.377C1361 136.574 1354.75 121.909 1330.31 121.909C1310.7 121.909 1301.18 134.438 1300.47 146.54H1316.53C1316.95 139.136 1322.64 134.723 1330.59 134.723C1339.55 134.723 1344.8 138.709 1344.8 144.831C1344.8 150.954 1340.83 152.377 1331.16 153.944C1320.65 155.652 1295.64 156.222 1295.64 177.578C1295.64 189.253 1305.02 199.504 1321.5 199.504C1335.57 199.504 1342.25 192.385 1344.8 185.694H1344.95V187.829C1344.95 191.246 1345.09 194.663 1345.66 197.653H1362.42C1361.29 193.809 1361 186.263 1361 180.71ZM1345.23 163.768C1345.23 180.141 1335.71 187.402 1325.62 187.402C1317.09 187.402 1311.98 183.131 1311.98 177.293C1311.98 170.744 1317.24 167.896 1327.33 166.046C1339.4 163.91 1343.53 160.493 1345.23 156.079V163.768Z" fill="#528486"/>
<path d="M1458.31 122.051C1447.79 122.051 1439.41 129.312 1437.28 137.713C1434.72 127.746 1426.62 122.051 1415.39 122.051C1404.03 122.051 1396.64 128.6 1394.36 138.994H1394.22V124.044H1378.02V197.653H1394.22V159.781C1394.22 145.401 1398.48 135.577 1409.57 135.577C1419.8 135.577 1423.07 143.408 1423.07 154.513V197.653H1438.98V159.781C1438.98 142.126 1445.09 135.577 1454.04 135.577C1463.85 135.577 1467.69 142.126 1467.69 154.513V197.653H1483.74V148.533C1483.74 131.875 1474.93 122.051 1458.31 122.051Z" fill="#528486"/>
<path d="M1539.65 146.113H1555.28C1553.57 130.167 1541.63 122.051 1525.72 122.051C1510.66 122.051 1497.58 131.021 1497.58 144.404C1497.58 157.788 1509.38 163.34 1521.17 166.046C1532.97 168.893 1540.21 170.032 1540.21 177.293C1540.21 184.127 1533.68 186.975 1526.71 186.975C1518.19 186.975 1513.21 183.273 1511.79 175.158H1495.45C1497.16 192.812 1511.37 199.646 1526.43 199.646C1542.63 199.646 1556.7 191.104 1556.7 176.439C1556.7 164.622 1547.32 158.5 1534.39 155.652C1522.02 152.804 1513.5 150.811 1513.5 143.692C1513.5 138.424 1519.04 134.58 1525.44 134.58C1532.11 134.58 1538.51 137.997 1539.65 146.113Z" fill="#528486"/>
<path d="M1615.99 112.512V96.2809H1598.8V112.512H1615.99ZM1599.22 197.653H1615.56V124.044H1599.22V197.653Z" fill="#528486"/>
<path d="M1671.03 122.051C1658.81 122.051 1651.7 129.455 1649.14 138.14V124.044H1632.8V197.653H1649.29V160.35C1649.29 142.269 1656.82 135.577 1666.91 135.577C1677.28 135.577 1681.12 143.123 1681.12 155.083V197.653H1697.46V151.665C1697.46 134.723 1690.07 122.051 1671.03 122.051Z" fill="#528486"/>
<path d="M981.493 279.052H950.374V380.709H982.062C1015.88 380.709 1034.92 359.353 1034.92 328.457C1034.92 298.131 1015.88 279.052 981.493 279.052ZM982.204 366.187H967.568V293.575H981.92C1002.67 293.575 1017.59 304.68 1017.59 328.457C1017.59 353.515 1002.67 366.187 982.204 366.187Z" fill="#528486"/>
<path d="M1065.49 295.568V279.337H1048.3V295.568H1065.49ZM1048.72 380.709H1065.07V307.1H1048.72V380.709Z" fill="#528486"/>
<path d="M1135.88 307.1V320.057H1135.73C1132.32 311.799 1123.65 305.107 1111.72 305.107C1091.54 305.107 1078.32 320.057 1078.32 342.695C1078.32 365.333 1091.54 380.14 1111.72 380.14C1123.65 380.14 1132.32 373.875 1135.73 365.617H1135.88V375.441C1135.88 389.252 1128.77 395.374 1117.26 395.374C1106.89 395.374 1099.92 391.957 1098.36 382.987H1082.16C1084.01 398.079 1097.65 408.33 1117.4 408.33C1136.44 408.33 1152.78 397.652 1152.78 373.59V307.1H1135.88ZM1095.52 342.695C1095.52 329.169 1103.05 318.633 1116.12 318.633C1129.2 318.633 1136.73 329.596 1136.73 343.122C1136.73 355.793 1130.62 366.614 1116.12 366.614C1102.91 366.614 1095.52 356.22 1095.52 342.695Z" fill="#528486"/>
<path d="M1186.78 295.568V279.337H1169.58V295.568H1186.78ZM1170.01 380.709H1186.35V307.1H1170.01V380.709Z" fill="#528486"/>
<path d="M1239.11 319.914V307.1H1224.75V282.612H1224.19L1208.41 290.585V307.1H1197.04V319.914H1208.41V357.359C1208.41 370.316 1213.67 380.709 1229.73 380.709H1237.54V368.038H1233.14C1226.89 368.038 1224.75 362.77 1224.75 355.366V319.914H1239.11Z" fill="#528486"/>
<path d="M1312.71 363.766V335.433C1312.71 319.63 1306.46 304.965 1282.02 304.965C1262.41 304.965 1252.89 317.494 1252.18 329.596H1268.23C1268.66 322.192 1274.34 317.779 1282.3 317.779C1291.25 317.779 1296.51 321.765 1296.51 327.887C1296.51 334.01 1292.53 335.433 1282.87 337C1272.36 338.708 1247.35 339.278 1247.35 360.634C1247.35 372.309 1256.72 382.56 1273.21 382.56C1287.28 382.56 1293.95 375.441 1296.51 368.75H1296.65V370.885C1296.65 374.302 1296.8 377.719 1297.36 380.709H1314.13C1313 376.865 1312.71 369.319 1312.71 363.766ZM1296.94 346.824C1296.94 363.197 1287.42 370.458 1277.33 370.458C1268.8 370.458 1263.69 366.187 1263.69 360.349C1263.69 353.8 1268.95 350.952 1279.03 349.102C1291.11 346.966 1295.23 343.549 1296.94 339.135V346.824Z" fill="#528486"/>
<path d="M1329.74 279.052V380.709H1346.23V279.052H1329.74Z" fill="#528486"/>
<path d="M1457.36 279.052V322.477H1412.6V279.052H1395.41V380.709H1412.6V337H1457.36V380.709H1474.56V279.052H1457.36Z" fill="#528486"/>
<path d="M1540.8 307.1V344.403C1540.8 362.485 1533.13 369.177 1523.04 369.177C1512.66 369.177 1508.97 361.631 1508.97 349.671V307.1H1492.49V353.088C1492.49 370.031 1499.88 382.703 1519.06 382.703C1531.14 382.703 1538.24 375.299 1540.8 366.614V380.709H1557.14V307.1H1540.8Z" fill="#528486"/>
<path d="M1654.53 305.107C1644.01 305.107 1635.63 312.368 1633.5 320.769C1630.94 310.802 1622.84 305.107 1611.61 305.107C1600.25 305.107 1592.86 311.656 1590.58 322.05H1590.44V307.1H1574.24V380.709H1590.44V342.837C1590.44 328.457 1594.7 318.633 1605.79 318.633C1616.02 318.633 1619.29 326.464 1619.29 337.569V380.709H1635.2V342.837C1635.2 325.182 1641.31 318.633 1650.26 318.633C1660.07 318.633 1663.91 325.182 1663.91 337.569V380.709H1679.96V331.589C1679.96 314.931 1671.15 305.107 1654.53 305.107Z" fill="#528486"/>
<path d="M1757.61 363.766V335.433C1757.61 319.63 1751.35 304.965 1726.91 304.965C1707.3 304.965 1697.78 317.494 1697.07 329.596H1713.13C1713.56 322.192 1719.24 317.779 1727.2 317.779C1736.15 317.779 1741.41 321.765 1741.41 327.887C1741.41 334.01 1737.43 335.433 1727.77 337C1717.25 338.708 1692.24 339.278 1692.24 360.634C1692.24 372.309 1701.62 382.56 1718.1 382.56C1732.17 382.56 1738.85 375.441 1741.41 368.75H1741.55V370.885C1741.55 374.302 1741.69 377.719 1742.26 380.709H1759.03C1757.89 376.865 1757.61 369.319 1757.61 363.766ZM1741.83 346.824C1741.83 363.197 1732.31 370.458 1722.22 370.458C1713.7 370.458 1708.58 366.187 1708.58 360.349C1708.58 353.8 1713.84 350.952 1723.93 349.102C1736.01 346.966 1740.13 343.549 1741.83 339.135V346.824Z" fill="#528486"/>
<path d="M1812.85 305.107C1800.63 305.107 1793.52 312.511 1790.97 321.196V307.1H1774.62V380.709H1791.11V343.406C1791.11 325.325 1798.64 318.633 1808.73 318.633C1819.1 318.633 1822.94 326.179 1822.94 338.139V380.709H1839.28V334.721C1839.28 317.779 1831.89 305.107 1812.85 305.107Z" fill="#528486"/>
<path d="M1872.44 295.568V279.337H1855.24V295.568H1872.44ZM1855.67 380.709H1872.01V307.1H1855.67V380.709Z" fill="#528486"/>
<path d="M1924.77 319.914V307.1H1910.41V282.612H1909.85L1894.07 290.585V307.1H1882.7V319.914H1894.07V357.359C1894.07 370.316 1899.33 380.709 1915.39 380.709H1923.2V368.038H1918.8C1912.55 368.038 1910.41 362.77 1910.41 355.366V319.914H1924.77Z" fill="#528486"/>
<path d="M1953.89 295.568V279.337H1936.7V295.568H1953.89ZM1937.13 380.709H1953.47V307.1H1937.13V380.709Z" fill="#528486"/>
<path d="M2039.2 345.257C2039.06 324.47 2028.82 305.107 2003.81 305.107C1982.36 305.107 1966.73 321.338 1966.73 343.691C1966.73 366.899 1981.79 382.703 2003.81 382.703C2021.15 382.703 2033.8 373.875 2038.2 358.926H2021.86C2019.16 366.329 2012.2 369.461 2003.81 369.461C1992.3 369.461 1983.78 361.773 1982.64 348.39H2039.2V345.257ZM1982.93 336.43C1984.63 325.182 1992.3 317.921 2003.67 317.921C2015.04 317.921 2021.72 324.897 2022.86 336.43H1982.93Z" fill="#528486"/>
<path d="M2091.95 329.169H2107.58C2105.87 313.223 2093.94 305.107 2078.02 305.107C2062.96 305.107 2049.89 314.077 2049.89 327.46C2049.89 340.844 2061.68 346.396 2073.47 349.102C2085.27 351.949 2092.52 353.088 2092.52 360.349C2092.52 367.183 2085.98 370.031 2079.02 370.031C2070.49 370.031 2065.52 366.329 2064.1 358.214H2047.75C2049.46 375.868 2063.67 382.703 2078.73 382.703C2094.93 382.703 2109 374.16 2109 359.495C2109 347.678 2099.62 341.556 2086.69 338.708C2074.33 335.861 2065.8 333.867 2065.8 326.748C2065.8 321.48 2071.34 317.636 2077.74 317.636C2084.42 317.636 2090.81 321.053 2091.95 329.169Z" fill="#528486"/>
</svg>
